<svg width="26" height="26" viewBox="0 0 26 26" fill="none" xmlns="http://www.w3.org/2000/svg">
<g clip-path="url(#clip0_762_15234)">
<path d="M18.4154 22.75V20.5833C18.4154 19.4341 17.9588 18.3319 17.1462 17.5192C16.3335 16.7065 15.2313 16.25 14.082 16.25H5.41536C4.26609 16.25 3.16389 16.7065 2.35124 17.5192C1.53858 18.3319 1.08203 19.4341 1.08203 20.5833V22.75" stroke="#BE63F9" stroke-width="2.3" stroke-linecap="round" stroke-linejoin="round"/>
<path d="M9.7513 11.9167C12.1445 11.9167 14.0846 9.97657 14.0846 7.58333C14.0846 5.1901 12.1445 3.25 9.7513 3.25C7.35807 3.25 5.41797 5.1901 5.41797 7.58333C5.41797 9.97657 7.35807 11.9167 9.7513 11.9167Z" stroke="#BE63F9" stroke-width="2.3" stroke-linecap="round" stroke-linejoin="round"/>
<path d="M24.918 22.7498V20.5831C24.9173 19.623 24.5977 18.6903 24.0094 17.9315C23.4212 17.1726 22.5976 16.6307 21.668 16.3906" stroke="#BE63F9" stroke-width="2.3" stroke-linecap="round" stroke-linejoin="round"/>
<path d="M17.332 3.39062C18.2641 3.62928 19.0903 4.17138 19.6803 4.93146C20.2703 5.69154 20.5905 6.62636 20.5905 7.58854C20.5905 8.55073 20.2703 9.48555 19.6803 10.2456C19.0903 11.0057 18.2641 11.5478 17.332 11.7865" stroke="#BE63F9" stroke-width="2.3" stroke-linecap="round" stroke-linejoin="round"/>
</g>
<defs>
<clipPath id="clip0_762_15234">
<rect width="26" height="26" fill="white"/>
</clipPath>
</defs>
</svg>
