<svg width="16" height="16" viewBox="0 0 16 16" fill="none" xmlns="http://www.w3.org/2000/svg">
<path d="M3.56904 7.08535C2.94392 7.08364 2.31709 7.10755 1.69197 7.07852C0.742334 7.03582 0.0710976 6.41753 0.03523 5.4696C-0.0125935 4.19203 -0.0108855 2.90933 0.03523 1.63006C0.0676817 0.714579 0.696219 0.0740864 1.6117 0.0382188C2.88927 -0.0130206 4.17196 -0.0113125 5.44953 0.034803C6.406 0.0689626 7.04308 0.723119 7.07211 1.67617C7.1114 2.92641 7.1131 4.18007 7.0704 5.43031C7.03795 6.41411 6.35476 7.04265 5.36071 7.08193C4.76463 7.10584 4.16684 7.08706 3.56904 7.08535Z" fill="#4B5A78"/>
<path d="M15.9817 3.47466C15.9817 4.09978 16.0073 4.72831 15.9765 5.35173C15.9253 6.40043 15.2814 7.05629 14.2515 7.0802C13.0286 7.10753 11.8039 7.10924 10.5827 7.07679C9.64163 7.05117 8.96185 6.40214 8.9294 5.46445C8.88499 4.18518 8.8867 2.90419 8.9294 1.62491C8.96014 0.724806 9.60405 0.0740649 10.5127 0.0381973C11.7903 -0.0113341 13.073 -0.011334 14.3505 0.0347815C15.3053 0.0706491 15.9133 0.719682 15.9697 1.68128C16.0056 2.27565 15.9765 2.87515 15.9765 3.47295C15.9782 3.47466 15.9799 3.47466 15.9817 3.47466Z" fill="#2E3747"/>
<path d="M7.07746 12.5148C7.07746 13.1399 7.11162 13.7684 7.06892 14.3919C7.00743 15.2902 6.36523 15.9359 5.46513 15.9632C4.18585 16.0025 2.90486 16.0008 1.62559 15.9632C0.757931 15.9376 0.0849865 15.3193 0.0491189 14.4653C-0.00724451 13.1314 -0.00553664 11.7906 0.0439948 10.4567C0.0764464 9.59926 0.727187 8.96389 1.59484 8.93314C2.90145 8.88532 4.21318 8.88361 5.51807 8.93485C6.40964 8.96901 7.00231 9.64708 7.08088 10.554C7.086 10.6104 7.08942 10.6685 7.08942 10.7248C7.08942 11.3226 7.08942 11.9204 7.08942 12.5165C7.086 12.5148 7.08258 12.5148 7.07746 12.5148Z" fill="#2E3747"/>
<path d="M12.4719 15.9786C11.8741 15.9786 11.2763 15.9957 10.6802 15.9752C9.6264 15.9376 8.95346 15.3142 8.92271 14.2843C8.88685 13.0613 8.88855 11.8367 8.92101 10.6155C8.94833 9.61805 9.59224 8.95536 10.5863 8.92291C11.8365 8.88192 13.0902 8.88192 14.3404 8.92632C15.2918 8.96048 15.9357 9.60952 15.9681 10.5643C16.0108 11.8145 16.0108 13.0682 15.9681 14.3184C15.934 15.3159 15.2696 15.9325 14.267 15.9752C13.6675 15.9991 13.0697 15.9786 12.4719 15.9786Z" fill="#4B5A78"/>
</svg>
