<svg width="17" height="18" viewBox="0 0 17 18" fill="none" xmlns="http://www.w3.org/2000/svg">
<path d="M13.4868 5.33339C13.7362 5.40094 13.9874 5.46329 14.2334 5.53604C15.3713 5.87899 16.13 6.84895 16.1352 8.03196C16.1473 10.5123 16.1508 12.9926 16.1334 15.4729C16.123 16.9019 15.037 17.9844 13.6098 17.9896C9.91876 18.0035 6.22598 18.0035 2.53494 17.9896C1.10598 17.9844 0.0217026 16.9019 0.0113102 15.4729C-0.00774261 13.1364 0.00264967 10.7998 0.00438174 8.46498C0.00611381 6.6948 0.627928 5.89631 2.33402 5.4581C2.44487 5.43039 2.5488 5.37496 2.65618 5.33339C3.25202 4.90384 3.93099 5.13247 4.57532 5.0857C6.90322 5.05106 9.23113 5.04587 11.559 5.0857C12.2068 5.129 12.8893 4.9021 13.4868 5.33339Z" fill="#2E3747"/>
<path d="M13.4869 5.33325C12.8789 5.33325 12.271 5.33325 11.663 5.33325C11.3391 5.10635 11.379 4.72356 11.275 4.40832C10.7866 2.91528 9.63304 2.08908 8.02914 2.1012C6.48067 2.1116 5.34962 2.94645 4.86984 4.41006C4.76591 4.72703 4.80575 5.10981 4.48012 5.33498C3.87217 5.33498 3.26421 5.33498 2.65625 5.33498C2.89874 2.2034 5.09328 0.0244478 8.02741 0.000198812C10.9841 -0.0240502 13.2323 2.17222 13.4869 5.33325Z" fill="#4B5A78"/>
<path d="M3.55656 10.3754C4.30135 10.3719 4.90065 11.0024 4.8816 11.7714C4.86427 12.5076 4.2823 13.0913 3.56522 13.0947C2.81523 13.0965 2.22979 12.4746 2.24365 11.6918C2.25577 10.9695 2.84641 10.3771 3.55656 10.3754Z" fill="#4B5A78"/>
<path d="M12.5707 13.0947C11.8536 13.0895 11.2734 12.5023 11.2595 11.7662C11.2457 10.9954 11.845 10.3684 12.5915 10.3753C13.3034 10.3822 13.8888 10.9729 13.8992 11.6969C13.9096 12.4815 13.3207 13.0999 12.5707 13.0947Z" fill="#4B5A78"/>
<path d="M8.03575 10.3752C8.74763 10.3544 9.35039 10.9243 9.38849 11.6552C9.43006 12.4312 8.86021 13.0668 8.10503 13.0911C7.38968 13.1136 6.78692 12.5437 6.75228 11.8111C6.71418 11.0368 7.28749 10.3977 8.03575 10.3752Z" fill="#4B5A78"/>
</svg>
