<svg width="18" height="17" viewBox="0 0 18 17" fill="none" xmlns="http://www.w3.org/2000/svg">
<path d="M0.100823 4.4251C-0.00879972 3.94375 0.215583 3.69366 0.645508 3.51208C3.26445 2.39693 5.87655 1.26636 8.48521 0.127223C8.84834 -0.0320848 9.16693 -0.0475016 9.53519 0.113519C12.1439 1.25265 14.7525 2.39008 17.3749 3.49666C17.8613 3.70222 17.971 3.99686 17.9727 4.4782C17.9744 4.94242 17.8374 5.18567 17.3937 5.37238C14.7731 6.4824 12.1644 7.61982 9.55746 8.76238C9.19605 8.92169 8.88431 8.93882 8.51262 8.77608C5.90738 7.6301 3.29871 6.49096 0.67634 5.38437C0.196742 5.18053 -0.00366119 4.91844 0.100823 4.4251Z" fill="#4D88FF"/>
<path d="M17.9584 12.0876C18.128 12.6957 17.7631 12.9921 17.1551 13.2473C14.6372 14.3008 12.1347 15.3937 9.63738 16.4951C9.21431 16.6818 8.86318 16.6955 8.42983 16.5037C5.88111 15.3765 3.31869 14.2819 0.761405 13.1719C0.208155 12.9321 -0.218344 11.6354 0.1208 11.1712C0.345183 10.8645 0.59012 11.166 0.783672 11.2483C3.29642 12.3154 5.80574 13.3895 8.29965 14.4995C8.81008 14.7273 9.21602 14.7376 9.72988 14.5063C12.1433 13.4272 14.5772 12.3925 17.0043 11.3425C17.9584 10.9296 17.9584 10.9296 17.9584 12.0876Z" fill="#264480"/>
<path d="M0.0819197 7.03064C2.91497 8.25029 5.60757 9.39285 8.28304 10.5748C8.79004 10.7992 9.19256 10.8335 9.71841 10.5971C12.2089 9.47678 14.7302 8.4233 17.2241 7.31157C17.8287 7.04263 17.9452 7.13856 17.9795 7.80148C18.0257 8.6614 17.7756 9.09307 16.9295 9.42882C14.5247 10.383 12.1609 11.445 9.80062 12.5105C9.2251 12.7709 8.76777 12.7469 8.20253 12.4933C5.86792 11.4433 3.52817 10.3984 1.15074 9.44938C0.296026 9.10849 -0.0808008 8.66483 0.0767812 7.76722C0.109325 7.57537 0.0819197 7.37324 0.0819197 7.03064Z" fill="#264480"/>
</svg>
