<svg width="18" height="16" viewBox="0 0 18 16" fill="none" xmlns="http://www.w3.org/2000/svg">
<path d="M0.0047265 0.447655C1.04298 -0.546484 3.23765 0.198726 3.42198 1.8593C3.48658 2.44696 3.74496 2.50683 4.23021 2.50368C8.14217 2.4895 12.0557 2.49423 15.9677 2.4958C17.5447 2.4958 18.1151 3.14963 17.9812 4.73301C17.8015 6.86938 17.6424 9.00891 17.4927 11.1469C17.4234 12.1441 16.7649 13.4124 15.6289 13.6929C15.161 12.6861 14.556 12.2529 13.7683 12.3584C12.9301 12.4719 12.5 12.9461 12.2794 14.0017C10.9261 14.0032 9.57272 14.0048 8.22095 14.0064C8.01928 12.6593 6.95897 12.0055 5.84037 12.5112C5.311 12.7507 5.1377 13.2454 4.87616 13.685C4.14198 13.5652 3.74653 13.0627 3.46294 12.434C3.64255 12.4167 3.82216 12.401 4.00019 12.382C4.5264 12.3301 4.8935 12.0922 4.89822 11.5171C4.90137 10.92 4.5075 10.7167 3.98286 10.6915C3.64728 10.6758 3.31012 10.6868 2.97296 10.6852C2.89419 10.6868 2.81541 10.6837 2.73821 10.6915C2.15843 10.7514 1.68263 10.5245 1.659 9.9416C1.63379 9.31141 2.09384 9.04042 2.72088 9.10501C3.37156 9.10029 4.02382 9.08926 4.6745 9.09083C5.27161 9.09241 5.75844 8.87342 5.74742 8.22904C5.73639 7.58781 5.23695 7.38772 4.64457 7.39087C3.94189 7.39402 3.23765 7.383 2.5334 7.37827C2.27502 7.38142 2.01506 7.38457 1.75668 7.38457C1.20683 7.38615 0.819259 7.11201 0.827136 6.57161C0.833438 6.07691 1.20841 5.8075 1.72202 5.79962C1.9032 5.79647 2.08438 5.79489 2.26557 5.79174C3.3369 5.79332 4.40982 5.78702 5.48116 5.79804C6.08142 5.80435 6.57298 5.60268 6.56195 4.95043C6.55092 4.31235 6.05621 4.09336 5.46225 4.09493C4.33734 4.09966 3.21402 4.10438 2.08911 4.10754C2.02767 3.74832 1.92053 3.38911 1.91423 3.0299C1.89847 2.21851 1.79607 1.54578 0.7137 1.67497C0.406478 1.7112 0.263108 1.34411 0 1.23068C0.00472649 0.972296 0.0047265 0.709188 0.0047265 0.447655Z" fill="#2E3747"/>
<path d="M12.2795 14.0033C12.5001 12.9477 12.9302 12.4719 13.7684 12.3601C14.5577 12.2545 15.1627 12.6878 15.629 13.6945C15.5125 14.8651 15.0603 15.4748 14.2237 15.5899C13.2122 15.7301 12.5773 15.2117 12.2795 14.0033Z" fill="#4B5A78"/>
<path d="M4.87622 13.6865C5.13775 13.247 5.31106 12.7523 5.84042 12.5128C6.95903 12.007 8.01776 12.6609 8.221 14.0079C8.00831 15.1013 7.45216 15.6244 6.52419 15.6055C5.55684 15.5866 5.04165 14.9863 4.87622 13.6865Z" fill="#4B5A78"/>
<path d="M2.09375 4.11212C3.21865 4.1074 4.34198 4.10425 5.46689 4.09952C6.06085 4.09637 6.55556 4.31694 6.56659 4.95502C6.57761 5.60727 6.08606 5.80894 5.4858 5.80263C4.41446 5.79161 3.34154 5.79633 2.27021 5.79633C2.21034 5.23388 2.15204 4.673 2.09375 4.11212Z" fill="#4B5A78"/>
<path d="M2.53638 7.37988C3.24062 7.38461 3.9433 7.39564 4.64754 7.39249C5.23836 7.38934 5.73779 7.58785 5.75039 8.23065C5.76142 8.87503 5.27459 9.09402 4.67748 9.09245C4.0268 9.09087 3.37454 9.1019 2.72386 9.10663C2.66084 8.53157 2.59782 7.95651 2.53638 7.37988Z" fill="#4B5A78"/>
<path d="M2.97461 10.6867C3.31177 10.6883 3.64735 10.6773 3.9845 10.693C4.50914 10.7167 4.90302 10.9215 4.89987 11.5186C4.89672 12.0937 4.52962 12.3316 4.00183 12.3836C3.82223 12.4009 3.64262 12.4182 3.46459 12.4355C2.96673 11.9456 3.02503 11.2996 2.97461 10.6867Z" fill="#4B5A78"/>
</svg>
