<svg width="16" height="17" viewBox="0 0 16 17" fill="none" xmlns="http://www.w3.org/2000/svg">
<path d="M7.1829 4.46211C7.1829 5.35379 7.19975 6.24547 7.17831 7.13716C7.15534 8.13609 6.55499 8.77345 5.56412 8.79949C4.26541 8.8332 2.96518 8.83167 1.66801 8.80102C0.706229 8.77804 0.0599401 8.19278 0.0354362 7.22908C-0.0135715 5.3446 -0.0105085 3.45858 0.0369677 1.57409C0.0599401 0.665552 0.629655 0.0879487 1.53936 0.048114C2.91158 -0.0131701 4.28992 -0.0177664 5.66213 0.0450499C6.64995 0.091013 7.1584 0.709983 7.17831 1.71045C7.19822 2.62664 7.18444 3.54437 7.1829 4.46211Z" fill="#4B5A78"/>
<path d="M8.81014 11.5694C8.81014 10.6777 8.79635 9.78602 8.81473 8.89433C8.83464 7.89081 9.41048 7.23966 10.4014 7.20596C11.7246 7.15999 13.0508 7.16153 14.3725 7.20749C15.3282 7.2412 15.9408 7.85097 15.9637 8.82539C16.0081 10.6593 16.0097 12.4948 15.9683 14.3272C15.9438 15.3736 15.3128 15.9527 14.2515 15.9788C13.0049 16.0079 11.7552 16.0094 10.5086 15.9788C9.40589 15.9527 8.83158 15.346 8.8132 14.246C8.79789 13.3528 8.81014 12.4611 8.81014 11.5694Z" fill="#2E3747"/>
<path d="M3.58193 10.3851C4.22057 10.3836 4.8592 10.3683 5.4963 10.3882C6.54078 10.4219 7.15337 11.0317 7.18094 12.0658C7.20085 12.8319 7.20238 13.5979 7.17788 14.364C7.14878 15.2986 6.59591 15.9267 5.66476 15.9604C4.28948 16.011 2.90808 16.0079 1.5328 15.9574C0.673633 15.9252 0.108513 15.3583 0.0472532 14.4927C-0.0140064 13.6301 -0.0155379 12.7553 0.0472532 11.8927C0.114639 10.9627 0.727235 10.4296 1.6691 10.3912C2.30467 10.3652 2.9433 10.3867 3.58193 10.3851Z" fill="#2E3747"/>
<path d="M12.4044 5.6172C11.7658 5.6172 11.1287 5.63558 10.49 5.6126C9.44096 5.57583 8.83756 4.96912 8.81305 3.92729C8.79467 3.16124 8.79314 2.39519 8.81612 1.63067C8.84368 0.716002 9.34295 0.103161 10.2603 0.0571979C11.6586 -0.0132789 13.066 -0.0102147 14.4658 0.0495373C15.3724 0.089372 15.9039 0.674635 15.9605 1.59083C16.0111 2.40438 16.0157 3.22559 15.959 4.03913C15.8901 5.04419 15.2683 5.58502 14.2407 5.6126C13.6296 5.63099 13.017 5.6172 12.4044 5.6172Z" fill="#2E3747"/>
</svg>
