<svg width="18" height="16" viewBox="0 0 18 16" fill="none" xmlns="http://www.w3.org/2000/svg">
<path d="M5.13279 12.7297C4.52915 12.3353 3.86035 12.5736 3.22756 12.5616C1.13198 12.5239 0.0121598 11.4281 0.00530026 9.31879C-0.00155926 7.29008 0.0173044 5.2631 0.000155667 3.2344C-0.0135634 1.60012 0.878173 -0.0633109 3.20869 0.00185442C7.11861 0.111607 11.0354 0.0875984 14.947 0.00699917C16.6928 -0.0290133 17.9292 1.13196 17.9686 2.97888C18.0149 5.17736 18.0047 7.37754 17.9721 9.57602C17.9446 11.4075 16.7528 12.5119 14.9282 12.5599C14.2371 12.5788 13.5151 12.3473 12.8515 12.7297C12.5016 12.9115 12.1261 12.824 11.7625 12.824C9.85899 12.8274 7.95719 12.8206 6.05367 12.8274C5.74328 12.8309 5.42603 12.8926 5.13279 12.7297Z" fill="#2E3747"/>
<path d="M5.13258 12.7295C5.47727 12.5803 5.83739 12.5408 6.21295 12.5425C8.06502 12.5494 9.91709 12.5494 11.7692 12.5425C12.1447 12.5408 12.5031 12.582 12.8495 12.7312C13.4206 13.1685 13.5904 13.7429 13.3228 14.3946C13.0605 15.0343 12.5048 15.1852 11.8515 15.1783C9.94452 15.1612 8.03587 15.1612 6.12892 15.1783C5.47555 15.1852 4.91993 15.0325 4.65756 14.3929C4.39175 13.7412 4.56152 13.1667 5.13258 12.7295Z" fill="#4B5A78"/>
<path d="M14.3726 6.30395C14.3726 7.07564 14.3863 7.84562 14.3692 8.61732C14.3503 9.5022 14.0451 9.81087 13.1894 9.81773C12.1621 9.82802 11.1332 9.79715 10.106 9.82802C9.38747 9.8486 8.99991 9.50391 8.98791 8.83168C8.95875 7.12023 8.96733 5.40706 8.99477 3.6939C9.00677 3.00452 9.45435 2.6684 10.1163 2.6564C11.1435 2.63754 12.1724 2.63582 13.1996 2.6564C13.9936 2.67183 14.3966 3.08169 14.3761 3.90312C14.3572 4.70396 14.3726 5.5031 14.3726 6.30395Z" fill="#4B5A78"/>
<path d="M7.19619 6.71733C7.19619 7.43243 7.20648 8.14582 7.19276 8.85921C7.18076 9.47657 6.84807 9.77667 6.22728 9.82126C3.72871 10.003 3.6121 9.89843 3.6121 7.39127C3.6121 6.53384 3.60352 5.6764 3.61553 4.82067C3.62753 3.92208 3.91049 3.63912 4.78336 3.61168C7.19791 3.53623 7.19791 3.53623 7.19791 5.94563C7.19791 6.20286 7.19791 6.4601 7.19791 6.71733H7.19619Z" fill="#4B5A78"/>
</svg>
