<svg width="17" height="18" viewBox="0 0 17 18" fill="none" xmlns="http://www.w3.org/2000/svg">
<path d="M16.0209 5.96192C16.0325 9.08304 16.0828 12.2042 16.0422 15.3253C16.0228 16.7844 14.7164 17.9826 13.2631 17.9884C9.78639 18.0039 6.31159 18.0039 2.83487 17.9884C1.30233 17.9807 0.0403477 16.796 0.0268195 15.2557C-0.00989961 11.0717 -0.00796703 6.88763 0.0268195 2.70358C0.0384151 1.28892 1.23275 0.030808 2.56817 0.0134147C5.39941 -0.0213719 8.23065 0.0211451 11.0619 0.0327406C11.3962 0.591258 11.3015 1.21162 11.3131 1.81652C11.3228 2.36151 11.3035 2.9065 11.3209 3.44955C11.3711 5.01688 12.0089 5.64304 13.5627 5.71455C14.384 5.75706 15.2343 5.55028 16.0209 5.96192Z" fill="#2E3747"/>
<path d="M16.021 5.96191C15.0895 5.97157 14.156 6.00443 13.2245 5.98124C11.8717 5.94838 11.0755 5.15216 11.0504 3.79741C11.0272 2.54316 11.0562 1.28892 11.062 0.034668C12.8187 1.9228 14.4324 3.93076 16.021 5.96191Z" fill="#4B5A78"/>
<path d="M9.50832 10.4648C9.50832 11.1722 9.53924 11.8814 9.50059 12.5849C9.4542 13.4604 8.81838 14.0363 7.99704 14.0131C7.20468 13.9918 6.59785 13.441 6.57466 12.6061C6.536 11.1934 6.53794 9.77684 6.57466 8.36412C6.59591 7.57369 7.26266 6.98619 8.02409 6.98039C8.78167 6.97459 9.44841 7.55823 9.49479 8.34286C9.53731 9.04826 9.50445 9.75558 9.50445 10.4629C9.50638 10.4648 9.50832 10.4648 9.50832 10.4648Z" fill="#4B5A78"/>
<path d="M11.048 11.0137C11.048 10.5016 11.0151 9.98558 11.0557 9.4773C11.1214 8.65016 11.7959 7.99308 12.5399 7.97569C13.2724 7.95829 14.0261 8.60184 14.0725 9.41933C14.1324 10.4726 14.1324 11.5336 14.0744 12.5868C14.028 13.4275 13.3129 14.044 12.5496 14.0305C11.7823 14.017 11.1233 13.3889 11.0557 12.5482C11.0151 12.0399 11.048 11.5258 11.048 11.0137Z" fill="#4B5A78"/>
<path d="M5.03009 12.005C5.03009 13.352 4.32663 14.1792 3.30236 13.9956C2.41337 13.8352 2.01913 13.2341 1.97274 12.3625C1.90124 11.0387 2.2607 10.2947 3.08978 10.0744C4.22421 9.77095 5.03009 10.573 5.03009 12.005Z" fill="#4B5A78"/>
</svg>
