<svg width="18" height="18" viewBox="0 0 18 18" fill="none" xmlns="http://www.w3.org/2000/svg">
<path d="M8.17388 17.9484C4.14635 18.0981 0.561941 14.9334 0.0735162 10.9791C-0.493686 6.37878 2.26946 2.62334 6.69482 1.74897C7.74257 1.54219 8.76274 1.54416 9.80655 1.75882C10.3639 1.87303 10.5037 2.06209 10.3285 2.6194C9.81837 4.24013 9.37327 5.88252 8.87303 7.50719C8.70957 8.03496 8.58352 8.54304 9.02074 8.97432C9.45599 9.40362 9.96608 9.27562 10.4919 9.1102C12.0517 8.61787 13.6293 8.18266 15.1832 7.67261C15.8311 7.45993 16.0694 7.53279 16.2368 8.27522C17.3318 13.1295 13.1034 18.2556 8.17388 17.9484Z" fill="#2E3747"/>
<path d="M11.896 7.24534C11.1259 7.27291 10.5981 6.66636 10.8029 5.93378C11.3209 4.07477 11.9058 2.23348 12.4396 0.38037C12.5538 -0.0174278 12.7625 -0.064691 13.0914 0.0633133C15.4174 0.973128 17.0303 2.59583 17.9343 4.92157C18.019 5.14016 18.0722 5.3942 17.763 5.48872C15.7896 6.08345 13.8142 6.6703 11.896 7.24534Z" fill="#4B5A78"/>
</svg>
