<svg width="21" height="21" viewBox="0 0 21 21" fill="none" xmlns="http://www.w3.org/2000/svg">
<path d="M10.5197 0.281124C16.301 0.439678 20.9189 5.1745 20.7207 10.7417C20.5146 16.5527 15.7976 21.125 10.2284 20.9149C4.45702 20.6969 -0.0558219 16.0711 0.0730032 10.4999C0.207774 4.73253 4.91484 0.126534 10.5197 0.281124Z" fill="#596680"/>
<path d="M10.4452 1.81509C15.2494 1.84283 19.2033 5.82452 19.1855 10.6188C19.1677 15.4487 15.1186 19.4423 10.3005 19.3829C5.50822 19.3234 1.56419 15.3021 1.61374 10.5237C1.66329 5.70759 5.63903 1.78734 10.4452 1.81509Z" fill="#FEFEFE"/>
<path d="M11.7018 5.46973C11.9614 5.46973 12.2151 5.58468 12.3697 5.88197C12.5758 6.28033 12.3935 6.5796 12.1239 6.85113C11.2162 7.76281 10.3343 8.70224 9.38492 9.56636C8.78241 10.1154 8.64764 10.4761 9.35915 11.0786C10.3105 11.8852 11.1429 12.8346 12.0308 13.7165C12.4153 14.099 12.6868 14.5172 12.2191 14.9909C11.7513 15.4666 11.3331 15.2089 10.9467 14.8204C9.69211 13.558 8.43954 12.2955 7.17309 11.0449C6.71328 10.591 6.65184 10.1451 7.11759 9.67735C8.41972 8.36928 9.72977 7.07112 11.0339 5.76503C11.2043 5.59657 11.4005 5.49549 11.7018 5.46973Z" fill="#596680"/>
</svg>
