<svg width="20" height="20" viewBox="0 0 20 20" fill="none" xmlns="http://www.w3.org/2000/svg">
<g clip-path="url(#clip0_333_412)">
<path d="M9.99923 19.9889C6.8279 19.9889 3.65656 19.981 0.485234 20C0.0888176 20.0016 -0.0015653 19.9096 2.03692e-05 19.5132C0.0142914 13.1706 0.0142914 6.8279 2.03692e-05 0.485234C-0.0015653 0.0888176 0.0888176 -0.0015653 0.485234 2.03692e-05C6.8279 0.0142914 13.1706 0.0142914 19.5132 2.03692e-05C19.9096 -0.0015653 20 0.0888176 19.9984 0.485234C19.9842 6.8279 19.9842 13.1706 19.9984 19.5132C20 19.9096 19.9096 20.0016 19.5132 20C16.3419 19.981 13.1706 19.9889 9.99923 19.9889Z" fill="white"/>
<path d="M17.9301 4.96188C17.8778 5.77849 17.6193 6.45716 17.0723 7.00421C14.0674 10.0138 11.0578 13.0186 8.05301 16.0267C7.78345 16.2962 7.47107 16.4722 7.10637 16.5753C5.83783 16.9321 4.57247 17.2999 3.30235 17.652C2.42865 17.893 2.10993 17.5663 2.35096 16.6847C2.68553 15.4653 3.05023 14.2523 3.36895 13.0282C3.64644 11.9737 4.54552 11.433 5.21784 10.7099C5.92187 9.95196 5.94249 9.97258 5.2115 9.23842C4.4472 8.47095 3.68133 7.70666 2.91545 6.9392C2.01004 6.0322 1.99101 5.32024 2.86471 4.41799C3.43396 3.82971 4.01432 3.25094 4.60101 2.68169C5.44142 1.86666 6.17875 1.85873 7.00964 2.67217C7.91506 3.55856 8.82047 4.44653 9.691 5.36781C10.0224 5.71824 10.2159 5.74202 10.5599 5.37732C11.3924 4.4941 12.2408 3.61882 13.1446 2.81013C14.0785 1.97448 15.1806 1.84129 16.3112 2.39627C17.3831 2.92112 17.8746 3.84081 17.9301 4.96188Z" fill="#8E9AB2"/>
<path d="M14.4173 17.8073C13.986 17.8279 13.6371 17.6567 13.3454 17.3681C12.6334 16.6609 11.9452 15.9283 11.211 15.2465C10.8527 14.9151 11.0144 14.728 11.2808 14.498C11.5218 14.2903 11.6883 13.9082 12.0895 14.3442C12.6778 14.9848 13.3342 15.5652 13.9257 16.2042C14.2635 16.5689 14.5029 16.653 14.8708 16.2343C15.3576 15.6809 15.9094 15.183 16.4295 14.6582C16.6087 14.4774 16.8655 14.3236 16.6071 14.0049C16.4009 13.7512 16.2297 13.7258 15.9585 13.9367C15.7349 14.1111 15.4575 14.0636 15.2339 13.8638C15.0563 13.7052 14.9707 13.4436 15.0864 13.2913C15.5161 12.7284 15.0943 12.4335 14.7455 12.1655C14.2095 11.7517 14.2317 11.4298 14.7455 11.0112C15.0198 10.7876 15.1594 10.7971 15.3893 11.0334C16.087 11.7532 16.8227 12.4383 17.5077 13.1708C18.1642 13.8717 18.1515 14.6566 17.4903 15.3543C16.837 16.0441 16.1536 16.7053 15.4749 17.3713C15.1831 17.6599 14.8343 17.8359 14.4173 17.8073Z" fill="#8E9AB2"/>
<path d="M14.4782 7.81121C14.3482 7.9555 14.2483 8.07443 14.1405 8.18226C11.8476 10.4767 9.56744 12.7854 7.24761 15.0529C6.62445 15.6603 5.69049 15.6222 4.904 15.8949C4.57577 16.0075 4.15715 16.331 3.8971 16.0614C3.70048 15.8585 4.03664 15.4398 4.08421 15.11C4.30303 13.5767 5.11648 12.435 6.23913 11.3885C8.12924 9.6268 9.92422 7.76364 11.735 5.91792C12.0982 5.54688 12.3154 5.52309 12.6627 5.91951C13.1304 6.45388 13.66 6.93592 14.1595 7.44333C14.2658 7.55275 14.3609 7.67484 14.4782 7.81121Z" fill="white"/>
<path d="M7.94326 5.33252C7.8386 5.48633 7.75456 5.58781 7.69431 5.70198C7.55635 5.96361 7.58331 6.21732 7.79579 6.42345C8.0051 6.62642 8.2588 6.6835 8.5141 6.5186C8.72499 6.38223 8.92003 6.23793 9.10555 6.53128C9.28156 6.80719 8.99772 6.90233 8.87246 7.03235C8.3254 7.6016 7.74505 8.14073 7.20434 8.71633C6.93636 9.00175 6.76035 9.06359 6.45432 8.7417C5.5822 7.82677 4.67996 6.94038 3.77454 6.05717C3.50022 5.79077 3.40984 5.5894 3.7349 5.28495C4.33111 4.72679 4.89244 4.13375 5.4712 3.55657C5.62026 3.40752 5.76614 3.23627 6.00716 3.42179C6.23232 3.59463 6.27514 3.74685 6.07693 4.00214C5.88348 4.24951 5.90726 4.55713 6.16097 4.78388C6.4115 5.00746 6.67631 4.96781 6.95856 4.81083C7.56745 4.48101 7.57221 5.19139 7.94326 5.33252Z" fill="#FDFDFE"/>
<path d="M14.8902 3.32199C15.6989 3.34102 16.1777 3.63912 16.4758 4.18618C16.7914 4.76653 16.7597 5.36274 16.3744 5.90187C16.1777 6.17778 15.9034 6.39818 15.6798 6.65665C15.4626 6.90718 15.2977 6.83265 15.0979 6.6281C14.5271 6.04299 13.9419 5.47374 13.3679 4.89339C13.2442 4.76812 13.046 4.63334 13.2442 4.4383C13.7596 3.92454 14.2004 3.27759 14.8902 3.32199Z" fill="white"/>
</g>
<defs>
<clipPath id="clip0_333_412">
<rect width="20" height="20" fill="white"/>
</clipPath>
</defs>
</svg>
