<svg width="22" height="22" viewBox="0 0 22 22" fill="none" xmlns="http://www.w3.org/2000/svg">
<path d="M19.8978 6.67909C19.9048 8.28958 19.4145 9.48689 18.4479 10.4627C15.5832 13.3514 12.708 16.2312 9.81695 19.0953C8.42152 20.4772 6.39691 20.5071 5.0999 19.2149C3.80113 17.9208 3.80816 15.8778 5.17372 14.4907C7.39164 12.2384 9.64296 10.0179 11.8732 7.77795C12.237 7.41225 12.6482 7.13094 13.0735 7.574C13.5006 8.01882 13.1807 8.41968 12.824 8.77659C10.6236 10.9673 8.42328 13.1544 6.23874 15.3592C5.03136 16.5776 5.3688 18.2426 6.88901 18.712C7.61133 18.9353 8.2405 18.7278 8.74314 18.2285C11.6922 15.2994 14.6588 12.3861 17.5463 9.39547C18.9839 7.9063 18.8416 5.65408 17.3969 4.26161C15.947 2.86562 13.7519 2.85683 12.2616 4.32314C9.32134 7.21709 6.41976 10.1532 3.49885 13.07C3.31256 13.2564 3.13154 13.4533 2.92064 13.6063C2.66053 13.7962 2.36704 13.7979 2.1122 13.5799C1.82749 13.3373 1.78707 13.0243 1.97161 12.7131C2.08936 12.5162 2.26159 12.3474 2.42503 12.1822C5.36528 9.24427 8.28268 6.2835 11.2581 3.38076C14.1632 0.54659 18.8117 1.87225 19.7642 5.77188C19.8574 6.13933 19.8767 6.52262 19.8978 6.67909Z" fill="#525866"/>
</svg>
