<svg width="16" height="13" viewBox="0 0 16 13" fill="none" xmlns="http://www.w3.org/2000/svg">
<path d="M4.87252 3.56726C6.15475 3.56726 7.43528 3.54846 8.71751 3.57752C9.19963 3.58778 9.37573 3.44417 9.35008 2.9535C9.31418 2.27135 9.34495 1.58749 9.33983 0.903635C9.33812 0.537771 9.4236 0.212938 9.78775 0.0556508C10.1707 -0.110185 10.4391 0.124037 10.687 0.371935C12.3403 2.02174 13.9866 3.67668 15.645 5.32136C16.1271 5.80006 16.11 6.2138 15.6433 6.70959C13.9866 8.47224 12.3556 10.2622 10.7127 12.0403C10.4784 12.2933 10.2374 12.5651 9.83904 12.4266C9.42018 12.2796 9.33811 11.9274 9.34153 11.5308C9.34666 10.9324 9.30221 10.3306 9.3535 9.73738C9.40821 9.09284 9.23212 8.86033 8.52945 8.874C6.05218 8.92017 3.5749 8.86716 1.09762 8.90649C0.266734 8.92016 -0.0256157 8.60217 0.00173859 7.80377C0.0376412 6.72327 0.0290928 5.63935 0.0051578 4.55715C-0.010229 3.82542 0.300927 3.5382 1.03266 3.55871C2.30976 3.59291 3.592 3.56897 4.87252 3.56726ZM10.6887 10.0793C11.9658 8.70133 13.0771 7.50116 14.1935 6.30441C14.3525 6.13515 14.4004 5.99325 14.2157 5.80861C13.0805 4.68195 11.9487 3.55188 10.6887 2.29529C10.6887 2.89537 10.6904 3.28688 10.6887 3.67839C10.6853 4.78453 10.5674 4.90934 9.47831 4.91105C7.4028 4.91446 5.32729 4.91275 3.25178 4.91275C1.31475 4.91275 1.34381 4.91275 1.33868 6.82414C1.33697 7.46526 1.58145 7.561 2.13709 7.55416C4.32543 7.5268 6.51549 7.55758 8.70555 7.53877C10.9093 7.51996 10.7007 7.59861 10.6887 9.46212C10.6887 9.57496 10.6887 9.68609 10.6887 10.0793Z" fill="#5991FF"/>
<path d="M10.686 10.0794C10.686 9.68621 10.686 9.57337 10.686 9.46224C10.698 7.59702 10.9066 7.52009 8.70284 7.53889C6.51278 7.5577 4.32443 7.52693 2.13438 7.55428C1.57874 7.56112 1.33255 7.46538 1.33597 6.82426C1.3411 4.91288 1.31204 4.91288 3.24907 4.91288C5.32458 4.91288 7.40009 4.91459 9.4756 4.91117C10.5646 4.90946 10.6809 4.78465 10.686 3.67851C10.6877 3.287 10.686 2.8955 10.686 2.29541C11.946 3.552 13.0778 4.68208 14.213 5.80873C14.3977 5.99166 14.3498 6.13357 14.1908 6.30453C13.0744 7.50128 11.9631 8.70316 10.686 10.0794Z" fill="#DAE9FF"/>
</svg>
