<svg width="22" height="22" viewBox="0 0 22 22" fill="none" xmlns="http://www.w3.org/2000/svg">
<path d="M10.9826 20.3131C5.82144 20.1749 1.69323 15.9457 1.85623 10.9618C2.02632 5.7758 6.24135 1.68657 11.2324 1.86552C16.39 2.05156 20.4314 6.18862 20.3162 11.1673C20.1975 16.3196 15.9878 20.4442 10.9826 20.3131Z" fill="#525866"/>
<path d="M11.0564 3.23493C15.3511 3.21721 18.9035 6.73062 18.9389 11.0342C18.9761 15.3361 15.3777 18.9523 11.0688 18.9416C6.78818 18.931 3.23757 15.3751 3.23048 11.0909C3.22339 6.80149 6.75806 3.25265 11.0564 3.23493Z" fill="white"/>
<path d="M11.0125 16.1581C9.3931 16.1121 8.01821 15.4813 6.91617 14.2517C6.58485 13.8832 6.40944 13.4845 6.86656 13.1072C7.27761 12.767 7.60716 12.9973 7.93671 13.3162C9.97601 15.2953 12.1978 15.2971 14.2371 13.318C14.5985 12.9672 14.9529 12.7528 15.371 13.1656C15.7573 13.5465 15.5588 13.9168 15.2594 14.2499C14.1343 15.5026 12.7293 16.1386 11.0125 16.1581Z" fill="#525866"/>
<path d="M8.3358 9.92695C7.70505 9.93758 7.11505 9.37948 7.17175 8.75759C7.23199 8.09849 7.60938 7.65201 8.30036 7.64846C8.97541 7.64492 9.39354 8.02408 9.44138 8.72038C9.48745 9.39011 8.99312 9.91632 8.3358 9.92695Z" fill="#525866"/>
<path d="M15.0109 8.79508C14.9401 9.39039 14.6353 9.84574 13.9426 9.92015C13.2888 9.99102 12.7413 9.49138 12.7307 8.8252C12.7201 8.12712 13.0974 7.73025 13.7689 7.64343C14.3873 7.5637 14.9826 8.11472 15.0109 8.79508Z" fill="#525866"/>
</svg>
