<svg width="25" height="22" viewBox="0 0 25 22" fill="none" xmlns="http://www.w3.org/2000/svg">
<path d="M2.79506 9.95598C2.79506 8.61989 2.7812 7.28381 2.79903 5.94948C2.82677 3.94535 4.45935 2.4802 6.72794 2.46275C9.79499 2.44008 12.862 2.43834 15.9311 2.4645C18.1422 2.48369 19.8005 3.9471 19.8203 5.89889C19.8501 8.59896 19.8481 11.299 19.8203 14.0009C19.8005 15.984 18.1145 17.4335 15.8399 17.4457C12.8066 17.4614 9.77121 17.4649 6.73586 17.444C4.47124 17.4283 2.82677 15.9649 2.79903 13.9642C2.77921 12.6281 2.79506 11.2921 2.79506 9.95598Z" fill="#525866"/>
<path d="M6.14453 18.3403C9.58802 18.3403 12.8096 18.3438 16.0312 18.3369C16.4909 18.3351 16.9644 18.3421 17.4082 18.2566C19.441 17.8659 20.818 16.3659 20.8319 14.4908C20.8557 11.5309 20.8378 8.5709 20.8378 5.46094C21.8919 6.1377 22.3595 6.97144 22.3793 7.94647C22.4268 10.2419 22.4684 12.5408 22.3713 14.8327C22.2584 17.5171 19.651 19.6747 16.5919 19.7113C14.149 19.7392 11.706 19.72 9.26309 19.7165C8.07431 19.7131 7.1015 19.2979 6.14453 18.3403Z" fill="#525866"/>
<path d="M4.66123 14.8418C4.26101 14.4859 4.36404 14.1197 4.36206 13.7848C4.35215 11.2312 4.35017 8.67765 4.35809 6.12409C4.36206 4.64498 5.23977 3.84264 6.88623 3.83566C9.82053 3.82171 12.7528 3.82171 15.6871 3.83566C17.3633 3.84264 18.2529 4.6258 18.2569 6.08921C18.2668 8.72998 18.2609 11.3707 18.2549 14.0115C18.2549 14.2644 18.3401 14.6168 18.0429 14.7266C17.7239 14.8453 17.5694 14.4859 17.3752 14.3185C15.9427 13.0766 14.5281 11.819 13.1035 10.5701C11.8216 9.44511 10.8052 9.43639 9.5372 10.5492C7.91056 11.9725 6.28986 13.4063 4.66123 14.8418Z" fill="#FEFEFE"/>
<path d="M5.61328 15.9716C7.48759 14.3094 9.19546 12.7901 10.9093 11.2796C11.155 11.0616 11.4601 11.0651 11.7038 11.2779C13.4255 12.7849 15.1354 14.3006 17.0295 15.9716C13.1363 15.9716 9.48671 15.9716 5.61328 15.9716Z" fill="#FEFEFE"/>
<path d="M15.6788 7.1216C15.6788 7.85941 15.0566 8.42105 14.3572 8.36C13.6083 8.29547 13.1625 7.89604 13.1189 7.22974C13.0793 6.60182 13.7232 6.06983 14.4484 6.11169C15.227 6.15529 15.6114 6.56344 15.6788 7.1216Z" fill="#545A68"/>
</svg>
