<svg width="25" height="25" viewBox="0 0 25 25" fill="none" xmlns="http://www.w3.org/2000/svg">
<path d="M12.4028 2.07324C18.0773 2.07324 22.7432 6.73906 22.7353 12.4039C22.7274 18.0706 18.0575 22.7384 12.3989 22.7345C6.73434 22.7305 2.07037 18.0667 2.06641 12.3999C2.06443 6.73312 6.7284 2.07126 12.4028 2.07324ZM21.1839 12.3979C21.1839 7.60127 17.2273 3.63711 12.4246 3.62125C7.62394 3.60539 3.65739 7.53982 3.62172 12.3523C3.58606 17.1648 7.61404 21.2043 12.4266 21.1865C17.2134 21.1666 21.1839 17.1807 21.1839 12.3979Z" fill="#596680"/>
<path d="M21.1816 12.3978C21.1816 17.1825 17.211 21.1665 12.4262 21.1864C7.61166 21.2042 3.58567 17.1647 3.62133 12.3522C3.65699 7.53972 7.62355 3.60528 12.4242 3.62114C17.2249 3.637 21.1816 7.60116 21.1816 12.3978ZM11.6456 10.5584C11.6456 11.5138 11.6495 12.4711 11.6436 13.4265C11.6396 13.9835 11.7962 14.4611 12.4381 14.4393C13.0127 14.4195 13.1593 13.9636 13.1573 13.4483C13.1514 11.5356 13.1553 9.62289 13.1553 7.71018C13.1553 7.1988 13.0186 6.76274 12.4123 6.75481C11.81 6.74887 11.6476 7.16709 11.6476 7.68837C11.6476 8.64572 11.6476 9.60108 11.6456 10.5584ZM13.4446 17.0458C13.3396 16.4571 13.0464 16.0528 12.4143 16.0448C11.7843 16.0369 11.3979 16.4175 11.384 17.0101C11.3682 17.6543 11.7605 18.0646 12.4361 18.0527C13.0642 18.0428 13.3495 17.6226 13.4446 17.0458Z" fill="white"/>
<path d="M11.6485 10.5585C11.6485 9.60317 11.6485 8.64582 11.6485 7.69046C11.6485 7.16917 11.8091 6.75095 12.4136 6.7569C13.0201 6.76284 13.1569 7.20088 13.1569 7.71226C13.1569 9.62497 13.1549 11.5377 13.1589 13.4504C13.1608 13.9677 13.0142 14.4216 12.4394 14.4414C11.7972 14.4632 11.6426 13.9836 11.6445 13.4286C11.6525 12.4712 11.6485 11.5139 11.6485 10.5585Z" fill="#596680"/>
<path d="M13.4466 17.0459C13.3515 17.6227 13.0661 18.0429 12.4358 18.0528C11.7599 18.0647 11.3674 17.6525 11.3833 17.0103C11.3991 16.4176 11.7856 16.039 12.414 16.045C13.0482 16.0529 13.3416 16.4573 13.4466 17.0459Z" fill="#596680"/>
</svg>
