<svg width="20" height="20" viewBox="0 0 20 20" fill="none" xmlns="http://www.w3.org/2000/svg">
<path d="M10.056 17.4715C8.52644 17.4715 6.99529 17.4859 5.46573 17.4683C3.75706 17.4475 2.69033 16.4086 2.67606 14.6856C2.64912 11.5737 2.6507 8.46009 2.67448 5.34653C2.68716 3.60914 3.71268 2.55104 5.43403 2.53346C8.54704 2.50149 11.6616 2.49989 14.7747 2.53665C16.4437 2.55583 17.4724 3.62352 17.4867 5.31616C17.5136 8.42812 17.512 11.5417 17.4882 14.6552C17.474 16.4198 16.4072 17.4539 14.6479 17.4699C13.1167 17.4827 11.5871 17.4715 10.056 17.4715Z" fill="#BE63F9"/>
<path d="M10.0712 3.73679C11.5215 3.73679 12.9734 3.7256 14.4237 3.73999C15.7742 3.75278 16.2751 4.26744 16.2846 5.64201C16.2941 7.13166 16.2576 8.62131 16.3004 10.1094C16.3179 10.7295 16.1039 10.8814 15.5285 10.8526C14.6076 10.8078 13.6819 10.8478 12.7595 10.8382C12.2237 10.8334 11.9558 11.0412 11.8861 11.6182C11.753 12.7274 11.073 13.3124 10.0506 13.3012C9.07265 13.2901 8.3895 12.6955 8.27855 11.6374C8.21198 11.006 7.90131 10.8286 7.34338 10.8366C6.39394 10.8494 5.44292 10.8158 4.49507 10.8494C4.00054 10.867 3.86105 10.6864 3.86739 10.2069C3.89117 8.6373 3.86105 7.06773 3.88166 5.49976C3.89751 4.28342 4.42057 3.75917 5.63946 3.73999C7.1183 3.72081 8.59556 3.73839 10.0712 3.73679Z" fill="white"/>
<path d="M10.0965 16.252C8.62081 16.252 7.14356 16.2632 5.66789 16.2488C4.40461 16.2361 3.90374 15.723 3.87996 14.4443C3.86887 13.8066 3.88789 13.1689 3.87521 12.5311C3.86887 12.1907 4.00677 12.0548 4.34279 12.0596C5.10678 12.0708 5.87236 12.0708 6.63634 12.0596C6.9486 12.0548 7.07698 12.1843 7.18477 12.488C7.66503 13.837 8.66361 14.5194 10.0679 14.5594C11.3915 14.5962 12.4439 13.8529 12.9654 12.5119C13.0954 12.1779 13.238 12.05 13.5788 12.058C14.3159 12.074 15.0561 12.0756 15.7931 12.058C16.1767 12.0484 16.3003 12.2146 16.2908 12.5823C16.2734 13.2472 16.3051 13.9121 16.2813 14.5754C16.2401 15.7054 15.7281 16.2281 14.6043 16.2456C13.1017 16.2696 11.5991 16.252 10.0965 16.252Z" fill="white"/>
</svg>
