<svg width="24" height="24" viewBox="0 0 24 24" fill="none" xmlns="http://www.w3.org/2000/svg">
<path d="M11.8204 21.3099C10.6797 21.3099 9.54094 21.3194 8.40026 21.308C6.88885 21.2928 5.94588 20.4106 5.9687 18.8877C5.9801 18.0739 5.8033 17.8115 4.93828 17.8362C2.75197 17.9009 1.98771 17.0833 1.98391 14.8778C1.982 13.0089 1.9763 11.1418 1.98581 9.27283C1.99721 6.84678 2.96299 5.75544 5.38695 5.49496C5.86413 5.44363 5.92117 5.2535 5.95729 4.84853C6.10748 3.20581 6.89835 2.50233 8.56375 2.49663C10.8109 2.48712 13.06 2.48522 15.309 2.49663C16.9003 2.50423 17.7254 3.23243 17.8375 4.82381C17.8774 5.4018 18.1075 5.46264 18.5847 5.49687C20.5714 5.63756 21.7311 6.76693 21.7976 8.77279C21.8717 11.0182 21.8584 13.2693 21.8014 15.5167C21.7615 17.0757 20.8337 17.8971 19.1778 17.8381C18.2368 17.8039 17.7805 17.9199 17.8204 19.0531C17.8698 20.4353 16.847 21.2909 15.4288 21.3061C14.2273 21.3213 13.0238 21.3099 11.8204 21.3099Z" fill="#525866"/>
<path d="M11.9174 6.92644C13.9744 6.92644 16.0315 6.91313 18.0866 6.93025C19.714 6.94356 20.3318 7.57098 20.3356 9.17757C20.3413 11.2025 20.3356 13.2273 20.3394 15.2522C20.3394 15.6819 20.3128 16.142 19.8451 16.2789C19.2406 16.4557 18.5999 16.4215 17.9839 16.2789C17.9155 16.2637 17.8775 16.007 17.8699 15.8606C17.8527 15.5127 17.8737 15.1647 17.8604 14.8168C17.8014 13.2939 16.9288 12.4117 15.4022 12.3946C13.0923 12.3698 10.7824 12.3774 8.47252 12.3927C6.84514 12.4041 5.98012 13.292 5.9459 14.9366C5.9459 14.9689 5.9497 15.0012 5.9459 15.0317C5.88507 15.4575 6.16834 16.0793 5.79001 16.2732C5.2805 16.5356 4.6113 16.4329 4.02765 16.3093C3.6037 16.22 3.47062 15.834 3.47252 15.4195C3.47442 13.2045 3.4478 10.9895 3.48392 8.7745C3.50294 7.58619 4.23107 6.95306 5.55617 6.93595C7.67784 6.90553 9.79761 6.92644 11.9174 6.92644Z" fill="#FEFEFE"/>
<path d="M11.8807 19.8096C10.7438 19.8096 9.60501 19.7925 8.46812 19.8153C7.74379 19.8305 7.4301 19.5149 7.43771 18.7962C7.45291 17.5014 7.45291 16.2048 7.43771 14.91C7.4282 14.1932 7.74759 13.8776 8.46622 13.8814C10.7723 13.8947 13.0784 13.8928 15.3845 13.8833C16.0575 13.8814 16.3693 14.1913 16.3655 14.8605C16.3579 16.1876 16.3579 17.5148 16.3655 18.8419C16.3693 19.5092 16.0651 19.8229 15.3845 19.8134C14.2191 19.7963 13.0499 19.8096 11.8807 19.8096Z" fill="#FEFEFE"/>
<path d="M11.8651 5.47977C10.6351 5.47977 9.40508 5.48738 8.17314 5.47407C7.86325 5.47026 7.43359 5.62427 7.43359 5.03677C7.43359 4.55764 7.51154 4.13936 8.05527 4.01958C8.26629 3.97205 8.49443 3.99106 8.71496 3.99106C10.829 3.98916 12.9431 3.98916 15.0572 3.99106C15.3081 3.99106 15.5743 3.96824 15.8081 4.03859C16.3385 4.1945 16.3842 4.6413 16.3594 5.10712C16.3309 5.63377 15.926 5.46836 15.6503 5.47217C14.3899 5.48928 13.1275 5.47977 11.8651 5.47977Z" fill="#FBFBFC"/>
</svg>
