<svg width="16" height="14" viewBox="0 0 16 14" fill="none" xmlns="http://www.w3.org/2000/svg">
<path d="M7.03504 2.06146C7.03504 3.68446 7.03504 3.68446 8.62951 4.08506C13.057 5.19662 15.724 8.52336 15.7767 12.9917C15.7815 13.4304 15.8054 13.9038 15.2516 13.9893C14.6946 14.0748 14.5844 13.633 14.4695 13.1976C13.8359 10.7829 12.0866 9.60958 9.75633 9.16623C7.04142 8.65003 7.03504 8.67854 7.03504 11.3624C7.03504 11.5477 7.03025 11.7314 7.03504 11.9166C7.04302 12.246 7.0127 12.5579 6.65837 12.7162C6.29606 12.8777 6.04867 12.6687 5.81884 12.4407C3.97698 10.6135 2.13831 8.78304 0.293263 6.96054C-0.112137 6.55993 -0.0881963 6.19892 0.309224 5.80623C2.15587 3.98372 3.99294 2.15172 5.8364 0.327629C6.06304 0.102785 6.30564 -0.112559 6.67433 0.0663667C7.02866 0.238958 7.03664 0.550891 7.03504 0.873906C7.03344 1.27134 7.03504 1.66561 7.03504 2.06146Z" fill="#BE63F9"/>
<path d="M5.59534 10.5153C4.31051 9.22639 3.02728 7.93591 1.74085 6.64859C1.59561 6.5045 1.50303 6.37308 1.69297 6.18782C3.00493 4.89734 4.31051 3.60211 5.78847 2.14062C5.78847 2.87216 5.8172 3.38677 5.78208 3.89663C5.72782 4.67408 6.08853 4.94643 6.84347 5.03352C9.27268 5.31061 11.4082 6.20049 12.9644 8.17184C13.4001 8.72286 13.5214 8.98729 13.6619 9.57315C11.6045 7.99924 9.24395 7.63981 6.75568 7.74115C6.04703 7.76965 5.75176 8.0895 5.78368 8.78145C5.80922 9.33089 5.78847 9.8835 5.78847 10.4345C5.72462 10.463 5.66078 10.4899 5.59534 10.5153Z" fill="#F0DAFF"/>
</svg>
