<svg width="20" height="20" viewBox="0 0 20 20" fill="none" xmlns="http://www.w3.org/2000/svg">
<path d="M9.15053 4.96772C9.15053 6.59303 9.15053 6.59303 10.7473 6.9942C15.1811 8.10734 17.8519 11.4388 17.9046 15.9136C17.9094 16.3528 17.9334 16.8269 17.3788 16.9125C16.821 16.9982 16.7107 16.5558 16.5956 16.1197C15.961 13.7016 14.2093 12.5266 11.8757 12.0826C9.15692 11.5657 9.15053 11.5942 9.15053 14.2819C9.15053 14.4674 9.14573 14.6514 9.15053 14.8369C9.15852 15.1667 9.12815 15.4791 8.77332 15.6377C8.4105 15.7994 8.16276 15.5901 7.93259 15.3618C6.08811 13.5319 4.24683 11.6989 2.39915 9.87377C1.99317 9.4726 2.01715 9.11106 2.41513 8.71782C4.26441 6.89272 6.1041 5.0581 7.95018 3.23142C8.17714 3.00625 8.42009 2.7906 8.7893 2.96978C9.14413 3.14262 9.15213 3.455 9.15053 3.77847C9.14893 4.17647 9.15053 4.5713 9.15053 4.96772Z" fill="#8E9AB2"/>
<path d="M7.71043 13.4335C6.42377 12.1427 5.1387 10.8504 3.85044 9.56126C3.70499 9.41697 3.61229 9.28536 3.80249 9.09984C5.11633 7.80752 6.42377 6.51044 7.90383 5.04688C7.90383 5.77945 7.9326 6.29479 7.89743 6.80538C7.84309 7.58394 8.20431 7.85667 8.96033 7.94389C11.393 8.22138 13.5316 9.11252 15.09 11.0867C15.5263 11.6385 15.6478 11.9033 15.7884 12.49C13.7282 10.9138 11.3642 10.5539 8.87242 10.6554C8.16276 10.6839 7.86706 11.0042 7.89903 11.6972C7.9246 12.2474 7.90383 12.8008 7.90383 13.3526C7.83989 13.3811 7.77596 13.4081 7.71043 13.4335Z" fill="white"/>
</svg>
