<svg width="15" height="15" viewBox="0 0 15 15" fill="none" xmlns="http://www.w3.org/2000/svg">
<g clip-path="url(#clip0_1041_769)">
<path d="M14.1067 6.16237L2.0043 1.14059C1.49445 0.929008 0.91844 1.02208 0.501106 1.38337C0.0837721 1.74472 -0.0907786 2.30148 0.0456276 2.83635L1.12284 7.06073H6.39704C6.63974 7.06073 6.83653 7.25749 6.83653 7.50021C6.83653 7.74291 6.63977 7.9397 6.39704 7.9397H1.12284L0.0456276 12.164C-0.0907786 12.6989 0.0837428 13.2557 0.501106 13.617C0.91929 13.979 1.49535 14.071 2.00433 13.8598L14.1067 8.83806C14.6577 8.60942 15 8.09679 15 7.50021C15 6.90364 14.6577 6.39097 14.1067 6.16237Z" fill="white"/>
</g>
<defs>
<clipPath id="clip0_1041_769">
<rect width="15" height="15" fill="white"/>
</clipPath>
</defs>
</svg>
