<svg width="20" height="20" viewBox="0 0 20 20" fill="none" xmlns="http://www.w3.org/2000/svg">
<path d="M9.99209 19.9921C6.84896 19.9921 3.70424 19.9857 0.561113 20C0.182289 20.0016 -0.00157488 20.0111 1.01598e-05 19.5069C0.0237857 13.1642 0.0206156 6.82155 0.00476527 0.478886C0.00318023 0.0570986 0.129983 0.00318599 0.500882 0.00318599C6.84103 0.0142856 13.1812 0.017457 19.5213 1.46546e-05C19.9429 -0.00157101 19.9953 0.125282 19.9953 0.497914C19.9842 6.84057 19.981 13.1832 19.9984 19.5259C20 19.9477 19.8732 20.0016 19.5007 20C16.3322 19.9857 13.1622 19.9921 9.99209 19.9921Z" fill="white"/>
<path d="M2.38342 1.67773C2.53559 1.74433 2.75749 1.82837 2.9683 1.93303C7.72817 4.30835 12.488 6.68685 17.2479 9.06535C17.389 9.1367 17.5237 9.22233 17.6679 9.28576C17.9532 9.4142 18.1656 9.60448 18.1609 9.93429C18.1561 10.2673 17.9168 10.4274 17.641 10.5638C16.0591 11.3471 14.482 12.1368 12.9049 12.928C9.60961 14.5803 6.31431 16.2357 3.01744 17.8848C2.65129 18.0688 2.26137 18.37 1.86353 17.9736C1.50531 17.6153 1.75575 17.2363 1.90157 16.8763C2.74006 14.8007 3.56427 12.7187 4.43446 10.6574C4.65954 10.1262 4.64369 9.68059 4.42654 9.16049C3.54208 7.0468 2.68616 4.92201 1.83024 2.79563C1.56079 2.13282 1.77001 1.67773 2.38342 1.67773Z" fill="#8E9AB2"/>
<path d="M3.48438 16.2577C4.26421 14.3375 4.98065 12.5948 5.67807 10.8443C5.82706 10.47 6.11871 10.5287 6.40084 10.5271C7.93199 10.524 9.46155 10.5255 10.9927 10.5255C11.4524 10.5255 11.9675 10.5525 11.9501 9.89444C11.9342 9.29823 11.446 9.30775 11.0165 9.30775C9.48532 9.30458 7.95576 9.29348 6.42462 9.31409C6.00458 9.32043 5.74781 9.22054 5.58455 8.79716C5.00601 7.29871 4.3926 5.81294 3.79346 4.32242C3.73798 4.18288 3.59374 4.03382 3.70311 3.89111C3.81723 3.73889 3.99 3.81976 4.13424 3.89111C8.11427 5.88113 12.0927 7.87272 16.1821 9.91823C11.9263 12.0398 7.79092 14.106 3.48438 16.2577Z" fill="white"/>
</svg>
