<svg width="20" height="20" viewBox="0 0 20 20" fill="none" xmlns="http://www.w3.org/2000/svg">
<path d="M18.3432 10.0768C18.3432 14.6166 14.5867 18.3635 10.063 18.3382C5.506 18.3128 1.77166 14.5532 1.82079 10.0419C1.87151 5.4895 5.51551 1.85516 10.0598 1.82344C14.5899 1.79173 18.3432 5.53231 18.3432 10.0768Z" fill="#8E9AB2"/>
<path d="M10.0574 3.05229C13.8995 3.03802 17.0759 6.1824 17.1076 10.034C17.1393 13.8856 13.9201 17.1187 10.0653 17.1076C6.23586 17.0965 3.05945 13.9141 3.05469 10.08C3.04994 6.24265 6.21367 3.06815 10.0574 3.05229Z" fill="white"/>
<path d="M8.85755 7.98855C8.85755 7.30354 8.86706 6.61853 8.85438 5.93353C8.84646 5.51174 8.9796 5.15814 9.42975 5.14228C9.93062 5.12325 10.086 5.50698 10.0875 5.9478C10.0939 7.05459 10.1161 8.16297 10.0812 9.26818C10.0638 9.81207 10.2017 10.2212 10.6233 10.5795C11.0639 10.9537 11.4554 11.385 11.8612 11.7989C12.1544 12.0986 12.2543 12.4506 11.9373 12.7773C11.6044 13.1182 11.2747 12.9739 10.9783 12.6758C10.3665 12.0574 9.76578 11.4294 9.13335 10.8316C8.73868 10.459 8.87974 10.0023 8.86231 9.57104C8.8417 9.04302 8.85755 8.51499 8.85755 7.98855Z" fill="#8E9AB2"/>
</svg>
