<svg width="20" height="20" viewBox="0 0 20 20" fill="none" xmlns="http://www.w3.org/2000/svg">
<g clip-path="url(#clip0_333_386)">
<path d="M9.99209 19.9921C6.84896 19.9921 3.70424 19.9857 0.561113 20C0.182289 20.0016 -0.00157488 20.0111 1.01598e-05 19.5069C0.0237857 13.1642 0.0206156 6.82155 0.00476527 0.478886C0.00318023 0.0570986 0.129983 0.00318598 0.500882 0.00318598C6.84103 0.0142856 13.1812 0.017457 19.5213 1.46546e-05C19.9429 -0.00157101 19.9953 0.125282 19.9953 0.497914C19.9842 6.84057 19.981 13.1832 19.9984 19.5259C20 19.9477 19.8732 20.0016 19.5007 20C16.3322 19.9857 13.1622 19.9921 9.99209 19.9921Z" fill="white"/>
<path d="M9.92365 17.9244C8.68257 17.9244 7.44307 17.907 6.20198 17.9324C5.71379 17.9419 5.43166 17.7564 5.20024 17.3362C3.96867 15.0956 2.71966 12.863 1.46272 10.6367C1.24399 10.2498 1.24082 9.91208 1.45797 9.52517C2.71332 7.29731 3.96233 5.06628 5.19707 2.82574C5.4269 2.40712 5.71062 2.22001 6.19881 2.22318C8.6794 2.24063 11.16 2.24063 13.6421 2.22318C14.1288 2.22001 14.4141 2.40554 14.6455 2.82415C15.8786 5.0647 17.1292 7.29414 18.3846 9.522C18.6017 9.90732 18.6017 10.2451 18.3814 10.6336C17.1245 12.8614 15.8723 15.0909 14.6471 17.3346C14.3935 17.7992 14.0669 17.9435 13.5645 17.9324C12.3519 17.907 11.1378 17.9244 9.92365 17.9244Z" fill="#8E9AB2"/>
<path d="M9.92897 16.6734C8.8987 16.6734 7.86843 16.6544 6.83974 16.6829C6.41812 16.6956 6.18353 16.5703 5.97589 16.185C4.9472 14.2822 3.88998 12.3953 2.82325 10.5131C2.64573 10.2007 2.64097 9.96602 2.81691 9.65206C3.89474 7.74609 4.9583 5.83219 6.00918 3.91195C6.18353 3.59323 6.38324 3.46954 6.7478 3.47272C8.86066 3.48857 10.9735 3.48857 13.0864 3.4743C13.443 3.47113 13.6554 3.57103 13.8345 3.89926C14.8822 5.82109 15.9442 7.73657 17.0284 9.63778C17.2312 9.99297 17.1789 10.2435 16.9951 10.5686C15.9426 12.4286 14.8997 14.2933 13.8773 16.1691C13.676 16.5402 13.4557 16.6972 13.0214 16.6829C11.9895 16.6496 10.9592 16.6734 9.92897 16.6734Z" fill="white"/>
<path d="M10.528 8.615C10.528 9.19535 10.5296 9.77571 10.528 10.3561C10.5264 10.7874 10.547 11.2662 9.94286 11.2821C9.34031 11.2979 9.31811 10.8397 9.31811 10.3941C9.31811 9.23341 9.32128 8.07112 9.31652 6.91041C9.31494 6.46959 9.32128 5.98755 9.90322 5.97962C10.5438 5.97011 10.5296 6.48704 10.528 6.95005C10.5264 7.50662 10.528 8.06002 10.528 8.615Z" fill="#8E9AB2"/>
<path d="M10.7576 13.3417C10.7037 13.8364 10.4643 14.1615 9.97746 14.19C9.4526 14.2202 9.11961 13.911 9.10217 13.4004C9.08631 12.931 9.38125 12.6012 9.86329 12.5663C10.3977 12.5283 10.653 12.8771 10.7576 13.3417Z" fill="#8E9AB2"/>
</g>
<defs>
<clipPath id="clip0_333_386">
<rect width="20" height="20" fill="white"/>
</clipPath>
</defs>
</svg>
