<svg width="25" height="25" viewBox="0 0 25 25" fill="none" xmlns="http://www.w3.org/2000/svg">
<path d="M5.94938 21.1746C6.18318 19.692 6.4249 18.0271 6.71813 16.372C6.86078 15.5693 6.75577 14.9548 6.08807 14.3642C4.92902 13.3355 3.87695 12.1898 2.77733 11.0957C2.49004 10.8103 2.21464 10.5288 2.33946 10.069C2.46825 9.59331 2.85856 9.53384 3.26076 9.47042C5.05186 9.18896 6.83701 8.88174 8.63008 8.6201C9.10559 8.55073 9.36316 8.35252 9.56921 7.9125C10.2567 6.45171 11.0017 5.01668 11.7268 3.5757C11.921 3.18722 12.1191 2.78089 12.6481 2.81062C13.1177 2.83837 13.2941 3.21893 13.4724 3.57372C14.1975 5.01668 14.9405 6.45171 15.63 7.9125C15.838 8.35252 16.0916 8.55271 16.5691 8.62209C18.3622 8.88372 20.1493 9.19094 21.9384 9.47042C22.3407 9.53384 22.731 9.59132 22.8617 10.067C22.9866 10.5249 22.7131 10.8083 22.4258 11.0937C21.2331 12.281 20.0562 13.4861 18.8437 14.6536C18.4692 15.0143 18.3444 15.3711 18.4296 15.8785C18.7089 17.5355 18.9685 19.1985 19.2023 20.8634C19.2677 21.3292 19.4678 21.8604 18.9645 22.241C18.4415 22.6354 18.0274 22.241 17.6054 22.0229C16.1412 21.2678 14.677 20.5126 13.2346 19.7138C12.775 19.4601 12.4223 19.4601 11.9626 19.7138C10.4033 20.5701 8.82821 21.3966 7.24119 22.2033C6.38725 22.6374 5.90976 22.3064 5.94938 21.1746Z" fill="#596680"/>
<path d="M4.62109 10.8183C6.37058 10.5527 7.82485 10.3109 9.28705 10.1186C9.96663 10.0294 10.4184 9.76974 10.7175 9.10773C11.2822 7.85505 11.936 6.64004 12.6018 5.31006C13.2477 6.59247 13.8936 7.74406 14.4146 8.94916C14.7475 9.71623 15.2349 10.0413 16.0433 10.1344C17.4698 10.299 18.8864 10.5586 20.517 10.8103C19.4016 11.9203 18.4248 12.9292 17.4044 13.8925C16.8754 14.392 16.6733 14.8875 16.8239 15.6407C17.1132 17.0876 17.2776 18.5583 17.5213 20.2074C16.0987 19.4661 14.8109 18.8338 13.5627 18.1302C12.8811 17.7456 12.2986 17.7615 11.623 18.144C10.3946 18.8378 9.12656 19.4621 7.6921 20.2094C7.93382 18.5642 8.09431 17.0757 8.38952 15.6149C8.54406 14.8498 8.30829 14.3642 7.78324 13.8746C6.77278 12.9371 5.79402 11.9599 4.62109 10.8183Z" fill="white"/>
</svg>
