<svg width="25" height="25" viewBox="0 0 25 25" fill="none" xmlns="http://www.w3.org/2000/svg">
<path d="M7.50822 2.25474C6.70905 2.25474 5.91188 2.24285 5.11271 2.25672C3.1068 2.29437 2.09985 3.27907 2.07787 5.25244C2.05989 6.90088 2.07987 8.5513 2.07188 10.2017C2.06788 11.2795 2.4395 12.181 3.21869 12.9498C6.19359 15.8781 9.14053 18.8342 12.1194 21.7586C13.7138 23.3239 15.434 23.3278 17.0223 21.7844C18.6386 20.2152 20.239 18.6282 21.8193 17.0233C23.2958 15.5235 23.3038 13.7978 21.8193 12.3059C18.8265 9.30023 15.8016 6.32631 12.7987 3.33257C12.0495 2.58562 11.1484 2.25474 10.1035 2.25474C9.23842 2.25474 8.37332 2.25474 7.50822 2.25474ZM7.57216 3.81204C8.43726 3.81204 9.30236 3.816 10.1675 3.81006C10.7269 3.8061 11.2084 3.97649 11.61 4.37275C14.6468 7.38036 17.6956 10.3781 20.7185 13.3995C21.5856 14.2654 21.5696 15.048 20.7205 15.8999C19.1102 17.5226 17.4858 19.1314 15.8515 20.7323C14.9745 21.5902 14.2033 21.61 13.3402 20.7601C10.3153 17.7841 7.31243 14.7904 4.29357 11.8086C3.89798 11.4163 3.65023 10.9685 3.64824 10.4117C3.64224 8.63055 3.63825 6.84739 3.64824 5.0662C3.65223 4.2083 4.13573 3.816 4.97686 3.81402C5.84196 3.81204 6.70706 3.81204 7.57216 3.81204Z" fill="#596680"/>
<path d="M7.57311 3.81214C6.708 3.81214 5.84291 3.81214 4.9778 3.81214C4.13668 3.81214 3.65318 4.20641 3.64919 5.06431C3.6392 6.8455 3.64319 8.62867 3.64919 10.4099C3.65118 10.9666 3.89893 11.4164 4.29452 11.8067C7.31138 14.7885 10.3163 17.7823 13.3411 20.7582C14.2062 21.6081 14.9754 21.5903 15.8525 20.7304C17.4868 19.1315 19.1111 17.5207 20.7214 15.898C21.5686 15.0441 21.5865 14.2635 20.7194 13.3976C17.6966 10.3762 14.6478 7.37847 11.6109 4.37086C11.2113 3.9746 10.7278 3.80421 10.1684 3.80817C9.30331 3.8161 8.43821 3.81214 7.57311 3.81214ZM5.76698 7.42404C5.77697 6.53246 6.45827 5.8925 7.36732 5.9242C8.22043 5.95392 8.84379 6.60576 8.83779 7.45772C8.8298 8.3394 8.12853 8.99917 7.23546 8.96351C6.38834 8.93181 5.757 8.26807 5.76698 7.42404Z" fill="#F6F7FA"/>
<path d="M5.76897 7.42394C5.75898 8.26995 6.39032 8.9317 7.23744 8.96539C8.13051 9.00105 8.83178 8.34128 8.83977 7.4596C8.84776 6.60764 8.22441 5.9558 7.3693 5.92608C6.46025 5.8924 5.77896 6.53037 5.76897 7.42394Z" fill="#596680"/>
</svg>
