<svg width="20" height="20" viewBox="0 0 20 20" fill="none" xmlns="http://www.w3.org/2000/svg">
<path d="M9.93804 18.3314C9.00621 18.3314 8.07278 18.3474 7.14095 18.3282C5.61933 18.2963 4.77541 17.4987 4.63156 15.9995C4.31509 12.6877 3.98103 9.37755 3.68534 6.0642C3.63899 5.53675 3.4392 5.37372 2.94371 5.42327C2.49458 5.46802 2.11098 5.31138 2.10938 4.79991C2.10778 4.28845 2.49298 4.16058 2.94211 4.16218C4.14087 4.16537 5.33962 4.14779 6.53678 4.17177C6.94435 4.17976 7.11857 4.05988 7.26082 3.65231C7.69557 2.4088 8.74728 1.68156 9.97959 1.67197C11.2359 1.66238 12.2956 2.39761 12.7511 3.69387C12.887 4.08226 13.0564 4.17496 13.424 4.17017C14.5956 4.15259 15.7672 4.16857 16.9404 4.16218C17.3959 4.15898 17.8594 4.20054 17.8882 4.76315C17.9169 5.32577 17.487 5.47921 17.0139 5.42007C16.4577 5.35134 16.3586 5.63425 16.3154 6.10576C16.0101 9.44468 15.6825 12.7836 15.358 16.1209C15.2285 17.4524 14.3526 18.2787 12.9749 18.3251C11.9631 18.3586 10.9498 18.3314 9.93804 18.3314ZM10.0291 5.42646C8.53789 5.42646 7.04505 5.44404 5.5538 5.41687C5.04393 5.40728 4.86811 5.51917 4.92565 6.08018C5.26929 9.36317 5.58257 12.6478 5.88625 15.9339C5.95978 16.7251 6.37534 17.0767 7.12976 17.0799C9.04776 17.0863 10.9658 17.0879 12.8838 17.0783C13.595 17.0751 14.0298 16.7475 14.1017 15.9931C14.4166 12.6813 14.7251 9.36796 15.0735 6.0594C15.1358 5.46482 14.8993 5.41048 14.423 5.41687C12.9605 5.43925 11.4948 5.42646 10.0291 5.42646ZM10.0004 4.16537C10.344 4.16537 10.6877 4.17816 11.0313 4.16058C11.1943 4.15259 11.4453 4.27246 11.4964 4.01993C11.522 3.89685 11.4101 3.72423 11.3222 3.60276C10.6861 2.71408 9.3051 2.71728 8.67215 3.60596C8.58584 3.72743 8.47556 3.90165 8.50273 4.02312C8.55867 4.27086 8.80642 4.15099 8.97104 4.15898C9.31309 4.17816 9.65833 4.16537 10.0004 4.16537Z" fill="#8E9AB2"/>
<path d="M10.0308 5.42651C11.4965 5.42651 12.9606 5.4393 14.4263 5.41852C14.9026 5.41212 15.1391 5.46647 15.0768 6.06105C14.7284 9.36961 14.4183 12.683 14.105 15.9947C14.0331 16.7491 13.5983 17.0768 12.8871 17.08C10.9691 17.088 9.05105 17.0864 7.13305 17.0816C6.37863 17.08 5.96306 16.7284 5.88954 15.9356C5.58745 12.6494 5.27418 9.36321 4.92894 6.08183C4.8698 5.52081 5.04562 5.40893 5.55709 5.41852C7.04834 5.44409 8.53959 5.42651 10.0308 5.42651ZM9.15814 11.3148C9.15814 10.3318 9.15654 9.34723 9.15814 8.36425C9.15974 7.9327 9.09421 7.52992 8.54918 7.52513C8.00894 7.52033 7.90824 7.92471 7.90664 8.35147C7.89865 10.2918 7.90185 12.2338 7.90505 14.1742C7.90505 14.6265 8.07767 15.0006 8.57635 14.983C9.02868 14.967 9.16613 14.6122 9.16134 14.187C9.15015 13.2296 9.15814 12.2722 9.15814 11.3148ZM10.846 11.2221C10.846 12.2051 10.8524 13.1896 10.8428 14.1726C10.838 14.5946 10.9595 14.9558 11.415 14.9798C11.9169 15.0069 12.0959 14.6361 12.0975 14.1854C12.1023 12.245 12.1039 10.303 12.0959 8.36266C12.0943 7.9391 12.0064 7.52992 11.4661 7.52353C10.9211 7.51873 10.8428 7.91192 10.8444 8.34987C10.8476 9.30887 10.8444 10.2663 10.846 11.2221Z" fill="white"/>
<path d="M9.99953 4.16549C9.65589 4.16549 9.31225 4.17828 8.96861 4.1607C8.80398 4.15111 8.55624 4.27258 8.50029 4.02484C8.47312 3.90336 8.58341 3.72914 8.66972 3.60767C9.30426 2.7174 10.6852 2.7158 11.3198 3.60447C11.4077 3.72755 11.5196 3.89857 11.494 4.02164C11.4412 4.27258 11.1919 4.1527 11.0289 4.16229C10.6884 4.17828 10.3432 4.16549 9.99953 4.16549Z" fill="white"/>
<path d="M9.15767 11.3146C9.15767 12.272 9.15128 13.2294 9.16087 14.1868C9.16566 14.612 9.0282 14.9668 8.57587 14.9828C8.07719 15.0004 7.90617 14.6248 7.90457 14.174C7.90297 12.2336 7.89978 10.2917 7.90617 8.35129C7.90777 7.92613 8.00686 7.52015 8.5487 7.52494C9.09533 7.52974 9.15927 7.93252 9.15767 8.36407C9.15607 9.34705 9.15767 10.3316 9.15767 11.3146Z" fill="#8E9AB2"/>
<path d="M10.8432 11.222C10.8432 10.2646 10.8448 9.30723 10.8416 8.34982C10.84 7.91348 10.9183 7.51869 11.4633 7.52348C12.0036 7.52828 12.0915 7.93905 12.0931 8.36261C12.0995 10.303 12.0979 12.245 12.0947 14.1854C12.0931 14.6361 11.9141 15.0069 11.4122 14.9797C10.9567 14.9542 10.8352 14.5945 10.84 14.1726C10.8496 13.1896 10.8432 12.2066 10.8432 11.222Z" fill="#8E9AB2"/>
</svg>
