<svg width="18" height="18" viewBox="0 0 18 18" fill="none" xmlns="http://www.w3.org/2000/svg">
<g clip-path="url(#clip0_327_343)">
<path d="M14.25 9.03471C13.8352 9.03471 13.5 9.37076 13.5 9.78467V15.7847C13.5 16.1979 13.164 16.5347 12.75 16.5347H2.25C1.83595 16.5347 1.50005 16.1979 1.50005 15.7847V5.28467C1.50005 4.87144 1.83595 4.53471 2.25 4.53471H8.25005C8.66478 4.53471 9 4.19867 9 3.78476C9 3.37071 8.66478 3.03467 8.25005 3.03467H2.25C1.00951 3.03467 0 4.04417 0 5.28467V15.7847C0 17.0252 1.00951 18.0347 2.25 18.0347H12.75C13.9905 18.0347 15 17.0252 15 15.7847V9.78467C15 9.36993 14.6647 9.03471 14.25 9.03471Z" fill="#273041"/>
<path d="M7.02111 8.35147C6.96865 8.40393 6.93336 8.47067 6.91839 8.54263L6.38816 11.1947C6.36344 11.3176 6.40244 11.4444 6.49088 11.5337C6.56216 11.6049 6.65815 11.6431 6.75648 11.6431C6.78037 11.6431 6.80523 11.6409 6.82995 11.6357L9.48122 11.1055C9.55469 11.0904 9.62144 11.0552 9.67321 11.0026L15.6072 5.06862L12.9559 2.41748L7.02111 8.35147Z" fill="#273041"/>
<path d="M17.4353 0.583614C16.7042 -0.147663 15.5146 -0.147663 14.784 0.583614L13.7461 1.62155L16.3974 4.27282L17.4353 3.23475C17.7893 2.88154 17.9843 2.4105 17.9843 1.90953C17.9843 1.40855 17.7893 0.937512 17.4353 0.583614Z" fill="#273041"/>
</g>
<defs>
<clipPath id="clip0_327_343">
<rect width="18" height="18" fill="white"/>
</clipPath>
</defs>
</svg>
