<svg width="20" height="20" viewBox="0 0 20 20" fill="none" xmlns="http://www.w3.org/2000/svg">
<path fill-rule="evenodd" clip-rule="evenodd" d="M14.2578 4.1803C15.9918 4.58267 16.6551 5.59662 17.4867 6.99219H14.2578V4.1803ZM4.12415 7.10938C4.46365 7.10938 4.71008 7.27325 4.71008 7.65625C4.71008 7.97928 4.4487 8.24127 4.12582 8.24219H0.585938C0.262299 8.24219 0 8.50464 0 8.82812C0 9.15176 0.262299 9.41406 0.585938 9.41406H5.85938C6.18607 9.41406 6.4476 9.67621 6.4476 10C6.4476 10.3236 6.1853 10.5859 5.86166 10.5859H0.585938C0.262299 10.5859 0 10.8482 0 11.1719C0 11.4955 0.262299 11.7578 0.585938 11.7578H1.875V13.5156C1.875 13.8393 2.1373 14.1016 2.46094 14.1016H3.63876C3.84872 15.1358 4.76257 15.8984 5.83984 15.8984C6.91711 15.8984 7.83096 15.1358 8.04092 14.1016H13.9903C14.2003 15.1358 15.1141 15.8984 16.1914 15.8984C17.2687 15.8984 18.1825 15.1358 18.3925 14.1016H19.4141C19.7377 14.1016 20 13.8393 20 13.5156V10C20 8.28079 18.1866 8.16666 18.185 8.16406H13.6719C13.3482 8.16406 13.0859 7.90176 13.0859 7.57812V4.0625H2.46094C2.1373 4.0625 1.875 4.3248 1.875 4.64844V5.9375H1.17188C0.848236 5.9375 0.585938 6.1998 0.585938 6.52344C0.585938 6.84708 0.848236 7.10938 1.17188 7.10938H4.12415ZM16.951 12.8928C17.3705 13.3122 17.3705 13.9926 16.951 14.4121C16.2762 15.0868 15.1172 14.6068 15.1172 13.6523C15.1172 12.6981 16.2762 12.218 16.951 12.8928ZM6.59943 12.8928C7.01889 13.3122 7.01889 13.9926 6.59943 14.4121C5.92468 15.0868 4.76562 14.6068 4.76562 13.6523C4.76562 12.6981 5.92468 12.218 6.59943 12.8928Z" fill="#596680"/>
</svg>
