<svg width="18" height="18" viewBox="0 0 18 18" fill="none" xmlns="http://www.w3.org/2000/svg">
<path d="M9.0016 0C6.43016 0 4.32812 2.10203 4.32812 4.67348C4.32812 7.24492 6.43016 9.34695 9.0016 9.34695C11.573 9.34695 13.6751 7.24492 13.6751 4.67348C13.6751 2.10203 11.573 0 9.0016 0Z" fill="#596680"/>
<path d="M17.0211 13.0815C16.8986 12.7754 16.7354 12.4897 16.5517 12.2244C15.6129 10.8366 14.164 9.91824 12.5313 9.69375C12.3273 9.67336 12.1028 9.71414 11.9395 9.8366C11.0824 10.4693 10.062 10.7958 9.00072 10.7958C7.93947 10.7958 6.91907 10.4693 6.06193 9.8366C5.89864 9.71414 5.67415 9.65293 5.47009 9.69375C3.83743 9.91824 2.36806 10.8366 1.4497 12.2244C1.26603 12.4897 1.10275 12.7958 0.980323 13.0815C0.919112 13.204 0.939503 13.3468 1.00071 13.4693C1.164 13.755 1.36806 14.0407 1.55173 14.2856C1.83743 14.6734 2.14357 15.0203 2.49052 15.3468C2.77622 15.6325 3.10275 15.8979 3.42931 16.1632C5.04153 17.3673 6.98032 17.9999 8.98032 17.9999C10.9803 17.9999 12.9191 17.3672 14.5313 16.1632C14.8579 15.9183 15.1844 15.6325 15.4701 15.3468C15.7967 15.0203 16.1232 14.6734 16.4089 14.2856C16.613 14.0203 16.7967 13.755 16.9599 13.4693C17.0619 13.3468 17.0823 13.2039 17.0211 13.0815Z" fill="#596680"/>
</svg>
