<svg width="18" height="18" viewBox="0 0 18 18" fill="none" xmlns="http://www.w3.org/2000/svg">
<path d="M16.7553 7.85097H16.6596V6.89352C16.6596 5.78289 15.8362 4.86374 14.7447 4.71054V3.54246C14.7447 2.33608 13.7489 1.34033 12.5426 1.34033H2.33617C1.07234 1.34033 0.0191489 2.35523 0 3.6382V14.4574C0 15.6637 0.995745 16.6595 2.20213 16.6595H14.4574C15.6638 16.6595 16.6596 15.6637 16.6596 14.4574V13.4042H16.7553C17.4447 13.4042 18 12.8488 18 12.1595V9.09565C18 8.40629 17.4447 7.85097 16.7553 7.85097ZM1.34043 3.6765C1.34043 3.12118 1.8 2.68076 2.33617 2.68076H12.5234C13.0021 2.68076 13.3851 3.06374 13.3851 3.54246V4.6914H2.33617C1.8 4.6914 1.34043 4.23182 1.34043 3.6765ZM16.6596 12.0637H13.5C12.7149 12.0637 12.0638 11.4127 12.0638 10.6276C12.0638 9.84246 12.7149 9.1914 13.5 9.1914H16.6596V12.0637Z" fill="#596680"/>
<path d="M13.8832 11.5851C14.412 11.5851 14.8407 11.1564 14.8407 10.6276C14.8407 10.0988 14.412 9.67017 13.8832 9.67017C13.3544 9.67017 12.9258 10.0988 12.9258 10.6276C12.9258 11.1564 13.3544 11.5851 13.8832 11.5851Z" fill="#596680"/>
</svg>
