<svg width="22" height="22" viewBox="0 0 22 22" fill="none" xmlns="http://www.w3.org/2000/svg">
<path d="M4.75557 17.8464C3.66795 18.1103 2.58456 18.3891 1.49061 18.6299C0.517032 18.8453 -0.0595104 18.3025 0.0291885 17.2952C0.0355241 17.2255 0.0397479 17.1516 0.0672023 17.0882C1.04711 14.782 0.441005 12.5054 0.0925448 10.1697C-0.515676 6.07475 1.94255 2.36841 5.4546 0.843634C9.75227 -1.02115 14.2442 0.273428 17.0023 4.0558C17.2684 4.42115 17.5451 4.77595 17.8175 5.13708C18.9791 6.79702 19.129 8.68926 18.8861 10.5921C18.1575 16.3026 12.4534 20.1103 6.88012 18.6974C6.12618 18.5074 5.47572 18.0998 4.75557 17.8464Z" fill="#334D80"/>
<path d="M4.75537 17.8465C5.11861 17.477 5.39105 17.893 5.65714 17.9965C12.2694 20.5307 18.8648 15.8656 18.6642 8.79293C18.6283 7.51102 18.0771 6.36216 17.8173 5.13939C18.2017 5.13094 18.4615 5.36113 18.7297 5.59133C21.5554 8.03266 22.7 12.0283 21.454 15.5425C21.1055 16.5266 21.0337 17.3967 21.3695 18.3661C21.6103 19.0588 21.7602 19.7874 21.8827 20.5117C22.0516 21.498 21.435 22.2076 20.5036 21.9182C18.2841 21.2277 16.1806 21.3354 13.885 21.8127C10.0815 22.6046 7.089 20.8137 4.75537 17.8465Z" fill="#4D88FF"/>
</svg>
