<svg width="23" height="21" viewBox="0 0 23 21" fill="none" xmlns="http://www.w3.org/2000/svg">
<path d="M8.97638 17.9491C7.40998 17.951 5.84358 17.9644 4.27526 17.9491C2.45355 17.9318 1.44191 16.2176 2.28654 14.5955C2.41899 14.3421 2.58024 14.0983 2.76644 13.8833C4.37124 12.0367 5.13332 9.92893 4.95288 7.45263C4.81659 5.60213 5.40015 3.94743 6.59222 2.49044C8.9783 -0.425443 13.4759 -0.865033 16.3381 1.61894C18.1099 3.15655 19.0351 5.13374 18.918 7.45263C18.7913 9.96924 19.5534 12.0827 21.1774 13.9582C21.8608 14.7471 22.1967 15.6666 21.6861 16.6898C21.1812 17.6995 20.3251 18.0124 19.2252 17.9682C17.7893 17.9087 16.3477 17.951 14.9099 17.9491C14.7179 18.1333 14.478 18.2178 14.2207 18.2274C12.7043 18.2754 11.1858 18.2754 9.66936 18.2274C9.40829 18.2178 9.17026 18.1333 8.97638 17.9491Z" fill="#334D80"/>
<path d="M8.97656 17.9491C10.9538 17.9491 12.931 17.9491 14.9082 17.9491C14.8467 19.7151 13.5587 21.0147 11.8944 20.9859C10.2646 20.9571 9.02647 19.6671 8.97656 17.9491Z" fill="#4D88FF"/>
<path d="M3.77993 3.17585C3.18101 4.40824 3.02936 5.79804 2.88539 7.19551C2.83548 7.68501 2.44964 7.97103 1.93326 7.96336C1.3689 7.95568 0.986897 7.60823 0.963862 7.08993C0.892837 5.4717 1.23069 3.91874 1.94862 2.4656C2.17705 2.00489 2.63584 1.89931 3.10614 2.06056C3.58797 2.22565 3.78761 2.60765 3.77993 3.17585Z" fill="#4D88FF"/>
<path d="M22.9528 6.59258C22.9739 7.30475 22.7954 7.91711 21.9661 7.95358C21.1848 7.98813 20.9257 7.41417 20.9161 6.74615C20.9007 5.61166 20.6493 4.53284 20.2327 3.48857C19.9736 2.84166 20.1156 2.32145 20.7587 2.07382C21.4133 1.82235 21.8414 2.16404 22.1024 2.786C22.615 4.00687 22.853 5.28341 22.9528 6.59258Z" fill="#4D88FF"/>
</svg>
