<svg width="20" height="20" viewBox="0 0 20 20" fill="none" xmlns="http://www.w3.org/2000/svg">
<path d="M8.51116 2.52698C10.8559 2.56534 12.6732 3.57549 13.8065 5.63095C14.9381 7.68162 14.8646 9.77225 13.6099 11.7622C13.3094 12.2401 13.3222 12.4862 13.7313 12.8714C14.8741 13.9487 15.9642 15.0803 17.0783 16.1864C17.4027 16.5076 17.6872 16.8769 17.2924 17.2812C16.896 17.6856 16.5268 17.4155 16.2008 17.0862C15.1139 15.9898 13.9935 14.9253 12.9434 13.7937C12.5182 13.3349 12.2417 13.311 11.7078 13.6434C8.74452 15.4943 4.89892 14.4682 3.24464 11.4297C1.60635 8.42005 2.8035 4.65437 5.88829 3.12636C6.71144 2.71878 7.58093 2.50461 8.51116 2.52698Z" fill="#596680"/>
<path d="M8.50309 13.303C5.86104 13.2886 3.73206 11.1469 3.75284 8.52239C3.77202 5.89313 5.91379 3.76094 8.53986 3.75295C11.1995 3.74496 13.3349 5.9139 13.3077 8.59751C13.2821 11.2508 11.1707 13.3174 8.50309 13.303Z" fill="#2E384D"/>
</svg>
