<svg width="22" height="22" viewBox="0 0 22 22" fill="none" xmlns="http://www.w3.org/2000/svg">
<path d="M21.7204 7.63508C21.6086 8.04641 21.482 8.46197 21.155 8.82479C19.7372 10.3984 19.7309 11.5248 21.1107 13.0457C21.655 13.6448 21.866 14.2544 21.4883 15.0476C21.1887 15.6804 20.8976 16.3111 20.5347 16.9165C19.8342 18.0809 19.0431 18.7116 17.5303 18.2834C16.218 17.9121 15.1357 18.6568 14.5787 19.9182C13.777 21.7323 13.0871 22.1436 11.1334 21.9601C10.7157 21.92 10.3 21.8652 9.8823 21.8188C9.03416 21.7281 8.48139 21.3399 8.23665 20.4624C7.72397 18.6209 6.52138 17.9354 4.63521 18.3657C3.7934 18.5576 3.16679 18.3847 2.6309 17.6379C2.03382 16.8047 1.52536 15.9462 1.12238 15.0012C0.797475 14.2354 0.985247 13.6575 1.4916 13.0858C2.89462 11.5059 2.90939 10.3752 1.52114 8.86065C0.966259 8.25525 0.795365 7.62031 1.11395 6.84616C1.51692 5.86317 2.07602 4.973 2.70052 4.12501C3.17101 3.48797 3.82927 3.36562 4.58458 3.53016C6.57201 3.96259 7.69021 3.32343 8.24509 1.39543C8.47084 0.610727 8.9793 0.214157 9.72828 0.106576C10.8022 -0.0474109 11.8887 -0.0263168 12.9605 0.117123C13.6652 0.212047 14.1589 0.612836 14.3804 1.3448C14.9944 3.36773 15.9986 3.94149 18.1 3.5175C18.5599 3.42469 19.003 3.43101 19.4271 3.67571C20.1296 4.0786 21.7352 6.82084 21.7204 7.63508Z" fill="#334D80"/>
<path d="M11.2814 17.5684C9.5303 17.4861 8.00492 16.8617 6.70739 15.6763C6.32551 15.3282 6.30652 15.0751 6.81077 14.8177C7.40362 14.514 7.9796 14.1743 8.54292 13.8157C8.93956 13.5626 9.27713 13.5268 9.70542 13.7799C10.7561 14.4001 11.8532 14.4211 12.906 13.7883C13.3765 13.5057 13.752 13.5647 14.1613 13.8537C14.3618 13.995 14.5833 14.1068 14.7964 14.2271C16.6235 15.248 16.6277 15.3535 14.8681 16.4926C13.8638 17.1465 12.4186 17.5789 11.2814 17.5684Z" fill="#4D88FF"/>
<path d="M10.1902 6.42853C10.3231 7.2069 10.1796 7.98738 9.19854 8.52107C8.5424 8.87967 8.05714 9.62851 8.1141 10.352C8.21327 11.5797 7.43686 11.951 6.60137 12.4087C4.94307 13.3179 4.94518 13.3305 4.72154 11.411C4.3903 8.55482 6.6288 5.38226 9.46227 4.6313C10.0657 4.47099 10.2281 4.63341 10.1944 5.19874C10.1733 5.5489 10.1902 5.89906 10.1902 6.42853Z" fill="#4D88FF"/>
<path d="M17.95 11.0081C17.8276 11.6789 17.9964 12.6323 17.4162 13.0162C17.0175 13.2799 16.3571 12.529 15.7917 12.2758C14.9836 11.9151 14.4815 11.4447 14.5237 10.3921C14.5595 9.49563 13.9203 8.74046 13.146 8.27217C12.5869 7.93255 12.3485 7.54653 12.4434 6.91793C12.4687 6.74706 12.4476 6.56776 12.4476 6.39268C12.4476 4.20944 12.5637 4.12717 14.492 5.19664C16.7453 6.44542 17.7728 8.44936 17.95 11.0081Z" fill="#4D88FF"/>
</svg>
