<svg width="21" height="20" viewBox="0 0 21 20" fill="none" xmlns="http://www.w3.org/2000/svg">
<path d="M10.0226 17.4713C8.34596 17.4713 6.66931 17.4809 4.99265 17.4697C3.44865 17.4585 2.55199 16.5922 2.53281 15.0626C2.51043 13.2005 2.50883 11.3369 2.53441 9.47321C2.55359 8.05548 3.38632 7.17959 4.79446 7.09008C5.56326 7.04054 6.33685 7.0741 7.10885 7.0757C7.52442 7.0773 7.86806 7.21316 7.88244 7.68946C7.89843 8.2265 7.52761 8.33519 7.07688 8.33039C6.3848 8.3224 5.69272 8.31601 5.00064 8.33199C4.17909 8.35117 3.77312 8.68363 3.76033 9.46841C3.72996 11.3576 3.73636 13.2485 3.75873 15.1377C3.76672 15.8298 4.1743 16.2374 4.86958 16.2406C8.27563 16.2534 11.6833 16.2534 15.0893 16.2438C15.823 16.2422 16.2402 15.8298 16.2465 15.0994C16.2657 13.2357 16.2721 11.3736 16.2449 9.50997C16.2322 8.70281 15.8454 8.35437 15.043 8.33199C14.3253 8.31281 13.6061 8.3224 12.8868 8.3288C12.4633 8.33199 12.1276 8.21212 12.118 7.72782C12.1084 7.25631 12.4281 7.0789 12.8533 7.0757C13.6508 7.06931 14.4532 7.03734 15.2476 7.09168C16.6158 7.18758 17.4469 8.05868 17.4677 9.42845C17.4964 11.3449 17.498 13.2613 17.4645 15.1777C17.4405 16.5666 16.5263 17.4457 15.1293 17.4633C13.4303 17.4857 11.7264 17.4697 10.0226 17.4713Z" fill="#BE63F9"/>
<path d="M10.8524 11.97C11.2168 11.5513 11.57 11.1213 11.9489 10.7153C12.2318 10.4117 12.5754 10.2742 12.919 10.6147C13.2595 10.9535 13.1332 11.2796 12.8295 11.5816C12.0559 12.3504 11.2871 13.1224 10.5167 13.8928C10.1699 14.2397 9.82466 14.2349 9.47942 13.888C8.70902 13.1161 7.94022 12.3457 7.16663 11.5769C6.85975 11.2716 6.74626 10.9423 7.08831 10.6099C7.43355 10.2726 7.77879 10.4149 8.0585 10.7201C8.43411 11.1277 8.78734 11.5577 9.15816 11.986C9.49541 11.6616 9.38352 11.4122 9.38512 11.1964C9.39471 8.61833 9.39151 6.03861 9.39151 3.46049C9.39151 2.97939 9.41868 2.4951 10.082 2.55424C10.6366 2.60378 10.611 3.05931 10.611 3.46369C10.6126 5.98906 10.6126 8.51444 10.6126 11.0398C10.6126 11.2987 10.6126 11.5577 10.6126 11.8166C10.6926 11.8678 10.7725 11.9189 10.8524 11.97Z" fill="#BE63F9"/>
</svg>
