<svg width="20" height="20" viewBox="0 0 20 20" fill="none" xmlns="http://www.w3.org/2000/svg">
<path d="M9.84484 17.9218C8.89359 17.9218 7.94393 17.9298 6.99268 17.9202C5.73227 17.9076 4.94749 17.1719 4.96493 15.902C4.97445 15.2235 4.827 15.0047 4.10564 15.0253C2.28241 15.0792 1.64508 14.3975 1.64349 12.5584C1.64191 10.9999 1.63715 9.44303 1.64508 7.88457C1.65459 5.86316 2.45998 4.95314 4.48138 4.73276C4.87932 4.68996 4.9253 4.53142 4.95701 4.19372C5.08225 2.82234 5.74179 2.23732 7.13061 2.23257C9.00457 2.22622 10.8801 2.22305 12.7541 2.23257C14.0795 2.23891 14.7707 2.84771 14.8627 4.17311C14.896 4.65508 15.0894 4.70581 15.4857 4.73435C17.1409 4.85326 18.1096 5.79658 18.1651 7.4676C18.2269 9.33998 18.2158 11.2171 18.1667 13.0911C18.1334 14.3911 17.3581 15.076 15.9788 15.0269C15.1924 14.9983 14.8135 15.095 14.8484 16.0399C14.8896 17.1909 14.0367 17.906 12.854 17.9187C11.852 17.9313 10.8484 17.9218 9.84484 17.9218Z" fill="#4CBF4C"/>
<path d="M9.97601 5.92828C11.6645 5.92828 13.3529 5.92036 15.0414 5.93145C16.4429 5.94097 16.9423 6.45305 16.9455 7.85615C16.9487 9.49229 16.9455 11.1284 16.9471 12.763C16.9471 13.1372 16.9804 13.5636 16.5602 13.7158C16.0608 13.8966 15.5202 13.8363 15.0034 13.7475C14.8337 13.7174 14.8892 13.4796 14.886 13.3274C14.8781 13.0103 14.8987 12.6932 14.8765 12.3777C14.7973 11.241 14.0806 10.5101 12.9391 10.4943C10.9066 10.4642 8.87573 10.4657 6.84323 10.4943C5.78734 10.5085 5.07549 11.2156 4.95817 12.262C4.9439 12.392 4.94866 12.5252 4.94549 12.6568C4.92646 13.8078 4.59036 14.0583 3.44727 13.7856C3.04775 13.6905 2.88603 13.4194 2.88445 13.0357C2.88286 11.1617 2.8575 9.28936 2.89713 7.41699C2.91774 6.44513 3.54557 5.94414 4.67121 5.93304C6.44053 5.9156 8.20827 5.92828 9.97601 5.92828Z" fill="#D5FAD5"/>
<path d="M9.87625 16.6709C8.98049 16.6709 8.08314 16.644 7.18897 16.6804C6.48822 16.709 6.16638 16.4569 6.18857 15.726C6.22028 14.7002 6.21077 13.6713 6.19174 12.644C6.17906 12.0193 6.4248 11.7228 7.07323 11.7276C8.96939 11.7434 10.8671 11.7403 12.7633 11.7292C13.3515 11.726 13.6464 11.9607 13.64 12.5679C13.6289 13.6475 13.6242 14.7288 13.6416 15.8085C13.6527 16.4601 13.3467 16.6947 12.7189 16.6788C11.774 16.6519 10.8243 16.6709 9.87625 16.6709Z" fill="#D5FAD5"/>
<path d="M9.88701 4.72193C8.86124 4.72193 7.83548 4.72827 6.80813 4.71717C6.54971 4.714 6.19141 4.84401 6.19141 4.35411C6.19141 3.95459 6.25641 3.60738 6.70984 3.50592C6.88582 3.46628 7.07607 3.48214 7.25998 3.48214C9.02296 3.48055 10.7859 3.48055 12.5489 3.48214C12.7582 3.48214 12.9802 3.46311 13.1752 3.52177C13.6175 3.65336 13.6555 4.02435 13.6349 4.41277C13.6111 4.85193 13.2735 4.714 13.0436 4.71559C11.9924 4.72827 10.9397 4.72193 9.88701 4.72193Z" fill="#D5FAD5"/>
</svg>
