<svg width="20" height="20" viewBox="0 0 20 20" fill="none" xmlns="http://www.w3.org/2000/svg">
<path d="M10.8465 13.7585C10.8465 13.7314 10.8465 13.7058 10.8465 13.6786C10.8465 11.7654 10.8465 11.7638 8.90771 12.0499C8.19805 12.1554 7.49478 12.2881 6.81549 12.5406C5.04453 13.1975 3.87135 14.4043 3.40144 16.2488C3.28956 16.6899 3.17927 17.1358 2.61985 17.0495C2.06523 16.9632 2.08761 16.4869 2.0908 16.0442C2.14035 11.2667 5.20277 7.71043 10.0266 6.90008C10.6947 6.78819 10.92 6.55643 10.8593 5.88673C10.7954 5.17387 10.8481 4.45142 10.8449 3.73217C10.8433 3.42369 10.8913 3.15357 11.2045 2.99534C11.5354 2.82911 11.7751 2.99374 11.9861 3.20472C13.8722 5.08277 15.7502 6.96721 17.633 8.84845C18.0198 9.23525 17.9575 9.59008 17.5963 9.9513C15.7502 11.7942 13.9089 13.6403 12.0628 15.4847C11.8311 15.7165 11.5833 15.9259 11.2205 15.7629C10.8657 15.603 10.8401 15.2882 10.8449 14.9557C10.8497 14.5561 10.8465 14.1565 10.8465 13.7585Z" fill="#5991FF"/>
<path d="M4.19922 12.2658C5.64891 9.59818 8.03043 8.42979 10.8707 8.01263C12.0263 7.8432 12.0854 7.82083 12.0886 6.62367C12.0902 6.18733 12.0886 5.74938 12.0886 5.08447C13.5687 6.56134 14.8761 7.86878 16.1868 9.17302C16.4265 9.41117 16.2315 9.54543 16.0861 9.69408C14.8202 10.9775 13.5543 12.261 12.0886 13.4885C12.0886 12.9787 12.0918 12.4688 12.0886 11.9589C12.0822 10.9376 11.9512 10.7857 10.9666 10.7442C8.77366 10.6515 6.67185 10.9648 4.78101 12.1779C4.61638 12.2818 4.46135 12.3665 4.19922 12.2658Z" fill="#DAE9FF"/>
</svg>
