<svg width="25" height="25" viewBox="0 0 25 25" fill="none" xmlns="http://www.w3.org/2000/svg">
<path d="M22.6323 7.58806C22.6382 9.45213 22.0517 10.8247 20.9323 11.9575C17.7424 15.1882 14.5505 18.4148 11.3408 21.6255C9.70825 23.2598 7.44165 23.3297 5.94973 21.8372C4.43008 20.3168 4.50537 18.0052 6.16173 16.323C8.60269 13.8436 11.0635 11.3841 13.5104 8.91069C13.9284 8.48713 14.4 8.04958 14.931 8.60501C15.4639 9.16043 15.0003 9.62395 14.5882 10.0395C12.1334 12.5069 9.67853 14.9724 7.23559 17.4498C6.28655 18.4108 6.14192 19.4557 6.77791 20.4147C7.56053 21.5975 9.07622 21.6934 10.1957 20.5786C12.4741 18.3109 14.7249 16.0173 16.9895 13.7357C17.9227 12.7946 18.8797 11.8756 19.7891 10.9126C21.5207 9.08051 21.5188 6.50319 19.8148 4.84492C18.1248 3.19863 15.664 3.26256 13.8809 5.04471C10.6236 8.29932 7.39014 11.5799 4.14675 14.8485C3.93674 15.0603 3.73266 15.2821 3.49491 15.4579C3.20167 15.6757 2.87278 15.6797 2.58351 15.4359C2.26056 15.1622 2.21301 14.8066 2.41906 14.4529C2.54983 14.2292 2.74399 14.0354 2.93024 13.8496C6.24693 10.509 9.53588 7.14453 12.8902 3.84596C16.1673 0.623307 21.4038 2.12375 22.4837 6.55514C22.5827 6.97071 22.6065 7.40625 22.6323 7.58806Z" fill="#596680"/>
</svg>
