<svg width="25" height="25" viewBox="0 0 25 25" fill="none" xmlns="http://www.w3.org/2000/svg">
<path d="M12.4573 21.8374C10.3934 21.8374 8.32959 21.8494 6.26774 21.8334C4.27981 21.8175 3.17495 20.7386 3.16297 18.7447C3.14099 14.585 3.14099 10.4253 3.16297 6.26563C3.17296 4.25772 4.24384 3.17485 6.25175 3.16086C10.4114 3.13289 14.5711 3.13489 18.7308 3.16086C20.7467 3.17285 21.8256 4.24973 21.8355 6.25165C21.8595 10.4113 21.8595 14.571 21.8355 18.7307C21.8256 20.7626 20.7087 21.8235 18.6429 21.8354C16.583 21.8454 14.5192 21.8374 12.4573 21.8374Z" fill="#596680"/>
<path d="M20.2894 16.5851C19.2285 15.5701 18.3694 14.743 17.5023 13.9218C16.2376 12.7231 15.1508 12.6751 13.96 13.9218C13.3267 14.5852 12.957 14.5192 12.3896 13.8899C11.6784 13.1007 10.8892 12.3775 10.098 11.6642C9.02114 10.6952 7.96824 10.7112 6.89335 11.6702C6.54571 11.9799 6.22205 12.3175 5.8864 12.6392C5.57672 12.9349 5.26505 13.2266 4.96736 13.5083C4.57576 13.3265 4.68765 13.0228 4.68765 12.785C4.67766 10.6872 4.66967 8.58939 4.68565 6.49157C4.69764 5.11301 5.1132 4.67946 6.47978 4.67346C10.5076 4.65748 14.5374 4.66747 18.5652 4.66947C19.4483 4.66947 20.2555 4.9272 20.2694 5.94214C20.3214 9.39855 20.2894 12.853 20.2894 16.5851Z" fill="#F6F7FA"/>
<path d="M10.0137 20.2432C11.2584 18.9166 12.4711 17.556 13.7578 16.2714C15.6958 14.3394 15.7177 14.3614 17.6737 16.2514C18.367 16.9207 19.0543 17.598 19.7535 18.2613C20.1052 18.595 20.4189 18.9266 20.1951 19.468C19.9813 19.9855 19.5757 20.2293 19.0403 20.2852C18.8105 20.3092 18.5748 20.3112 18.343 20.3112C15.8496 20.3132 13.3562 20.3172 10.8628 20.3072C10.5431 20.3072 10.1955 20.4091 10.0137 20.2432Z" fill="#F6F7FA"/>
<path d="M4.68301 17.46C4.38532 16.4111 4.96672 15.564 5.87577 14.8068C6.58903 14.2114 7.22637 13.5241 7.89168 12.8728C8.30125 12.4732 8.69684 12.4652 9.10841 12.8668C9.94155 13.68 10.7727 14.4951 11.6198 15.2943C11.9135 15.572 11.9914 15.7838 11.6578 16.1034C10.3092 17.3881 9.00052 18.7187 7.62995 19.9794C6.99461 20.5648 6.17546 20.395 5.45221 20.1412C4.7929 19.9095 4.68701 19.2781 4.68102 18.6508C4.68102 18.3171 4.68301 17.9855 4.68301 17.46Z" fill="#F6F7FA"/>
<path d="M18.1995 9.08062C18.2215 10.3873 17.2025 11.4222 15.8919 11.4262C14.6132 11.4302 13.6103 10.4672 13.5743 9.1965C13.5364 7.86588 14.5093 6.82896 15.822 6.79899C17.1306 6.76902 18.1795 7.77598 18.1995 9.08062Z" fill="#596680"/>
<path d="M16.6172 9.01858C16.6052 9.55602 16.3615 9.82974 15.892 9.84172C15.4764 9.85171 15.1987 9.63194 15.1667 9.19839C15.1328 8.73688 15.3346 8.4292 15.826 8.39523C16.3036 8.36327 16.5513 8.62299 16.6172 9.01858Z" fill="#F6F7FA"/>
</svg>
