<svg width="26" height="26" viewBox="0 0 26 26" fill="none" xmlns="http://www.w3.org/2000/svg">
<path d="M21.668 7.5835H4.33464C3.13802 7.5835 2.16797 8.55355 2.16797 9.75016V20.5835C2.16797 21.7801 3.13802 22.7502 4.33464 22.7502H21.668C22.8646 22.7502 23.8346 21.7801 23.8346 20.5835V9.75016C23.8346 8.55355 22.8646 7.5835 21.668 7.5835Z" stroke="#8E9AB2" stroke-width="2.3" stroke-linecap="round" stroke-linejoin="round"/>
<path d="M17.3346 22.75V5.41667C17.3346 4.84203 17.1064 4.29093 16.7 3.8846C16.2937 3.47827 15.7426 3.25 15.168 3.25H10.8346C10.26 3.25 9.7089 3.47827 9.30257 3.8846C8.89624 4.29093 8.66797 4.84203 8.66797 5.41667V22.75" stroke="#8E9AB2" stroke-width="2.3" stroke-linecap="round" stroke-linejoin="round"/>
</svg>
