<svg width="21" height="20" viewBox="0 0 21 20" fill="none" xmlns="http://www.w3.org/2000/svg">
<path d="M10.9914 19.9888C7.82191 19.9888 4.6508 19.9808 1.4813 20C1.08171 20.0016 0.99061 19.9089 0.992208 19.5093C1.00659 13.1687 1.00659 6.82972 0.992208 0.489112C0.99061 0.0895274 1.08171 -0.00157781 1.4813 2.0532e-05C7.82191 0.0144056 14.1609 0.0144056 20.5015 2.0532e-05C20.9011 -0.00157781 20.9922 0.0895274 20.9906 0.489112C20.9762 6.82972 20.9762 13.1687 20.9906 19.5093C20.9922 19.9089 20.9011 20.0016 20.5015 20C17.332 19.9808 14.1625 19.9888 10.9914 19.9888Z" fill="white"/>
<path d="M10.9747 17.468C9.43226 17.468 7.88826 17.4824 6.34587 17.4648C4.61966 17.4456 3.54238 16.4067 3.528 14.6869C3.50082 11.5478 3.50082 8.40702 3.52959 5.26789C3.54558 3.6216 4.5829 2.55551 6.22439 2.53473C9.41627 2.49637 12.6098 2.49637 15.8016 2.53793C17.3968 2.55871 18.4421 3.62799 18.4581 5.22633C18.49 8.41821 18.4916 11.6117 18.4549 14.8036C18.4373 16.3859 17.3456 17.4328 15.7649 17.46C14.1681 17.4888 12.5714 17.468 10.9747 17.468Z" fill="#596680"/>
<path d="M11.0314 7.07118C12.8695 7.07118 14.7076 7.08397 16.5441 7.06319C17.0236 7.0584 17.2665 7.13512 17.2585 7.70253C17.2298 9.96577 17.2601 12.2306 17.241 14.4939C17.2298 15.7182 16.6991 16.2393 15.4652 16.2456C12.4827 16.26 9.49861 16.2584 6.51612 16.2456C5.2822 16.2408 4.74995 15.7182 4.74036 14.4955C4.72118 12.2322 4.75155 9.96737 4.72278 7.70412C4.71639 7.13671 4.95774 7.0584 5.43724 7.06319C7.3025 7.08397 9.16776 7.07118 11.0314 7.07118Z" fill="white"/>
<path d="M10.9903 5.82591C9.12824 5.82591 7.26778 5.80354 5.40572 5.8387C4.80314 5.84989 4.66728 5.63411 4.76159 5.08908C4.91183 4.21799 5.4233 3.76566 6.44943 3.74328C7.69933 3.71771 8.94923 3.73689 10.1991 3.73689C11.9541 3.73689 13.7091 3.7241 15.4641 3.74168C16.5733 3.75287 17.1215 4.23397 17.2382 5.17539C17.2973 5.65169 17.1711 5.84349 16.6532 5.8355C14.7672 5.80993 12.8779 5.82591 10.9903 5.82591Z" fill="white"/>
<path d="M12.0277 13.4421C12.034 14.1055 11.5513 14.5945 10.9648 14.561C10.3398 14.5258 10.001 14.1582 9.9626 13.5476C9.92743 12.9802 10.4565 12.4512 11.0175 12.4991C11.6249 12.5519 11.9637 12.9131 12.0277 13.4421Z" fill="#596680"/>
<path d="M7.41617 12.4893C8.04431 12.5116 8.56217 13.0615 8.48386 13.6081C8.39914 14.2011 8.05071 14.5655 7.41776 14.5607C6.82638 14.5559 6.37725 14.0556 6.42999 13.461C6.48753 12.8281 6.89511 12.5564 7.41617 12.4893Z" fill="#596680"/>
<path d="M6.41797 9.79622C6.47071 9.20804 6.75362 8.81964 7.39296 8.77968C8.00192 8.74132 8.48143 9.17927 8.49581 9.76745C8.5086 10.3253 7.99073 10.8751 7.43931 10.8256C6.84473 10.7744 6.4803 10.434 6.41797 9.79622Z" fill="#596680"/>
<path d="M9.95727 9.76768C9.97165 9.1715 10.4416 8.73995 11.0537 8.77991C11.6915 8.82146 12.0207 9.20986 12.0159 9.81403C12.0111 10.4358 11.6004 10.773 11.0074 10.8274C10.4543 10.8769 9.94448 10.3303 9.95727 9.76768Z" fill="#596680"/>
<path d="M15.5541 9.76105C15.5685 10.3317 15.073 10.8719 14.5168 10.8287C13.9174 10.7808 13.5115 10.4292 13.5003 9.81859C13.4891 9.22241 13.8167 8.82442 14.4577 8.77967C15.073 8.73811 15.5382 9.16167 15.5541 9.76105Z" fill="#596680"/>
</svg>
