<svg width="14" height="12" viewBox="0 0 14 12" fill="none" xmlns="http://www.w3.org/2000/svg">
<path d="M11.2664 2.26663H10.0824L9.85307 1.34397C9.7663 0.998072 9.56645 0.69108 9.28527 0.471739C9.00409 0.252398 8.65769 0.13328 8.30107 0.133301H5.69841C5.34179 0.13328 4.99539 0.252398 4.71421 0.471739C4.43303 0.69108 4.23318 0.998072 4.14641 1.34397L3.91707 2.26663H2.73307C2.02583 2.26663 1.34755 2.54759 0.847455 3.04768C0.347358 3.54778 0.0664063 4.22606 0.0664062 4.9333V9.19997C0.0664062 9.90721 0.347358 10.5855 0.847455 11.0856C1.34755 11.5857 2.02583 11.8666 2.73307 11.8666H11.2664C11.9737 11.8666 12.6519 11.5857 13.152 11.0856C13.6521 10.5855 13.9331 9.90721 13.9331 9.19997V4.9333C13.9331 4.22606 13.6521 3.54778 13.152 3.04768C12.6519 2.54759 11.9737 2.26663 11.2664 2.26663ZM6.99974 10.2666C6.36684 10.2666 5.74815 10.079 5.22191 9.72734C4.69568 9.37572 4.28553 8.87595 4.04333 8.29122C3.80113 7.7065 3.73775 7.06308 3.86123 6.44235C3.9847 5.82161 4.28947 5.25142 4.737 4.80389C5.18453 4.35636 5.75471 4.05159 6.37545 3.92812C6.99619 3.80465 7.6396 3.86802 8.22433 4.11022C8.80905 4.35242 9.30882 4.76257 9.66044 5.28881C10.0121 5.81505 10.1997 6.43373 10.1997 7.06663C10.1997 7.91533 9.8626 8.72926 9.26248 9.32938C8.66237 9.92949 7.84843 10.2666 6.99974 10.2666Z" fill="white"/>
</svg>
