<svg width="14" height="16" viewBox="0 0 14 16" fill="none" xmlns="http://www.w3.org/2000/svg">
<path d="M13.6263 2.86523L7.22 0.0527276C7.05916 -0.0178974 6.87603 -0.0175537 6.71544 0.0536339L0.371688 2.86614C0.145719 2.96632 0 3.19029 0 3.43751V8.37502C0 10.241 0.737406 12.1485 2.02316 13.6084C2.66987 14.3427 3.41544 14.9238 4.23916 15.3355C5.12147 15.7764 6.05034 16 7 16C8.32975 16 9.62397 15.5696 10.7428 14.7554C11.0219 14.5522 11.0835 14.1613 10.8803 13.8822C10.6772 13.6031 10.2863 13.5416 10.0072 13.7447C9.10353 14.4024 8.06366 14.75 7 14.75C3.99066 14.75 1.25 11.7115 1.25 8.37502V3.84407L6.97 1.30813L12.75 3.8457V8.37502C12.75 9.52592 12.4194 10.6906 11.7938 11.7432C11.6175 12.04 11.7151 12.4235 12.0118 12.5998C12.3086 12.7761 12.6921 12.6786 12.8684 12.3818C13.6087 11.1361 14 9.75058 14 8.37502V3.43751C14 3.18951 13.8533 2.96495 13.6263 2.86523Z" fill="#4CBF4C"/>
<path d="M9.98081 4.92202L6.10563 9.76414L3.93328 7.67461C3.6845 7.43533 3.28884 7.44299 3.04956 7.69177C2.81028 7.94055 2.81794 8.33621 3.06672 8.57549L5.26938 10.6942C5.27025 10.695 5.27116 10.6959 5.27203 10.6967C5.50013 10.9136 5.79534 11.0313 6.10809 11.0313C6.12488 11.0313 6.14166 11.031 6.15847 11.0303C6.48975 11.017 6.794 10.8736 7.01519 10.6266C7.02288 10.618 7.03031 10.6092 7.03753 10.6002L10.9568 5.70306C11.1724 5.43356 11.1288 5.04024 10.8593 4.82456C10.5898 4.60887 10.1965 4.65249 9.98081 4.92202Z" fill="#4CBF4C"/>
</svg>
