<svg width="25" height="25" viewBox="0 0 25 25" fill="none" xmlns="http://www.w3.org/2000/svg">
<path d="M11.2547 12.39C11.0625 12.1839 10.8901 11.9858 10.7058 11.7995C8.60746 9.69719 6.50712 7.59684 4.40678 5.49452C4.2443 5.33204 4.07786 5.16956 3.91736 5.00312C3.56664 4.63853 3.50323 4.24026 3.87575 3.86973C4.25024 3.49524 4.65446 3.56855 5.01112 3.91927C5.97609 4.86838 6.93115 5.82542 7.89017 6.78247C9.22171 8.11202 10.5711 9.42374 11.8689 10.785C12.3029 11.2388 12.5367 11.1833 12.9468 10.7672C15.0293 8.64701 17.1416 6.55856 19.2439 4.4602C19.4084 4.29772 19.5728 4.13524 19.7353 3.97277C20.1138 3.59629 20.5338 3.46155 20.94 3.88756C21.3502 4.31556 21.1738 4.72175 20.7993 5.09427C19.5827 6.30494 18.3701 7.51957 17.1554 8.7342C16.2678 9.62189 15.382 10.5076 14.4944 11.3953C13.4957 12.3939 13.4957 12.3939 14.4607 13.3589C16.4223 15.3205 18.382 17.2802 20.3416 19.2418C20.5279 19.4281 20.7161 19.6144 20.8945 19.8085C21.2353 20.1791 21.2888 20.5793 20.9123 20.9439C20.5299 21.3125 20.1276 21.2193 19.7769 20.8726C18.6772 19.7788 17.5834 18.6791 16.4857 17.5814C15.2949 16.3905 14.0822 15.2215 12.927 13.9989C12.4971 13.5432 12.2632 13.6026 11.8551 14.0168C9.7785 16.1369 7.66825 18.2293 5.56791 20.3316C5.38165 20.5179 5.19738 20.7081 5.00518 20.8884C4.64059 21.2292 4.24232 21.3026 3.8698 20.9261C3.49729 20.5516 3.56862 20.1434 3.91538 19.7887C4.81892 18.8713 5.73039 17.9638 6.64186 17.0523C8.01897 15.6752 9.39608 14.2981 10.7712 12.919C10.9337 12.7585 11.0803 12.5822 11.2547 12.39Z" fill="#565B69"/>
</svg>
