<svg width="16" height="18" viewBox="0 0 16 18" fill="none" xmlns="http://www.w3.org/2000/svg">
<path d="M7.93804 17.3314C7.00621 17.3314 6.07278 17.3474 5.14095 17.3282C3.61933 17.2963 2.77541 16.4987 2.63156 14.9995C2.31509 11.6877 1.98103 8.37755 1.68534 5.0642C1.63899 4.53675 1.4392 4.37372 0.943712 4.42327C0.494579 4.46802 0.110978 4.31138 0.10938 3.79991C0.107782 3.28845 0.492981 3.16058 0.942114 3.16218C2.14087 3.16537 3.33962 3.14779 4.53678 3.17177C4.94435 3.17976 5.11857 3.05988 5.26082 2.65231C5.69557 1.4088 6.74728 0.681558 7.97959 0.671968C9.23589 0.662378 10.2956 1.39761 10.7511 2.69387C10.887 3.08226 11.0564 3.17496 11.424 3.17017C12.5956 3.15259 13.7672 3.16857 14.9404 3.16218C15.3959 3.15898 15.8594 3.20054 15.8882 3.76315C15.9169 4.32577 15.487 4.47921 15.0139 4.42007C14.4577 4.35134 14.3586 4.63425 14.3154 5.10576C14.0101 8.44468 13.6825 11.7836 13.358 15.1209C13.2285 16.4524 12.3526 17.2787 10.9749 17.3251C9.96313 17.3586 8.94979 17.3314 7.93804 17.3314ZM8.02914 4.42646C6.53789 4.42646 5.04505 4.44404 3.5538 4.41687C3.04393 4.40728 2.86811 4.51917 2.92565 5.08018C3.26929 8.36317 3.58257 11.6478 3.88625 14.9339C3.95978 15.7251 4.37534 16.0767 5.12976 16.0799C7.04776 16.0863 8.96577 16.0879 10.8838 16.0783C11.595 16.0751 12.0298 15.7475 12.1017 14.9931C12.4166 11.6813 12.7251 8.36796 13.0735 5.0594C13.1358 4.46482 12.8993 4.41048 12.423 4.41687C10.9605 4.43925 9.49482 4.42646 8.02914 4.42646ZM8.00037 3.16537C8.34402 3.16537 8.68766 3.17816 9.0313 3.16058C9.19433 3.15259 9.44527 3.27246 9.49642 3.01993C9.52199 2.89685 9.41011 2.72423 9.3222 2.60276C8.68606 1.71408 7.3051 1.71728 6.67215 2.60596C6.58584 2.72743 6.47556 2.90165 6.50273 3.02312C6.55867 3.27086 6.80642 3.15099 6.97104 3.15898C7.31309 3.17816 7.65833 3.16537 8.00037 3.16537Z" fill="#8E9AB2"/>
<path d="M8.02888 4.42651C9.49456 4.42651 10.9586 4.4393 12.4243 4.41852C12.9006 4.41212 13.1372 4.46647 13.0748 5.06105C12.7264 8.36961 12.4163 11.683 12.103 14.9947C12.0311 15.7491 11.5964 16.0768 10.8851 16.08C8.96711 16.088 7.0491 16.0864 5.13109 16.0816C4.37668 16.08 3.96111 15.7284 3.88759 14.9356C3.5855 11.6494 3.27223 8.36321 2.92699 5.08183C2.86785 4.52081 3.04366 4.40893 3.55513 4.41852C5.04638 4.44409 6.53763 4.42651 8.02888 4.42651ZM7.15619 10.3148C7.15619 9.33181 7.15459 8.34723 7.15619 7.36425C7.15779 6.9327 7.09226 6.52992 6.54722 6.52513C6.00698 6.52033 5.90629 6.92471 5.90469 7.35147C5.8967 9.29185 5.8999 11.2338 5.90309 13.1742C5.90309 13.6265 6.07571 14.0006 6.57439 13.983C7.02672 13.967 7.16418 13.6122 7.15939 13.187C7.1482 12.2296 7.15619 11.2722 7.15619 10.3148ZM8.84403 10.2221C8.84403 11.2051 8.85043 12.1896 8.84084 13.1726C8.83604 13.5946 8.95752 13.9558 9.41304 13.9798C9.91492 14.0069 10.0939 13.6361 10.0955 13.1854C10.1003 11.245 10.1019 9.30304 10.0939 7.36266C10.0923 6.9391 10.0044 6.52992 9.46419 6.52353C8.91916 6.51873 8.84084 6.91192 8.84244 7.34987C8.84563 8.30887 8.84244 9.26628 8.84403 10.2221Z" fill="white"/>
<path d="M8.00051 3.16549C7.65687 3.16549 7.31323 3.17828 6.96958 3.1607C6.80495 3.15111 6.55721 3.27258 6.50127 3.02484C6.4741 2.90336 6.58438 2.72914 6.67069 2.60767C7.30523 1.7174 8.6862 1.7158 9.32074 2.60447C9.40865 2.72755 9.52053 2.89857 9.49496 3.02164C9.44221 3.27258 9.19287 3.1527 9.02984 3.16229C8.68939 3.17828 8.34415 3.16549 8.00051 3.16549Z" fill="white"/>
<path d="M7.15669 10.3146C7.15669 11.272 7.1503 12.2294 7.15989 13.1868C7.16468 13.612 7.02723 13.9668 6.5749 13.9828C6.07621 14.0004 5.90519 13.6248 5.90359 13.174C5.902 11.2336 5.8988 9.29167 5.90519 7.35129C5.90679 6.92613 6.00589 6.52015 6.54772 6.52494C7.09436 6.52974 7.15829 6.93252 7.15669 7.36407C7.15509 8.34705 7.15669 9.33163 7.15669 10.3146Z" fill="#8E9AB2"/>
<path d="M8.84415 10.222C8.84415 9.26463 8.84575 8.30723 8.84255 7.34982C8.84095 6.91348 8.91927 6.51869 9.46431 6.52348C10.0045 6.52828 10.0925 6.93905 10.094 7.36261C10.1004 9.30299 10.0988 11.245 10.0956 13.1854C10.094 13.6361 9.91504 14.0069 9.41316 13.9797C8.95763 13.9542 8.83616 13.5945 8.84096 13.1726C8.85055 12.1896 8.84415 11.2066 8.84415 10.222Z" fill="#8E9AB2"/>
</svg>
