<svg width="30" height="30" viewBox="0 0 30 30" fill="none" xmlns="http://www.w3.org/2000/svg">
<path d="M22.6585 17.8359C20.5733 17.8359 18.877 19.5323 18.877 21.6175C18.877 23.7026 20.5733 25.399 22.6585 25.399C24.744 25.399 26.44 23.7026 26.44 21.6175C26.44 19.5323 24.7437 17.8359 22.6585 17.8359ZM22.6585 23.5082C21.6157 23.5082 20.7677 22.6602 20.7677 21.6175C20.7677 20.5747 21.6157 19.7267 22.6585 19.7267C23.7012 19.7267 24.5492 20.5747 24.5492 21.6175C24.5492 22.6603 23.7012 23.5082 22.6585 23.5082Z" fill="#596680"/>
<path d="M9.7366 17.8359C7.65143 17.8359 5.95508 19.5323 5.95508 21.6175C5.95508 23.7026 7.65143 25.399 9.7366 25.399C11.8218 25.399 13.5181 23.7026 13.5181 21.6175C13.5181 19.5323 11.8218 17.8359 9.7366 17.8359ZM9.7366 23.5082C8.69387 23.5082 7.84584 22.6602 7.84584 21.6175C7.84584 20.5747 8.69387 19.7267 9.7366 19.7267C10.779 19.7267 11.6274 20.5747 11.6274 21.6175C11.6274 22.6603 10.7793 23.5082 9.7366 23.5082Z" fill="#596680"/>
<path d="M25.2047 7.01231C25.044 6.69309 24.7172 6.4917 24.3599 6.4917H19.3809V8.38246H23.7769L26.3511 13.5026L28.0408 12.653L25.2047 7.01231Z" fill="#596680"/>
<path d="M19.8213 20.7036H12.668V22.5944H19.8213V20.7036Z" fill="#596680"/>
<path d="M6.90035 20.7036H3.62309C3.1009 20.7036 2.67773 21.1268 2.67773 21.649C2.67773 22.1712 3.10096 22.5943 3.62309 22.5943H6.90041C7.4226 22.5943 7.84576 22.1711 7.84576 21.649C7.84576 21.1268 7.42254 20.7036 6.90035 20.7036Z" fill="#596680"/>
<path d="M29.8006 14.9246L27.9411 12.5296C27.7624 12.2989 27.4867 12.1641 27.1945 12.1641H20.3248V5.54643C20.3248 5.02424 19.9015 4.60107 19.3794 4.60107H3.62309C3.1009 4.60107 2.67773 5.0243 2.67773 5.54643C2.67773 6.06855 3.10096 6.49178 3.62309 6.49178H18.434V13.1094C18.434 13.6316 18.8572 14.0548 19.3794 14.0548H26.7316L28.1084 15.8283V20.7039H25.4928C24.9706 20.7039 24.5474 21.1271 24.5474 21.6493C24.5474 22.1715 24.9707 22.5946 25.4928 22.5946H29.0537C29.5759 22.5946 29.9991 22.1714 29.9991 21.6493V15.5044C29.9991 15.2946 29.9292 15.0904 29.8006 14.9246Z" fill="#596680"/>
<path d="M6.83904 15.9141H2.49027C1.96809 15.9141 1.54492 16.3373 1.54492 16.8594C1.54492 17.3816 1.96814 17.8048 2.49027 17.8048H6.83898C7.36117 17.8048 7.78434 17.3815 7.78434 16.8594C7.7844 16.3373 7.36117 15.9141 6.83904 15.9141Z" fill="#596680"/>
<path d="M9.0126 12.1953H0.945352C0.423223 12.1953 0 12.6185 0 13.1407C0 13.6629 0.423223 14.0861 0.945352 14.0861H9.0126C9.53479 14.0861 9.95795 13.6629 9.95795 13.1407C9.95795 12.6186 9.53479 12.1953 9.0126 12.1953Z" fill="#596680"/>
<path d="M10.5575 8.47705H2.49027C1.96809 8.47705 1.54492 8.90027 1.54492 9.4224C1.54492 9.94459 1.96814 10.3678 2.49027 10.3678H10.5575C11.0797 10.3678 11.5029 9.94453 11.5029 9.4224C11.5029 8.90027 11.0797 8.47705 10.5575 8.47705Z" fill="#596680"/>
</svg>
