<svg width="20" height="20" viewBox="0 0 20 20" fill="none" xmlns="http://www.w3.org/2000/svg">
<path d="M2.66793 6.98499C2.66793 8.04104 2.65208 9.0971 2.67269 10.1531C2.69488 11.3852 3.32731 12.0544 4.56681 12.1336C5.30226 12.1812 6.04406 12.1701 6.78269 12.1463C7.19797 12.1336 7.44206 12.2795 7.68616 12.6236C8.7196 14.0713 9.631 15.5666 9.9591 17.3505C10.0748 17.98 10.3633 18.5366 11.0338 18.6888C11.7946 18.8632 12.4492 18.554 12.9374 17.9752C13.7806 16.9747 13.9074 15.7743 13.7331 14.5375C13.6427 13.8874 13.4747 13.2452 13.2909 12.6125C13.1815 12.2383 13.2893 12.1479 13.6411 12.1495C14.0881 12.1527 14.5399 12.1495 14.9837 12.1019C16.7653 11.9148 17.8098 10.5099 17.4167 8.75301C17.0838 7.26248 16.7034 5.77988 16.2723 4.31473C15.6399 2.16139 13.76 1.08631 11.541 1.5414C10.7928 1.69521 10.0463 1.85695 9.29497 1.99648C8.42162 2.15981 7.61483 2.45791 6.66064 1.95684C5.89982 1.55726 4.89491 1.73168 4.01204 1.91245C3.21001 2.07735 2.7028 2.76236 2.68061 3.65668C2.65367 4.76506 2.67427 5.87502 2.67427 6.9834C2.6711 6.98499 2.66952 6.98499 2.66793 6.98499Z" fill="#596680"/>
<path d="M8.00832 7.78554C7.47734 9.83898 8.37764 11.9432 9.96743 13.8555C10.6839 14.7181 10.7489 15.8518 11.0991 16.8651C11.1736 17.0791 11.1404 17.3899 11.4177 17.4438C11.7427 17.5073 11.9598 17.2662 12.1183 17.0173C12.635 16.207 12.6366 15.3095 12.4591 14.4168C12.2958 13.5922 12.0422 12.7851 11.8346 11.9685C11.6349 11.1884 11.8156 10.9394 12.6129 10.9252C13.2722 10.9125 13.9332 10.9394 14.591 10.9172C15.8606 10.876 16.4566 10.1672 16.1792 8.95259C15.8447 7.48902 15.4738 6.03179 15.057 4.59042C14.6528 3.19345 13.4529 2.46405 11.9994 2.71617C10.8329 2.91755 9.68371 3.22199 8.51712 3.42813C8.05587 3.509 7.99564 3.74209 8.00198 4.13217C8.01942 5.18663 8.00832 6.24269 8.00832 7.78554Z" fill="#FEFEFE"/>
<path d="M6.79477 7.15294C6.79477 6.09688 6.78367 5.04083 6.79794 3.98319C6.80745 3.31245 6.5047 3.04923 5.8374 3.03813C3.87513 3.008 3.87671 2.99215 3.87671 4.95837C3.87671 6.56941 3.87196 8.18045 3.8783 9.79148C3.88147 10.7492 4.04314 10.9094 4.96563 10.9221C6.79635 10.9443 6.79635 10.9443 6.79635 9.13343C6.79477 8.4738 6.79477 7.81416 6.79477 7.15294Z" fill="#FDFDFD"/>
</svg>
