<svg width="20" height="20" viewBox="0 0 20 20" fill="none" xmlns="http://www.w3.org/2000/svg">
<path d="M9.91613 17.5416C7.7508 17.5416 5.58705 17.5369 3.42172 17.5432C2.51342 17.5464 2.07433 17.1263 2.07116 16.1879C2.06482 14.1811 2.06482 12.1727 2.07116 10.1659C2.07433 9.2132 2.48013 8.82166 3.42014 8.82325C7.7508 8.82483 12.0815 8.82483 16.4137 8.82325C17.3553 8.82325 17.7579 9.21161 17.7611 10.1659C17.7674 12.1727 17.7674 14.1811 17.7611 16.1879C17.7579 17.1295 17.322 17.5464 16.4121 17.5432C14.2468 17.5369 12.0815 17.5416 9.91613 17.5416Z" fill="#596680"/>
<path d="M1.84375 7.63265C2.21785 7.17771 2.5967 7.12698 2.93117 7.0081C6.80531 5.63217 10.6826 4.26735 14.5599 2.90094C15.7615 2.4777 16.1245 2.65841 16.562 3.89325C16.9916 5.10273 17.4132 6.31538 17.8365 7.52327C16.9234 7.80068 16.3734 7.59619 16.2212 6.66887C16.1784 6.41207 16.0484 6.17113 15.9771 5.9175C15.8503 5.47207 15.7187 5.06944 15.1005 5.18991C14.9499 5.21845 14.6867 5.11383 14.6059 4.98701C14.1319 4.23247 13.5518 4.57804 12.9732 4.78411C10.6145 5.62266 8.24305 6.42476 5.90018 7.30769C4.60827 7.79592 3.30369 7.51693 1.84375 7.63265Z" fill="#596680"/>
<path d="M11.4938 7.58345C10.4492 7.58345 9.54881 7.58345 8.64844 7.58345C9.16362 6.62126 10.3874 6.57211 11.4938 7.58345Z" fill="#596680"/>
<path d="M13.4023 7.61697C13.4039 7.13508 13.6607 6.93376 14.0142 6.84499C14.3202 6.76732 14.596 6.87194 14.7878 7.12398C14.8607 7.21751 14.913 7.36334 14.9003 7.47747C14.8813 7.65343 14.7053 7.6138 14.5833 7.61538C14.1949 7.62172 13.805 7.61697 13.4023 7.61697Z" fill="#596680"/>
<path d="M9.87493 16.2816C8.34524 16.2816 6.81556 16.2736 5.28588 16.2863C4.86264 16.2895 4.51232 16.28 4.40453 15.7474C4.36807 15.5682 4.16992 15.3146 4.01141 15.2877C3.17603 15.1386 3.31552 14.5268 3.32028 13.9656C3.32503 13.517 3.31552 13.0684 3.32186 12.6214C3.33137 11.9762 3.09994 11.2138 4.08591 11.0315C4.14932 11.0204 4.23174 10.9316 4.24601 10.865C4.46318 9.87591 5.23674 10.0677 5.92153 10.0677C8.79543 10.0677 11.6709 10.0725 14.5448 10.063C14.9696 10.0614 15.3215 10.0709 15.4182 10.6067C15.4595 10.8333 15.6497 11.0743 15.8795 11.1155C16.5691 11.2391 16.5326 11.7195 16.5136 12.2299C16.4946 12.7308 16.5136 13.2317 16.5088 13.7326C16.5025 14.3778 16.7244 15.1339 15.7495 15.3241C15.6845 15.3368 15.5989 15.4208 15.5831 15.4842C15.3469 16.5241 14.5242 16.2752 13.8299 16.28C12.5126 16.2879 11.1938 16.2816 9.87493 16.2816Z" fill="#FEFEFE"/>
<path d="M7.87517 13.1506C7.88785 11.8761 8.77871 10.9187 9.94064 10.9298C11.0915 10.9409 11.9696 11.9284 11.9585 13.1997C11.949 14.4615 11.0423 15.4364 9.88991 15.4237C8.74384 15.4126 7.8609 14.4171 7.87517 13.1506Z" fill="#596680"/>
<path d="M5.56044 13.9858C5.07221 13.9462 4.7742 13.6767 4.77737 13.1853C4.78054 12.6558 5.09757 12.3531 5.63336 12.3784C6.13427 12.4006 6.39423 12.7145 6.37838 13.2106C6.36253 13.7131 6.06452 13.9604 5.56044 13.9858Z" fill="#596680"/>
<path d="M13.4453 13.1839C13.4929 12.6687 13.7465 12.3739 14.2506 12.3755C14.7499 12.3771 15.0495 12.6672 15.0574 13.1538C15.0669 13.6833 14.7562 13.986 14.2173 13.9749C13.7069 13.9638 13.4802 13.6468 13.4453 13.1839Z" fill="#596680"/>
<path d="M10.7643 13.1425C10.6708 13.691 10.5075 14.1903 9.92417 14.184C9.30279 14.1776 9.08087 13.664 9.10306 13.1282C9.12367 12.6305 9.34401 12.1597 9.95112 12.1835C10.5582 12.2057 10.6581 12.7161 10.7643 13.1425Z" fill="white"/>
</svg>
