<svg width="24" height="24" viewBox="0 0 24 24" fill="none" xmlns="http://www.w3.org/2000/svg">
<g clip-path="url(#clip0_531_6246)">
<path d="M12.0007 16C11.7957 16 11.5997 15.916 11.4587 15.768L6.20868 10.268C5.75368 9.792 6.09168 9 6.75068 9H9.50068V3.25C9.50068 2.561 10.0617 2 10.7507 2H13.2507C13.9397 2 14.5007 2.561 14.5007 3.25V9H17.2507C17.9097 9 18.2477 9.792 17.7927 10.268L12.5427 15.768C12.4017 15.916 12.2057 16 12.0007 16Z" fill="#B6B9BF"/>
<path d="M22.25 22H1.75C0.785 22 0 21.215 0 20.25V19.75C0 18.785 0.785 18 1.75 18H22.25C23.215 18 24 18.785 24 19.75V20.25C24 21.215 23.215 22 22.25 22Z" fill="#B6B9BF"/>
</g>
<defs>
<clipPath id="clip0_531_6246">
<rect width="24" height="24" fill="white"/>
</clipPath>
</defs>
</svg>
