<svg width="18" height="18" viewBox="0 0 18 18" fill="none" xmlns="http://www.w3.org/2000/svg">
<path d="M3.82664 6.23088C2.83402 5.59979 1.89847 5.01309 0.970858 4.41371C0.273165 3.96338 0.26048 3.56538 0.959759 3.11029C2.10937 2.36027 3.28434 1.64989 4.43237 0.899873C4.84781 0.628724 5.19983 0.660437 5.59942 0.918901C6.55082 1.53731 7.52759 2.11766 8.46947 2.74876C8.81039 2.97709 9.05141 2.96282 9.3844 2.74083C10.3279 2.11132 11.3046 1.53097 12.2545 0.910973C12.6588 0.647752 13.0124 0.639824 13.4215 0.906216C14.5711 1.65465 15.7461 2.36661 16.8941 3.11663C17.5855 3.56855 17.5648 3.96496 16.8576 4.42164C15.9332 5.01785 15.004 5.60454 14.0145 6.23405C14.9977 6.8588 15.9158 7.42647 16.818 8.01951C17.5918 8.52693 17.5823 8.92968 16.8037 9.42441C15.689 10.1316 14.56 10.8135 13.4596 11.5413C13.0251 11.8299 12.6778 11.8457 12.2386 11.5492C11.2983 10.9149 10.3136 10.3473 9.37013 9.71618C9.02921 9.48784 8.78978 9.5037 8.45679 9.72569C7.51331 10.3552 6.53179 10.9292 5.58673 11.5555C5.18239 11.8235 4.85574 11.8521 4.43395 11.5746C3.3113 10.8325 2.15694 10.138 1.0216 9.41648C0.247795 8.92493 0.246209 8.52693 1.03111 8.01158C1.93653 7.41696 2.85463 6.8477 3.82664 6.23088Z" fill="#8E9AB2"/>
<path d="M13.3202 14.1274C13.3186 14.389 13.1489 14.5444 12.9428 14.6792C11.7726 15.4387 10.5976 16.1919 9.4369 16.9657C9.04524 17.2258 8.71859 17.175 8.34913 16.9292C7.23124 16.1856 6.09748 15.4657 4.97959 14.7236C4.34532 14.3018 4.32947 13.8689 4.96532 13.4408C6.10066 12.6765 7.26295 11.9518 8.40621 11.2018C8.75665 10.9719 9.07695 10.9655 9.42897 11.197C10.5944 11.9629 11.7694 12.7161 12.9396 13.4772C13.168 13.6247 13.3424 13.815 13.3202 14.1274Z" fill="#8E9AB2"/>
<path d="M5.82812 6.23109C6.78587 5.62378 7.67701 5.0688 8.55547 4.49479C8.80283 4.33305 8.99787 4.30292 9.25792 4.47417C10.1538 5.06245 11.0624 5.63012 12.009 6.23268C11.0592 6.8384 10.1459 7.40765 9.24999 8.00069C8.98677 8.17512 8.80125 8.13389 8.55705 7.97374C7.68018 7.39814 6.79062 6.84316 5.82812 6.23109Z" fill="white"/>
<path d="M2.25 3.75582C3.13322 3.19291 3.92922 2.69184 4.71412 2.17808C4.92185 2.04171 5.082 2.05123 5.28496 2.18442C5.98741 2.64585 6.69938 3.09301 7.53502 3.62579C6.61692 4.1998 5.77969 4.71197 4.95515 5.24476C4.77597 5.36051 4.66021 5.27964 4.53019 5.19877C3.7992 4.74052 3.07137 4.2775 2.25 3.75582Z" fill="white"/>
<path d="M15.526 3.77465C15.3833 3.88089 15.3025 3.94591 15.2168 4.00299C12.9493 5.50144 12.8859 5.49193 10.6993 3.88882C10.3584 3.63987 10.4218 3.5146 10.7278 3.3497C10.7738 3.32432 10.8182 3.29578 10.8626 3.26724C13.0096 1.83856 13.0096 1.83856 15.526 3.77465Z" fill="white"/>
<path d="M2.30762 8.67759C3.07349 8.18762 3.8251 7.72143 4.55926 7.22829C4.80187 7.06496 4.95092 7.20609 5.119 7.31074C5.78657 7.72777 6.43828 8.16859 7.11377 8.57135C7.51177 8.8092 7.43883 8.96935 7.08523 9.14536C7.06144 9.15646 7.03924 9.17073 7.01704 9.185C4.88591 10.5994 4.65599 10.5772 2.30762 8.67759Z" fill="white"/>
<path d="M10.3164 8.85985C10.6367 8.64737 10.8286 8.51259 11.0268 8.38732C13.2879 6.95547 13.2879 6.95547 15.5348 8.75044C14.6802 9.28798 13.8493 9.80649 13.0247 10.3361C12.8535 10.4455 12.7314 10.3773 12.5966 10.2917C11.8688 9.83344 11.141 9.37836 10.3164 8.85985Z" fill="white"/>
<path d="M11.4567 14.0165C11.463 14.2369 11.3044 14.2686 11.2061 14.3336C10.5481 14.7713 9.87892 15.1947 9.21928 15.6307C9.02583 15.7592 8.86409 15.7925 8.6532 15.6498C7.97454 15.1931 7.28953 14.7459 6.59659 14.3146C6.25885 14.1037 6.39997 13.9975 6.62989 13.8215C8.72773 12.2152 9.04327 12.2104 11.1776 13.804C11.2775 13.8802 11.3774 13.9563 11.4567 14.0165Z" fill="white"/>
</svg>
