<svg width="18" height="18" viewBox="0 0 18 18" fill="none" xmlns="http://www.w3.org/2000/svg">
<g clip-path="url(#clip0_818_2355)">
<path d="M14.25 9.03422C13.8352 9.03422 13.5 9.37027 13.5 9.78418V15.7842C13.5 16.1974 13.164 16.5342 12.75 16.5342H2.25C1.83595 16.5342 1.50005 16.1974 1.50005 15.7842V5.28418C1.50005 4.87096 1.83595 4.53423 2.25 4.53423H8.25005C8.66478 4.53423 9 4.19818 9 3.78427C9 3.37022 8.66478 3.03418 8.25005 3.03418H2.25C1.00951 3.03418 0 4.04369 0 5.28418V15.7842C0 17.0247 1.00951 18.0342 2.25 18.0342H12.75C13.9905 18.0342 15 17.0247 15 15.7842V9.78418C15 9.36945 14.6647 9.03422 14.25 9.03422Z" fill="#B6B9BF"/>
<path d="M7.03087 8.35098C6.97841 8.40344 6.94312 8.47018 6.92815 8.54214L6.39792 11.1942C6.37321 11.3172 6.41221 11.4439 6.50065 11.5332C6.57192 11.6044 6.66791 11.6426 6.76624 11.6426C6.79014 11.6426 6.81499 11.6404 6.83971 11.6352L9.49099 11.105C9.56446 11.0899 9.6312 11.0547 9.68297 11.0021L15.617 5.06813L12.9657 2.41699L7.03087 8.35098Z" fill="#B6B9BF"/>
<path d="M17.4509 0.583614C16.7198 -0.147663 15.5302 -0.147663 14.7997 0.583614L13.7617 1.62155L16.413 4.27282L17.4509 3.23475C17.805 2.88154 18 2.4105 18 1.90953C18 1.40855 17.805 0.937512 17.4509 0.583614Z" fill="#B6B9BF"/>
</g>
<defs>
<clipPath id="clip0_818_2355">
<rect width="18" height="18" fill="white"/>
</clipPath>
</defs>
</svg>
