<svg width="16" height="16" viewBox="0 0 16 16" fill="none" xmlns="http://www.w3.org/2000/svg">
<path d="M7.33203 2.6665H2.66536C2.31174 2.6665 1.9726 2.80698 1.72256 3.05703C1.47251 3.30708 1.33203 3.64622 1.33203 3.99984V13.3332C1.33203 13.6868 1.47251 14.0259 1.72256 14.276C1.9726 14.526 2.31174 14.6665 2.66536 14.6665H11.9987C12.3523 14.6665 12.6915 14.526 12.9415 14.276C13.1916 14.0259 13.332 13.6868 13.332 13.3332V8.6665" stroke="#8E9AB2" stroke-width="1.4" stroke-linecap="round" stroke-linejoin="round"/>
<path d="M12.332 1.66665C12.5972 1.40144 12.957 1.25244 13.332 1.25244C13.7071 1.25244 14.0668 1.40144 14.332 1.66665C14.5972 1.93187 14.7462 2.29158 14.7462 2.66665C14.7462 3.04173 14.5972 3.40144 14.332 3.66665L7.9987 9.99999L5.33203 10.6667L5.9987 7.99999L12.332 1.66665Z" stroke="#8E9AB2" stroke-width="1.4" stroke-linecap="round" stroke-linejoin="round"/>
</svg>
