<svg width="25" height="25" viewBox="0 0 25 25" fill="none" xmlns="http://www.w3.org/2000/svg">
<path d="M12.4826 23.0834C6.61767 22.9263 1.92652 18.1204 2.11175 12.4568C2.30503 6.5637 7.09484 1.91685 12.7665 2.1202C18.6274 2.3316 23.2199 7.03282 23.089 12.6904C22.9541 18.5453 18.1704 23.2324 12.4826 23.0834Z" fill="#596680"/>
<path d="M12.5669 3.67635C17.4473 3.65621 21.4841 7.64872 21.5244 12.5392C21.5666 17.4277 17.4775 21.5369 12.581 21.5249C7.71669 21.5128 3.68189 17.4719 3.67384 12.6036C3.66579 7.72926 7.68246 3.69648 12.5669 3.67635Z" fill="#F6F7FA"/>
<path d="M12.515 18.3622C10.6748 18.3099 9.1124 17.5931 7.86008 16.1959C7.48358 15.7771 7.28426 15.3241 7.80371 14.8952C8.27081 14.5087 8.6453 14.7704 9.01978 15.1328C11.3372 17.3817 13.8619 17.3837 16.1793 15.1348C16.59 14.7362 16.9927 14.4925 17.4679 14.9617C17.9068 15.3945 17.6813 15.8153 17.341 16.1938C16.0625 17.6173 14.4659 18.3401 12.515 18.3622Z" fill="#596680"/>
<path d="M9.47259 11.2811C8.75583 11.2932 8.08538 10.659 8.1498 9.95229C8.21826 9.20332 8.64711 8.69595 9.43232 8.69192C10.1994 8.6879 10.6746 9.11876 10.7289 9.91001C10.7813 10.6711 10.2195 11.269 9.47259 11.2811Z" fill="#596680"/>
<path d="M17.0612 9.99467C16.9806 10.6712 16.6343 11.1886 15.8471 11.2732C15.1042 11.3537 14.4821 10.7859 14.47 10.0289C14.4579 9.23563 14.8867 8.78464 15.6498 8.68598C16.3525 8.59538 17.029 9.22154 17.0612 9.99467Z" fill="#596680"/>
</svg>
