<svg width="18" height="18" viewBox="0 0 18 18" fill="none" xmlns="http://www.w3.org/2000/svg">
<g clip-path="url(#clip0_322_9819)">
<path d="M9.0003 6.10303C7.40207 6.10303 6.10352 7.40158 6.10352 8.99981C6.10352 10.598 7.40207 11.8966 9.0003 11.8966C10.5985 11.8966 11.8971 10.598 11.8971 8.99981C11.8971 7.40158 10.5985 6.10303 9.0003 6.10303ZM8.78054 8.14076C8.42094 8.14076 8.12127 8.44043 8.12127 8.80003H7.16234C7.18232 7.90103 7.90152 7.18183 8.78054 7.18183V8.14076Z" fill="#B6B9BF"/>
<path d="M17.7902 8.40077C16.8113 7.18212 13.3152 3.20654 9 3.20654C4.68479 3.20654 1.18868 7.18212 0.209767 8.40077C-0.0699223 8.74039 -0.0699223 9.23984 0.209767 9.59944C1.18868 10.8181 4.68479 14.7937 9 14.7937C13.3152 14.7937 16.8113 10.8181 17.7902 9.59944C18.0699 9.25982 18.0699 8.76037 17.7902 8.40077ZM9 13.1954C6.68258 13.1954 4.80466 11.3175 4.80466 9.0001C4.80466 6.68268 6.68258 4.80477 9 4.80477C11.3174 4.80477 13.1953 6.68268 13.1953 9.0001C13.1953 11.3175 11.3174 13.1954 9 13.1954Z" fill="#B6B9BF"/>
</g>
<defs>
<clipPath id="clip0_322_9819">
<rect width="18" height="18" fill="white"/>
</clipPath>
</defs>
</svg>
