<svg width="14" height="18" viewBox="0 0 14 18" fill="none" xmlns="http://www.w3.org/2000/svg">
<path d="M0.356913 8.95436C0.356913 6.90529 0.35052 4.85782 0.358512 2.80875C0.363307 1.41021 1.0474 0.694153 2.46033 0.666981C4.08264 0.636612 5.70655 0.662186 7.32886 0.657391C7.72685 0.655792 8.03053 0.802839 8.31344 1.08894C9.95973 2.75281 11.6188 4.40549 13.2827 6.05178C13.5464 6.31391 13.6615 6.59681 13.6615 6.97083C13.6519 9.76472 13.6663 12.5586 13.6503 15.3509C13.6439 16.5225 12.955 17.2945 11.7882 17.3089C8.59634 17.3472 5.40287 17.3472 2.21098 17.3073C1.04739 17.2929 0.371298 16.5177 0.363307 15.3397C0.347323 13.2107 0.358512 11.0833 0.356913 8.95436Z" fill="#8E9AB2"/>
<path d="M1.61017 8.9446C1.61017 6.94827 1.63095 4.95035 1.59898 2.95403C1.58779 2.2076 1.84672 1.87835 2.61552 1.89912C3.86542 1.93109 5.11852 1.92789 6.36842 1.89753C6.85911 1.88634 7.02054 2.04298 7.00456 2.53047C6.97419 3.43513 6.97259 4.34139 7.00616 5.24604C7.0573 6.66857 7.74938 7.31909 9.16871 7.32708C10.0478 7.33188 10.9269 7.34626 11.8044 7.32069C12.2311 7.3079 12.4165 7.4038 12.4117 7.8833C12.3894 10.332 12.3957 12.7822 12.4053 15.2309C12.4085 15.843 12.1304 16.0908 11.531 16.0876C8.52298 16.078 5.51331 16.0764 2.50524 16.0892C1.85951 16.0924 1.59898 15.8159 1.60377 15.1733C1.62135 13.0987 1.61017 11.0224 1.61017 8.9446Z" fill="white"/>
<path d="M8.23828 2.94775C9.29798 4.00585 10.2874 4.99522 11.3391 6.04533C10.4712 6.04533 9.59527 6.08369 8.72418 6.02775C8.3118 6.00058 8.23828 5.5978 8.23828 5.23018C8.23828 4.49335 8.23828 3.75491 8.23828 2.94775Z" fill="white"/>
</svg>
