<svg width="20" height="20" viewBox="0 0 20 20" fill="none" xmlns="http://www.w3.org/2000/svg">
<path d="M19.6024 10.2276C19.6033 9.54617 19.5457 8.86592 19.4302 8.19434H10V12.0456H15.4012C15.2907 12.6607 15.0567 13.247 14.7135 13.7693C14.3703 14.2916 13.9248 14.7389 13.404 15.0844V17.5843H16.6275C18.515 15.8441 19.6024 13.2705 19.6024 10.2276Z" fill="#596680"/>
<path d="M9.99886 19.9999C12.6974 19.9999 14.9695 19.1138 16.6264 17.5861L13.4029 15.0862C12.5057 15.6945 11.3502 16.0417 9.99886 16.0417C7.39062 16.0417 5.17681 14.2834 4.38517 11.9141H1.06445V14.4904C1.89674 16.1465 3.17296 17.5388 4.75063 18.5117C6.3283 19.4845 8.14533 19.9998 9.99886 19.9999Z" fill="#596680"/>
<path d="M4.3855 11.9137C3.96699 10.6721 3.96699 9.32762 4.3855 8.08606V5.50977H1.06478C0.364637 6.90299 0 8.44063 0 9.99988C0 11.5591 0.364637 13.0968 1.06478 14.49L4.3855 11.9137Z" fill="#596680"/>
<path d="M9.99886 3.95885C11.4249 3.93555 12.8028 4.47435 13.8348 5.4588L16.6889 2.60473C14.8791 0.904896 12.4816 -0.0283416 9.99886 0.00065607C8.14533 0.000740547 6.3283 0.515992 4.75063 1.48888C3.17296 2.46178 1.89674 3.85402 1.06445 5.51018L4.38517 8.08648C5.17681 5.71712 7.39062 3.95885 9.99886 3.95885Z" fill="#596680"/>
</svg>
