<svg width="18" height="16" viewBox="0 0 18 16" fill="none" xmlns="http://www.w3.org/2000/svg">
<path d="M8.88663 15.9226C7.22327 15.9226 5.55991 15.9052 3.89654 15.9321C3.35266 15.94 3.02601 15.7688 2.78182 15.263C2.08413 13.8152 1.34679 12.3866 0.60153 10.961C0.393808 10.563 0.419178 10.2316 0.628486 9.8495C2.27916 6.84625 3.92033 3.83824 5.54881 0.822303C5.77714 0.400516 6.06573 0.216579 6.55095 0.221336C8.23968 0.241949 9.93 0.241949 11.6187 0.221336C12.1103 0.214993 12.3973 0.417958 12.6225 0.830231C14.2509 3.81604 15.8826 6.79868 17.5301 9.77339C17.7632 10.1952 17.7457 10.5377 17.5016 10.9468C16.6342 12.3945 15.7843 13.8517 14.955 15.3216C14.7029 15.7688 14.3873 15.94 13.8751 15.9321C12.2134 15.9052 10.55 15.9226 8.88663 15.9226Z" fill="#8E9AB2"/>
<path d="M7.2793 1.47857C8.67468 1.47857 9.91309 1.4865 11.1531 1.47223C11.4607 1.46906 11.6304 1.58957 11.7715 1.8512C13.1098 4.30581 14.4529 6.75725 15.8054 9.20394C16.0195 9.58925 16.0131 9.7494 15.5041 9.7383C14.3958 9.71452 13.2858 9.72879 12.1774 9.73355C11.9316 9.73513 11.716 9.7272 11.5765 9.46715C10.1716 6.84605 8.75872 4.22812 7.2793 1.47857Z" fill="white"/>
<path d="M4.59082 14.6698C5.31388 13.4282 5.95291 12.3436 6.57607 11.2495C6.70134 11.0307 6.86942 10.9736 7.09459 10.9736C10.0249 10.9752 12.9552 10.9752 16.0266 10.9752C15.321 12.1946 14.6677 13.3252 14.016 14.4558C13.9098 14.6413 13.7433 14.673 13.5451 14.673C10.6179 14.6698 7.6908 14.6698 4.59082 14.6698Z" fill="white"/>
<path d="M6.23601 2.17334C6.89248 3.39113 7.49979 4.52171 8.11344 5.64753C8.21334 5.83147 8.21334 5.98211 8.10868 6.16287C6.60864 8.73165 5.11336 11.3036 3.54672 13.9945C2.941 12.8005 2.39394 11.7095 1.8342 10.6265C1.72796 10.4204 1.8231 10.2697 1.90714 10.1144C3.3279 7.50118 4.75341 4.88959 6.23601 2.17334Z" fill="white"/>
<path d="M8.94185 7.18262C9.40804 8.04998 9.83458 8.8444 10.2944 9.70224C9.33034 9.70224 8.47725 9.70224 7.49414 9.70224C7.98887 8.83964 8.4392 8.05632 8.94185 7.18262Z" fill="white"/>
</svg>
