<svg width="25" height="25" viewBox="0 0 25 25" fill="none" xmlns="http://www.w3.org/2000/svg">
<path d="M12.5008 21.8372C10.405 21.8372 8.31118 21.8492 6.21536 21.8332C4.29735 21.8173 3.17252 20.7244 3.16054 18.8064C3.13856 14.5848 3.13656 10.3612 3.16253 6.13956C3.17452 4.2715 4.27538 3.17265 6.16142 3.16066C10.385 3.13069 14.6066 3.13069 18.8302 3.16066C20.7562 3.17465 21.8271 4.28549 21.8371 6.23746C21.8591 10.4271 21.8591 14.6167 21.8351 18.8064C21.8251 20.7244 20.6963 21.8193 18.7823 21.8352C16.6905 21.8512 14.5946 21.8372 12.5008 21.8372Z" fill="#7A8599"/>
<path d="M11.7378 8.2634C11.7378 9.19443 11.7158 10.1255 11.7458 11.0545C11.7618 11.5779 11.564 11.7518 11.0485 11.7458C9.15448 11.7258 7.26045 11.7258 5.36642 11.7458C4.84896 11.7518 4.66315 11.574 4.67114 11.0545C4.69512 9.42619 4.65516 7.79788 4.69312 6.16957C4.7151 5.17061 5.17462 4.70909 6.18757 4.68312C7.81388 4.64316 9.44418 4.68512 11.0725 4.65914C11.6119 4.65115 11.7598 4.87292 11.7478 5.3704C11.7198 6.3354 11.7378 7.3004 11.7378 8.2634Z" fill="#F6F7FA"/>
<path d="M16.7568 11.7377C15.8597 11.7377 14.9607 11.7098 14.0656 11.7477C13.4762 11.7717 13.2384 11.6019 13.2504 10.9685C13.2864 9.10847 13.2804 7.2484 13.2524 5.38834C13.2444 4.80494 13.4702 4.6511 14.0156 4.66109C15.544 4.68707 17.0725 4.6531 18.6009 4.67508C19.8496 4.69306 20.2991 5.1326 20.3171 6.35733C20.3391 7.88574 20.3011 9.41415 20.3331 10.9426C20.3451 11.5379 20.1732 11.7797 19.5459 11.7497C18.6188 11.7038 17.6858 11.7377 16.7568 11.7377Z" fill="#F6F7FA"/>
<path d="M8.24738 13.2622C9.14444 13.2622 10.0415 13.2902 10.9366 13.2522C11.526 13.2262 11.7637 13.4001 11.7497 14.0314C11.7138 15.8575 11.7178 17.6836 11.7477 19.5097C11.7577 20.0951 11.6039 20.3409 10.9705 20.3269C9.41017 20.2889 7.84979 20.3309 6.28941 20.3089C5.15859 20.2909 4.70506 19.8554 4.68508 18.7365C4.65511 17.1442 4.69108 15.5498 4.6691 13.9555C4.66311 13.444 4.83093 13.2402 5.35638 13.2562C6.32138 13.2842 7.28438 13.2622 8.24738 13.2622Z" fill="#F6F7FA"/>
<path d="M13.2624 16.7126C13.2624 15.8155 13.2844 14.9185 13.2544 14.0234C13.2364 13.4899 13.3763 13.2422 13.9716 13.2502C15.8637 13.2802 17.7557 13.2742 19.6477 13.2522C20.1812 13.2462 20.335 13.456 20.329 13.9575C20.309 15.5498 20.343 17.1441 20.313 18.7385C20.2911 19.8533 19.8355 20.2889 18.7007 20.3068C17.1403 20.3308 15.58 20.2869 14.0196 20.3248C13.3783 20.3408 13.2284 20.0791 13.2524 19.4997C13.2883 18.5746 13.2624 17.6436 13.2624 16.7126Z" fill="#F6F7FA"/>
</svg>
