<svg width="16" height="16" viewBox="0 0 16 16" fill="none" xmlns="http://www.w3.org/2000/svg">
<path d="M7.95863 3.95091C8.19892 3.71947 8.39448 3.52383 8.59643 3.33587C9.92316 2.09939 11.7778 2.00094 13.2131 3.08908C14.6332 4.16572 15.0422 6.00573 14.1922 7.59767C13.511 8.87506 12.4884 9.87882 11.4659 10.8749C10.4894 11.8262 9.48731 12.7507 8.50952 13.7008C8.2002 14 7.89983 14.0997 7.57135 13.7724C5.98899 12.1932 4.25708 10.7649 2.81148 9.04769C2.4127 8.57458 2.04842 8.07718 1.7685 7.52223C0.984992 5.96993 1.38378 4.18363 2.75524 3.11466C4.1331 2.04057 5.96726 2.07893 7.27609 3.22462C7.52917 3.44711 7.74006 3.71563 7.95863 3.95091Z" fill="#B6B9BF"/>
<path d="M5.20927 3.33962C6.04135 3.36007 6.73667 3.9521 7.31951 4.72697C7.94069 5.55299 8.06595 5.55555 8.68714 4.72186C9.88478 3.11585 11.6474 2.87034 12.891 4.13623C13.6911 4.95074 13.8701 6.04784 13.346 7.06183C12.8821 7.96073 12.2225 8.71387 11.508 9.41458C10.4459 10.4567 9.36201 11.4771 8.29219 12.5128C8.11069 12.688 7.99949 12.8094 7.74514 12.5576C6.56923 11.3876 5.35753 10.2547 4.18035 9.08724C3.59112 8.50289 3.1003 7.8367 2.67596 7.11553C1.68794 5.43664 3.08624 3.33067 5.20927 3.33962Z" fill="#FAFBFC"/>
</svg>
