<svg width="40" height="40" viewBox="0 0 40 40" fill="none" xmlns="http://www.w3.org/2000/svg">
<path d="M10 0C8.625 0 7.5 1.125 7.5 2.5V37.5C7.5 38.875 8.625 40 10 40H35C36.375 40 37.5 38.875 37.5 37.5V10L27.5 0H10Z" fill="#E2E5E7"/>
<path d="M30 10H37.5L27.5 0V7.5C27.5 8.875 28.625 10 30 10Z" fill="#B0B7BD"/>
<path d="M37.5 17.5L30 10H37.5V17.5Z" fill="#CAD1D8"/>
<path d="M32.5 32.5C32.5 33.1875 31.9375 33.75 31.25 33.75H3.75C3.0625 33.75 2.5 33.1875 2.5 32.5V20C2.5 19.3125 3.0625 18.75 3.75 18.75H31.25C31.9375 18.75 32.5 19.3125 32.5 20V32.5Z" fill="#5083E8"/>
<path d="M11.0908 23.6837C11.0908 22.8437 12.4108 22.8437 12.4108 23.6837V27.6312C12.4108 29.2012 11.6608 30.1512 9.93203 30.1512C9.08203 30.1512 8.37328 29.92 7.75328 29.1212C7.24328 28.5112 8.20328 27.6325 8.72328 28.2712C9.14328 28.7912 9.59328 28.9112 10.032 28.8912C10.5908 28.8712 11.082 28.62 11.092 27.6312V23.6837H11.0908Z" fill="white"/>
<path d="M14.167 23.6837C14.167 23.3537 14.427 22.9937 14.847 22.9937H17.1557C18.4557 22.9937 19.6257 23.8637 19.6257 25.5312C19.6257 27.1112 18.4557 27.9912 17.1557 27.9912H15.487V29.3112C15.487 29.7512 15.207 29.9999 14.847 29.9999C14.517 29.9999 14.167 29.7512 14.167 29.3112V23.6837ZM15.487 24.2524V26.7424H17.1557C17.8257 26.7424 18.3557 26.1512 18.3557 25.5312C18.3557 24.8324 17.8257 24.2524 17.1557 24.2524H15.487Z" fill="white"/>
<path d="M26.7633 29.2312C26.0533 29.8212 25.1833 30.0712 24.3046 30.0712C22.2046 30.0712 20.7158 28.8725 20.7158 26.4925C20.7158 24.475 22.2858 22.9062 24.3933 22.9062C25.1833 22.9062 26.0521 23.175 26.6721 23.785C27.2808 24.3837 26.4021 25.2737 25.8033 24.745C25.4333 24.385 24.9133 24.115 24.3933 24.115C23.1846 24.115 22.0158 25.0837 22.0158 26.4925C22.0158 27.9725 22.9946 28.8725 24.3046 28.8725C24.9133 28.8725 25.4333 28.6913 25.8033 28.4225V27.1937H24.3046C23.4146 27.1937 23.5046 25.9737 24.3046 25.9737H26.3033C26.6733 25.9737 27.0121 26.2537 27.0121 26.5637V28.6925C27.0121 28.8725 26.9333 29.04 26.7633 29.2312Z" fill="white"/>
<path d="M31.25 33.75H7.5V35H31.25C31.9375 35 32.5 34.4375 32.5 33.75V32.5C32.5 33.1875 31.9375 33.75 31.25 33.75Z" fill="#CAD1D8"/>
</svg>
