<svg width="20" height="20" viewBox="0 0 20 20" fill="none" xmlns="http://www.w3.org/2000/svg">
<path d="M2.66793 13.015C2.66793 11.959 2.65208 10.9029 2.67269 9.84685C2.69488 8.61479 3.32731 7.94564 4.56681 7.86635C5.30226 7.81878 6.04406 7.82988 6.78269 7.85367C7.19797 7.86635 7.44206 7.72047 7.68616 7.37638C8.7196 5.92867 9.631 4.43339 9.9591 2.64951C10.0748 2.02 10.3633 1.46344 11.0338 1.31121C11.7946 1.13679 12.4492 1.44599 12.9374 2.02476C13.7806 3.02532 13.9074 4.22567 13.7331 5.46249C13.6427 6.11261 13.4747 6.7548 13.2909 7.38748C13.1815 7.7617 13.2893 7.85208 13.6411 7.8505C14.0881 7.84733 14.5399 7.8505 14.9837 7.89807C16.7653 8.08518 17.8098 9.49008 17.4167 11.247C17.0838 12.7375 16.7034 14.2201 16.2723 15.6853C15.6399 17.8386 13.76 18.9137 11.541 18.4586C10.7928 18.3048 10.0463 18.1431 9.29497 18.0035C8.42162 17.8402 7.61483 17.5421 6.66064 18.0432C5.89982 18.4427 4.89491 18.2683 4.01204 18.0876C3.21001 17.9226 2.7028 17.2376 2.68061 16.3433C2.65367 15.2349 2.67427 14.125 2.67427 13.0166C2.6711 13.015 2.66952 13.015 2.66793 13.015Z" fill="#596680"/>
<path d="M8.00832 12.2145C7.47734 10.161 8.37764 8.05685 9.96743 6.14453C10.6839 5.28193 10.7489 4.14818 11.0991 3.13494C11.1736 2.92088 11.1404 2.61009 11.4177 2.55617C11.7427 2.49275 11.9598 2.73377 12.1183 2.98272C12.635 3.79299 12.6366 4.69048 12.4591 5.58321C12.2958 6.40775 12.0422 7.21486 11.8346 8.03148C11.6349 8.81162 11.8156 9.06057 12.6129 9.07484C13.2722 9.08753 13.9332 9.06057 14.591 9.08277C15.8606 9.124 16.4566 9.83279 16.1792 11.0474C15.8447 12.511 15.4738 13.9682 15.057 15.4096C14.6528 16.8065 13.4529 17.536 11.9994 17.2838C10.8329 17.0825 9.68371 16.778 8.51712 16.5719C8.05587 16.491 7.99564 16.2579 8.00198 15.8678C8.01942 14.8134 8.00832 13.7573 8.00832 12.2145Z" fill="#FEFEFE"/>
<path d="M6.79477 12.8471C6.79477 13.9031 6.78367 14.9592 6.79794 16.0168C6.80745 16.6875 6.5047 16.9508 5.8374 16.9619C3.87513 16.992 3.87671 17.0079 3.87671 15.0416C3.87671 13.4306 3.87196 11.8196 3.8783 10.2085C3.88147 9.25077 4.04314 9.09062 4.96563 9.07794C6.79635 9.05574 6.79635 9.05574 6.79635 10.8666C6.79477 11.5262 6.79477 12.1858 6.79477 12.8471Z" fill="#FDFDFD"/>
</svg>
