<svg width="16" height="17" viewBox="0 0 16 17" fill="none" xmlns="http://www.w3.org/2000/svg">
<g clip-path="url(#clip0_1042_1490)">
<path d="M10.0003 5.62109H12.0003C12.4381 5.62109 12.8715 5.70731 13.2759 5.87483C13.6804 6.04234 14.0478 6.28788 14.3573 6.5974C14.6669 6.90693 14.9124 7.2744 15.0799 7.67882C15.2474 8.08323 15.3337 8.51669 15.3337 8.95443C15.3337 9.39217 15.2474 9.82562 15.0799 10.23C14.9124 10.6345 14.6669 11.0019 14.3573 11.3114C14.0478 11.621 13.6804 11.8665 13.2759 12.034C12.8715 12.2015 12.4381 12.2878 12.0003 12.2878H10.0003M6.00033 12.2878H4.00033C3.56259 12.2878 3.12913 12.2015 2.72471 12.034C2.3203 11.8665 1.95283 11.621 1.6433 11.3114C1.01818 10.6863 0.666992 9.83848 0.666992 8.95443C0.666992 8.07037 1.01818 7.22253 1.6433 6.5974C2.26842 5.97228 3.11627 5.62109 4.00033 5.62109H6.00033" stroke="#8E9AB2" stroke-width="1.4" stroke-linecap="round" stroke-linejoin="round"/>
<path d="M5.33301 8.95459H10.6663" stroke="#8E9AB2" stroke-width="1.4" stroke-linecap="round" stroke-linejoin="round"/>
</g>
<defs>
<clipPath id="clip0_1042_1490">
<rect width="16" height="16" fill="white" transform="translate(0 0.95459)"/>
</clipPath>
</defs>
</svg>
