<svg width="25" height="25" viewBox="0 0 25 25" fill="none" xmlns="http://www.w3.org/2000/svg">
<path d="M5.1267 8.95806C4.7324 8.95806 4.33809 8.97193 3.94378 8.95608C3.11751 8.92239 2.66178 8.45477 2.6162 7.65823C2.56865 6.83989 2.58054 6.0156 2.60828 5.19528C2.63602 4.38486 3.09968 3.89544 3.89622 3.84195C4.74627 3.78448 5.60622 3.78052 6.45626 3.84393C7.29838 3.90733 7.7442 4.42846 7.74817 5.29237C7.75015 5.95021 7.76006 6.60806 7.75015 7.26392C7.73033 8.54988 7.32216 8.94617 6.0144 8.96797C5.71916 8.97193 5.42194 8.96797 5.1267 8.96797C5.1267 8.964 5.1267 8.96202 5.1267 8.95806Z" fill="#7A8599"/>
<path d="M5.22788 16.226C5.59049 16.226 5.95508 16.2161 6.31768 16.228C7.23113 16.2597 7.72253 16.7352 7.74433 17.6507C7.76216 18.4096 7.7582 19.1704 7.74433 19.9293C7.7265 20.8547 7.19943 21.3223 6.31372 21.3679C5.5568 21.4075 4.79394 21.4115 4.03703 21.3659C3.07602 21.3084 2.63812 20.821 2.60047 19.8283C2.57868 19.2338 2.59057 18.6394 2.59651 18.045C2.61038 16.6322 3.00667 16.2418 4.4353 16.2181C4.69883 16.2141 4.96435 16.2181 5.22788 16.2181C5.22788 16.2201 5.22788 16.224 5.22788 16.226Z" fill="#7A8599"/>
<path d="M5.08331 15.1521C4.81978 15.1521 4.55426 15.158 4.29073 15.1501C3.02656 15.1164 2.62433 14.7261 2.59659 13.4897C2.58272 12.8952 2.5847 12.3008 2.59659 11.7063C2.62235 10.5076 3.00873 10.0796 4.17977 10.0182C4.903 9.9805 5.63218 9.99041 6.35739 10.0281C7.26093 10.0756 7.74044 10.573 7.74837 11.4924C7.75233 12.1205 7.75828 12.7466 7.75035 13.3747C7.73648 14.7499 7.36 15.1224 5.97497 15.1501C5.67775 15.158 5.38053 15.1521 5.08331 15.1521Z" fill="#7A8599"/>
<path d="M15.7713 18.261C17.5189 18.261 19.2646 18.261 21.0122 18.259C21.575 18.259 22.1516 18.3343 22.1615 19.0338C22.1714 19.7392 21.6047 19.8244 21.034 19.8244C17.507 19.8224 13.98 19.8224 10.4531 19.8224C9.88042 19.8224 9.33156 19.7253 9.35732 19.006C9.37911 18.3621 9.89825 18.259 10.4313 18.259C12.2126 18.263 13.9919 18.261 15.7713 18.261Z" fill="#7A8599"/>
<path d="M15.8189 12.0887C17.5646 12.0887 19.3103 12.0907 21.0559 12.0867C21.6286 12.0847 22.1834 12.1818 22.1616 12.8912C22.1418 13.5272 21.6147 13.6382 21.0837 13.6382C17.527 13.6402 13.9683 13.6402 10.4116 13.6362C9.88251 13.6362 9.35743 13.5233 9.35743 12.8714C9.35545 12.1501 9.92016 12.0867 10.4829 12.0867C12.2603 12.0907 14.0396 12.0887 15.8189 12.0887Z" fill="#7A8599"/>
<path d="M15.7726 7.40656C13.9913 7.40656 12.208 7.40656 10.4267 7.40656C9.90356 7.40656 9.36856 7.35505 9.35469 6.67937C9.3428 6.00964 9.86195 5.9066 10.393 5.9066C13.9576 5.90264 17.5222 5.90264 21.0869 5.90462C21.6159 5.90462 22.1569 5.99775 22.1628 6.64767C22.1688 7.37882 21.5763 7.40854 21.0215 7.40854C19.2699 7.40656 17.5203 7.40854 15.7726 7.40656Z" fill="#7A8599"/>
<path d="M6.17121 6.39603C6.37134 7.29957 5.86606 7.4026 5.11311 7.43034C4.26901 7.46205 4.17192 7.07566 4.13626 6.3663C4.09266 5.48654 4.4632 5.3518 5.23398 5.34189C6.0543 5.33 6.31585 5.6292 6.17121 6.39603Z" fill="#F6F7FA"/>
<path d="M6.17125 18.7901C6.31194 19.553 6.05633 19.8601 5.23204 19.8502C4.45928 19.8403 4.09073 19.6996 4.13432 18.8218C4.16998 18.1144 4.26509 17.7221 5.11118 17.7518C5.86809 17.7796 6.36742 17.8925 6.17125 18.7901Z" fill="#F6F7FA"/>
<path d="M4.17742 12.5484C3.9773 11.6627 4.45681 11.5478 5.20976 11.518C6.09349 11.4824 6.19652 11.8886 6.21832 12.6296C6.2421 13.4718 5.91714 13.658 5.13645 13.6699C4.26263 13.6818 4.02881 13.3231 4.17742 12.5484Z" fill="#F6F7FA"/>
</svg>
