<svg width="17" height="17" viewBox="0 0 17 17" fill="none" xmlns="http://www.w3.org/2000/svg">
<path d="M14.875 7.0835C14.875 12.0418 8.5 16.2918 8.5 16.2918C8.5 16.2918 2.125 12.0418 2.125 7.0835C2.125 5.39274 2.79665 3.77123 3.99219 2.57569C5.18774 1.38015 6.80924 0.708496 8.5 0.708496C10.1908 0.708496 11.8123 1.38015 13.0078 2.57569C14.2033 3.77123 14.875 5.39274 14.875 7.0835Z" stroke="#B6B9BF" stroke-width="1.3" stroke-linecap="round" stroke-linejoin="round"/>
<path d="M8.5 9.2085C9.6736 9.2085 10.625 8.2571 10.625 7.0835C10.625 5.90989 9.6736 4.9585 8.5 4.9585C7.32639 4.9585 6.375 5.90989 6.375 7.0835C6.375 8.2571 7.32639 9.2085 8.5 9.2085Z" stroke="#B6B9BF" stroke-width="1.3" stroke-linecap="round" stroke-linejoin="round"/>
</svg>
