<svg width="40" height="40" viewBox="0 0 40 40" fill="none" xmlns="http://www.w3.org/2000/svg">
<path d="M10 0C8.625 0 7.5 1.125 7.5 2.5V37.5C7.5 38.875 8.625 40 10 40H35C36.375 40 37.5 38.875 37.5 37.5V10L27.5 0H10Z" fill="#E2E5E7"/>
<path d="M30 10H37.5L27.5 0V7.5C27.5 8.875 28.625 10 30 10Z" fill="#B0B7BD"/>
<path d="M37.5 17.5L30 10H37.5V17.5Z" fill="#CAD1D8"/>
<path d="M32.5 32.5C32.5 33.1875 31.9375 33.75 31.25 33.75H3.75C3.0625 33.75 2.5 33.1875 2.5 32.5V20C2.5 19.3125 3.0625 18.75 3.75 18.75H31.25C31.9375 18.75 32.5 19.3125 32.5 20V32.5Z" fill="#5083E8"/>
<path d="M7.57195 25.6127V29.3102C7.57195 29.7514 7.21195 30.0002 6.85195 30.0002C6.53195 30.0002 6.25195 29.7514 6.25195 29.3102V23.6839C6.25195 23.1639 6.69195 22.9927 6.85195 22.9927C7.1407 22.9927 7.3107 23.1639 7.48195 23.3539L9.67945 26.3214L11.9582 23.2427C12.2895 22.8339 13.0982 22.9927 13.0982 23.6839V29.3102C13.0982 29.7514 12.8195 30.0002 12.4995 30.0002C12.1395 30.0002 11.8595 29.7514 11.8595 29.3102V25.6127L10.1995 27.7114C9.8407 28.1527 9.3907 28.1527 9.0607 27.7114L7.57195 25.6127Z" fill="white"/>
<path d="M18.2883 30.1002C16.4395 30.1802 14.5195 28.9502 14.5195 26.5015C14.5195 24.0427 16.4383 22.834 18.2883 22.834C20.037 22.9227 21.8658 24.1327 21.8658 26.5015C21.8658 28.8715 20.037 30.1002 18.2883 30.1002ZM18.1783 24.134C17.0583 24.134 15.8395 24.924 15.8395 26.5027C15.8395 28.0727 17.0595 28.8727 18.1783 28.8727C19.3283 28.8727 20.557 28.0727 20.557 26.5027C20.557 24.9227 19.3283 24.134 18.1783 24.134Z" fill="white"/>
<path d="M25.2859 29.5516L22.6472 24.0241C22.2572 23.2341 23.4372 22.5854 23.8759 23.4141L24.7659 25.4229L25.9147 28.0616L27.0434 25.4229L27.9334 23.4141C28.3334 22.6554 29.4922 23.1341 29.1534 23.9641L26.6047 29.5516C26.3747 30.1816 25.6647 30.3304 25.2859 29.5516Z" fill="white"/>
<path d="M31.25 33.75H7.5V35H31.25C31.9375 35 32.5 34.4375 32.5 33.75V32.5C32.5 33.1875 31.9375 33.75 31.25 33.75Z" fill="#CAD1D8"/>
</svg>
