<svg width="40" height="40" viewBox="0 0 40 40" fill="none" xmlns="http://www.w3.org/2000/svg">
<path d="M10 0C8.625 0 7.5 1.125 7.5 2.5V37.5C7.5 38.875 8.625 40 10 40H35C36.375 40 37.5 38.875 37.5 37.5V10L27.5 0H10Z" fill="#E2E5E7"/>
<path d="M30 10H37.5L27.5 0V7.5C27.5 8.875 28.625 10 30 10Z" fill="#B0B7BD"/>
<path d="M37.5 17.5L30 10H37.5V17.5Z" fill="#CAD1D8"/>
<path d="M32.5 32.5C32.5 33.1875 31.9375 33.75 31.25 33.75H3.75C3.0625 33.75 2.5 33.1875 2.5 32.5V20C2.5 19.3125 3.0625 18.75 3.75 18.75H31.25C31.9375 18.75 32.5 19.3125 32.5 20V32.5Z" fill="#F14242"/>
<path d="M7.94824 23.6837C7.94824 23.3537 8.20824 22.9937 8.62699 22.9937H10.9357C12.2357 22.9937 13.4057 23.8637 13.4057 25.5312C13.4057 27.1112 12.2357 27.9912 10.9357 27.9912H9.26699V29.3112C9.26699 29.7512 8.98699 29.9999 8.62699 29.9999C8.29699 29.9999 7.94824 29.7512 7.94824 29.3112V23.6837ZM9.26699 24.2524V26.7424H10.9357C11.6057 26.7424 12.1357 26.1512 12.1357 25.5312C12.1357 24.8324 11.6057 24.2524 10.9357 24.2524H9.26699Z" fill="white"/>
<path d="M15.3629 29.9997C15.0329 29.9997 14.6729 29.8197 14.6729 29.381V23.7035C14.6729 23.3447 15.0329 23.0835 15.3629 23.0835H17.6516C22.2191 23.0835 22.1191 29.9997 17.7416 29.9997H15.3629ZM15.9929 24.3035V28.781H17.6516C20.3503 28.781 20.4703 24.3035 17.6516 24.3035H15.9929Z" fill="white"/>
<path d="M23.7401 24.3838V25.9725H26.2889C26.6489 25.9725 27.0089 26.3325 27.0089 26.6813C27.0089 27.0113 26.6489 27.2813 26.2889 27.2813H23.7401V29.38C23.7401 29.73 23.4914 29.9988 23.1414 29.9988C22.7014 29.9988 22.4326 29.73 22.4326 29.38V23.7025C22.4326 23.3438 22.7026 23.0825 23.1414 23.0825H26.6501C27.0901 23.0825 27.3501 23.3438 27.3501 23.7025C27.3501 24.0225 27.0901 24.3825 26.6501 24.3825H23.7401V24.3838Z" fill="white"/>
<path d="M31.25 33.75H7.5V35H31.25C31.9375 35 32.5 34.4375 32.5 33.75V32.5C32.5 33.1875 31.9375 33.75 31.25 33.75Z" fill="#CAD1D8"/>
</svg>
