<svg width="28" height="28" viewBox="0 0 28 28" fill="none" xmlns="http://www.w3.org/2000/svg">
<path d="M2.34917 9.03346C2.24624 4.84901 3.92897 2.86867 7.56966 2.39428C8.86975 2.22422 9.96621 2.69861 10.6353 3.80402C11.2283 4.78188 11.6847 5.85596 12.092 6.93005C12.5283 8.07797 12.1837 9.12297 11.3827 10.0247C11.2596 10.1635 11.1208 10.2888 10.9866 10.4186C9.01296 12.3139 9.01296 12.3139 10.4249 14.6634C10.5391 14.8559 10.6577 15.0461 10.7807 15.2318C11.8615 16.8631 11.9645 16.8989 13.8419 16.3327C16.3839 15.5675 17.2655 15.8584 18.8117 17.9685C18.8789 18.058 18.9438 18.1497 19.0109 18.2392C20.5728 20.3494 20.7809 21.6987 19.7583 23.0749C18.0912 25.317 15.9363 26.1136 13.627 25.3304C11.1388 24.4868 9.23897 22.8377 7.65917 20.8081C4.83299 17.1719 2.6535 13.2403 2.34917 9.03346Z" fill="#7A8599"/>
<path d="M16.5624 2.38528C21.5501 2.73436 25.2736 6.4847 25.6093 11.3628C25.654 12.014 25.7324 12.7233 24.8171 12.7793C23.9713 12.8307 23.9579 12.1751 23.8997 11.5508C23.5036 7.34844 20.7043 4.53345 16.4952 4.10829C15.8329 4.04116 15.1191 4.03445 15.2242 3.12148C15.3272 2.21746 16.0723 2.36067 16.5624 2.38528Z" fill="#7A8599"/>
<path d="M16.4732 5.84916C19.38 5.9588 22.0652 8.67534 22.1547 11.5843C22.1726 12.1997 22.0652 12.7457 21.3245 12.7815C20.5883 12.8173 20.4406 12.2892 20.3757 11.6738C20.1229 9.34664 18.6415 7.84516 16.3725 7.62587C15.7102 7.56098 15.1418 7.41553 15.2201 6.61444C15.2917 5.87825 15.8758 5.81335 16.4732 5.84916Z" fill="#7A8599"/>
<path d="M16.171 9.37818C17.4152 9.34909 18.6101 10.5194 18.6257 11.7747C18.6325 12.2648 18.5161 12.6765 17.9656 12.775C17.4577 12.8645 17.0706 12.6698 16.9721 12.1372C16.8557 11.5196 16.5559 11.1415 15.907 11.0408C15.3834 10.9602 15.1439 10.6067 15.2155 10.083C15.2894 9.53258 15.6698 9.36475 16.171 9.37818Z" fill="#7A8599"/>
<path d="M7.88788 4.08599C7.93935 4.08599 7.97739 4.07928 8.01319 4.08599C9.70264 4.39479 9.63551 6.04172 10.3046 7.12251C10.7118 7.78039 10.5462 8.41813 10.0025 8.94398C9.54824 9.3848 9.08951 9.82562 8.6017 10.2284C7.65517 11.0138 7.40007 11.9693 7.78943 13.1262C8.34213 14.7731 9.2014 16.2366 10.3717 17.5187C11.1728 18.3937 12.1148 18.7629 13.2807 18.3265C13.3165 18.3131 13.35 18.3019 13.3858 18.2907C16.4201 17.4225 16.8878 17.6239 18.4117 20.3852C18.6466 20.8126 18.6936 21.2489 18.5482 21.6763C18.0872 23.0346 15.9099 24.1467 14.5069 23.7708C13.1845 23.415 12.0142 22.7504 11.0363 21.8173C7.50077 18.4451 5.07065 14.4352 4.1823 9.57053C4.04804 8.82986 4.07041 8.09366 4.15768 7.34852C4.44858 4.80652 5.89412 4.57157 7.88788 4.08599Z" fill="white"/>
</svg>
