<svg width="40" height="40" viewBox="0 0 40 40" fill="none" xmlns="http://www.w3.org/2000/svg">
<path d="M10 0C8.625 0 7.5 1.125 7.5 2.5V37.5C7.5 38.875 8.625 40 10 40H35C36.375 40 37.5 38.875 37.5 37.5V10L27.5 0H10Z" fill="#E2E5E7"/>
<path d="M30 10H37.5L27.5 0V7.5C27.5 8.875 28.625 10 30 10Z" fill="#B0B7BD"/>
<path d="M37.5 17.5L30 10H37.5V17.5Z" fill="#CAD1D8"/>
<path d="M32.5 32.5C32.5 33.1875 31.9375 33.75 31.25 33.75H3.75C3.0625 33.75 2.5 33.1875 2.5 32.5V20C2.5 19.3125 3.0625 18.75 3.75 18.75H31.25C31.9375 18.75 32.5 19.3125 32.5 20V32.5Z" fill="#50BEE8"/>
<path d="M7.8125 23.6834C7.8125 23.3534 8.0725 22.9922 8.49125 22.9922H10.8C12.1 22.9922 13.27 23.8622 13.27 25.5309C13.27 27.1109 12.1 27.9897 10.8 27.9897H9.13125V29.3097C9.13125 29.7509 8.85125 29.9997 8.49125 29.9997C8.16125 29.9997 7.8125 29.7509 7.8125 29.3097V23.6834ZM9.13125 24.2522V26.7409H10.8C11.47 26.7409 12 26.1509 12 25.5309C12 24.8309 11.47 24.2522 10.8 24.2522H9.13125Z" fill="white"/>
<path d="M14.3973 24.5825C14.6273 22.6437 17.5548 22.295 18.9348 23.355C19.6148 23.9037 18.8948 24.7737 18.2948 24.3337C17.5548 23.8637 15.8761 23.6437 15.6661 24.6825C15.3961 26.3225 19.7436 25.3837 19.6736 28.0412C19.6036 30.58 15.9261 30.64 14.5461 29.5C14.2148 29.2312 14.2261 28.7925 14.4061 28.5212C14.6661 28.2625 14.9548 28.1725 15.2961 28.4512C16.1148 29.0112 18.2248 29.4312 18.3736 28.01C18.2448 26.5325 14.0861 27.4225 14.3973 24.5825Z" fill="white"/>
<path d="M21.7369 30.0002C21.4069 30.0002 21.0469 29.819 21.0469 29.3802V23.704C21.0469 23.344 21.4069 23.084 21.7369 23.084H24.0256C28.5931 23.084 28.4931 30.0002 24.1156 30.0002H21.7369ZM22.3669 24.3027V28.7802H24.0256C26.7244 28.7802 26.8444 24.3027 24.0256 24.3027H22.3669Z" fill="white"/>
<path d="M31.25 33.75H7.5V35H31.25C31.9375 35 32.5 34.4375 32.5 33.75V32.5C32.5 33.1875 31.9375 33.75 31.25 33.75Z" fill="#CAD1D8"/>
</svg>
