<svg width="18" height="18" viewBox="0 0 18 18" fill="none" xmlns="http://www.w3.org/2000/svg">
<path d="M0.669128 9.02495C0.638772 4.46809 4.38538 0.699211 8.97717 0.67204C13.5386 0.643269 17.3108 4.39137 17.3363 8.9754C17.3603 13.5275 13.6041 17.3059 9.02829 17.3331C4.47165 17.3587 0.701082 13.6106 0.669128 9.02495ZM9.0251 16.0832C12.8867 16.064 16.0853 12.853 16.0837 8.99618C16.0805 5.12661 12.8931 1.93313 9.01871 1.92034C5.12352 1.90755 1.88018 5.16337 1.92332 9.04253C1.96646 12.9249 5.17145 16.1024 9.0251 16.0832Z" fill="#8E9AB2"/>
<path d="M9.02407 16.0833C5.17042 16.1025 1.96544 12.925 1.9223 9.04264C1.87916 5.16348 5.12249 1.90766 9.01768 1.92045C12.8921 1.93323 16.0795 5.12512 16.0827 8.99629C16.0843 12.8531 12.8857 16.0641 9.02407 16.0833ZM7.7587 6.89927C7.7571 6.89927 7.7555 6.89927 7.7539 6.89927C7.7539 7.56418 7.75231 8.23069 7.7539 8.89559C7.7539 9.18969 7.7587 9.47579 7.99515 9.70915C8.6598 10.3613 9.31166 11.0262 9.97311 11.6831C10.2623 11.9692 10.5898 12.0219 10.887 11.7215C11.181 11.4226 11.1219 11.0821 10.8518 10.7976C10.4316 10.3533 10.0146 9.90095 9.55131 9.50456C9.12633 9.14014 8.99212 8.72617 9.0081 8.17794C9.04325 7.03513 9.02248 5.88912 9.00969 4.74471C9.0049 4.31955 8.7956 3.99989 8.34026 4.02226C7.93125 4.04304 7.7587 4.34832 7.7587 4.74631C7.7587 5.46236 7.7587 6.18162 7.7587 6.89927Z" fill="white"/>
<path d="M7.75941 6.89938C7.75941 6.18012 7.75941 5.46247 7.75941 4.74322C7.75941 4.34523 7.93196 4.03995 8.34097 4.01917C8.79631 3.9968 9.00561 4.31646 9.01041 4.74162C9.02319 5.88603 9.04236 7.03044 9.00881 8.17485C8.99283 8.72148 9.12544 9.13705 9.55203 9.50147C10.0154 9.89786 10.4324 10.3502 10.8526 10.7945C11.1226 11.079 11.1817 11.4195 10.8877 11.7184C10.5905 12.0204 10.263 11.9677 9.97382 11.68C9.31237 11.0247 8.66051 10.3598 7.99587 9.70606C7.75941 9.4727 7.75462 9.1866 7.75462 8.8925C7.75302 8.22759 7.75462 7.56109 7.75462 6.89618C7.75621 6.89938 7.75781 6.89938 7.75941 6.89938Z" fill="#8E9AB2"/>
</svg>
