<svg width="20" height="20" viewBox="0 0 20 20" fill="none" xmlns="http://www.w3.org/2000/svg">
<path d="M9.23861 5.02174C9.23861 6.64245 9.23861 6.64245 10.837 7.05163C15.2261 8.17526 17.871 11.5398 17.9249 16.0535C17.9296 16.5058 17.9281 16.9725 17.3858 17.0476C16.834 17.1244 16.7325 16.6672 16.6199 16.2309C15.9967 13.8286 14.2794 12.6714 12.004 12.1855C11.281 12.0304 10.5436 11.9873 9.79994 11.9745C9.33534 11.9665 9.21324 12.1359 9.2291 12.5755C9.25764 13.3731 9.23069 14.1722 9.23861 14.9714C9.24179 15.3102 9.20056 15.6171 8.84854 15.7674C8.48701 15.9224 8.24599 15.6986 8.01765 15.4701C6.20841 13.648 4.40234 11.8163 2.58358 9.99736C2.16179 9.5754 2.13325 9.20619 2.56455 8.77304C4.40075 6.93495 6.22585 5.08567 8.05888 3.24279C8.26819 3.03181 8.49494 2.83841 8.82476 2.96628C9.18153 3.10373 9.24813 3.39942 9.2402 3.74307C9.23069 4.16982 9.23861 4.59658 9.23861 5.02174Z" fill="#525866"/>
<path d="M15.8976 12.649C13.7237 10.9596 11.3166 10.6079 8.78116 10.7598C8.21983 10.7934 7.99784 11.1178 8.00418 11.6565C8.01052 12.2606 8.00577 12.8648 8.00577 13.7007C6.55647 12.2367 5.26415 10.9244 3.96232 9.62177C3.74826 9.40759 3.83547 9.26854 4.00672 9.09751C5.28159 7.82684 6.55171 6.55296 7.87891 5.22314C8.10249 5.78096 7.98198 6.30522 7.99784 6.81189C8.02797 7.77729 8.13262 7.87958 9.07926 8.00265C11.4879 8.31593 13.6143 9.20141 15.1476 11.2009C15.4489 11.5925 15.747 12.0033 15.8976 12.649Z" fill="#FEFEFE"/>
</svg>
