<svg width="18" height="18" viewBox="0 0 18 18" fill="none" xmlns="http://www.w3.org/2000/svg">
<path d="M18 5.03268V16.0714C17.9994 16.5827 17.7961 17.073 17.4345 17.4345C17.073 17.7961 16.5827 17.9994 16.0714 18H14.7857V11.5714C14.7857 11.0599 14.5825 10.5694 14.2208 10.2077C13.8592 9.84605 13.3686 9.64286 12.8571 9.64286H5.14286C4.63137 9.64286 4.14083 9.84605 3.77915 10.2077C3.41747 10.5694 3.21428 11.0599 3.21428 11.5714V18H1.92857C1.41725 17.9994 0.927041 17.7961 0.565485 17.4345C0.20393 17.073 0.000561522 16.5827 0 16.0714V1.92858C0.000561522 1.41726 0.20393 0.927049 0.565485 0.565493C0.927041 0.203937 1.41725 0.000569042 1.92857 7.52008e-06H5.14286V3.21429C5.14286 3.72578 5.34604 4.21632 5.70772 4.578C6.0694 4.93967 6.55994 5.14286 7.07143 5.14286H10.9286C11.4401 5.14286 11.9306 4.93967 12.2923 4.578C12.6539 4.21632 12.8571 3.72578 12.8571 3.21429V7.52008e-06H12.9673C13.2207 -0.000702487 13.4718 0.0488707 13.7059 0.145856C13.94 0.242841 14.1525 0.385311 14.3312 0.565014L17.435 3.66879C17.6147 3.84746 17.7572 4.06001 17.8541 4.29412C17.9511 4.52824 18.0007 4.77927 18 5.03268ZM6.42857 7.52008e-06V3.21429C6.42857 3.38479 6.4963 3.5483 6.61686 3.66886C6.73742 3.78942 6.90093 3.85715 7.07143 3.85715H10.9286C11.0991 3.85715 11.2626 3.78942 11.3831 3.66886C11.5037 3.5483 11.5714 3.38479 11.5714 3.21429V7.52008e-06H6.42857ZM13.5 11.5714V18H4.5V11.5714C4.5 11.4009 4.56773 11.2374 4.68829 11.1169C4.80885 10.9963 4.97236 10.9286 5.14286 10.9286H12.8571C13.0276 10.9286 13.1911 10.9963 13.3117 11.1169C13.4323 11.2374 13.5 11.4009 13.5 11.5714ZM12.2143 14.7857H5.78571C5.61522 14.7857 5.4517 14.8534 5.33114 14.974C5.21058 15.0946 5.14286 15.2581 5.14286 15.4286C5.14286 15.5991 5.21058 15.7626 5.33114 15.8831C5.4517 16.0037 5.61522 16.0714 5.78571 16.0714H12.2143C12.3848 16.0714 12.5483 16.0037 12.6688 15.8831C12.7894 15.7626 12.8571 15.5991 12.8571 15.4286C12.8571 15.2581 12.7894 15.0946 12.6688 14.974C12.5483 14.8534 12.3848 14.7857 12.2143 14.7857ZM12.2143 12.8571H5.78571C5.61522 12.8571 5.4517 12.9249 5.33114 13.0454C5.21058 13.166 5.14286 13.3295 5.14286 13.5C5.14286 13.6705 5.21058 13.834 5.33114 13.9546C5.4517 14.0751 5.61522 14.1429 5.78571 14.1429H12.2143C12.3848 14.1429 12.5483 14.0751 12.6688 13.9546C12.7894 13.834 12.8571 13.6705 12.8571 13.5C12.8571 13.3295 12.7894 13.166 12.6688 13.0454C12.5483 12.9249 12.3848 12.8571 12.2143 12.8571Z" fill="#B6B9BF"/>
</svg>
