<svg width="20" height="20" viewBox="0 0 20 20" fill="none" xmlns="http://www.w3.org/2000/svg">
<path d="M8.51092 2.52698C10.8557 2.56534 12.673 3.57549 13.8062 5.63095C14.9378 7.68162 14.8643 9.77225 13.6096 11.7622C13.3091 12.2401 13.3219 12.4862 13.7311 12.8714C14.8739 13.9487 15.964 15.0803 17.078 16.1864C17.4025 16.5076 17.687 16.8769 17.2922 17.2812C16.8958 17.6856 16.5266 17.4155 16.2005 17.0862C15.1137 15.9898 13.9932 14.9253 12.9431 13.7937C12.518 13.3349 12.2414 13.311 11.7076 13.6434C8.74428 15.4943 4.89868 14.4682 3.2444 11.4297C1.6061 8.42005 2.80326 4.65437 5.88805 3.12636C6.71119 2.71878 7.58069 2.50461 8.51092 2.52698Z" fill="#596680"/>
<path d="M8.50236 13.303C5.86031 13.2886 3.73133 11.1469 3.7521 8.52239C3.77128 5.89313 5.91306 3.76094 8.53912 3.75295C11.1988 3.74496 13.3341 5.9139 13.307 8.59751C13.2814 11.2508 11.17 13.3174 8.50236 13.303Z" fill="#F6F7FA"/>
</svg>
