<svg width="25" height="25" viewBox="0 0 25 25" fill="none" xmlns="http://www.w3.org/2000/svg">
<path d="M2.96887 2.10986C3.14661 2.18379 3.42621 2.28168 3.68983 2.41355C9.74711 5.43441 15.8024 8.45526 21.8517 11.4881C22.305 11.7159 22.9161 11.8597 22.8762 12.555C22.8403 13.1823 22.2631 13.2842 21.8337 13.5C15.9002 16.4789 9.9628 19.4478 4.02535 22.4207C3.93548 22.4647 3.8516 22.5186 3.76173 22.5606C3.31637 22.7584 2.86502 23.124 2.38571 22.6925C1.9084 22.2629 2.186 21.7814 2.37373 21.3199C3.4342 18.7046 4.47071 16.0813 5.56913 13.482C5.8647 12.7828 5.85072 12.1934 5.56114 11.5021C4.45473 8.87083 3.39625 6.21959 2.32979 3.57034C1.98029 2.70724 2.19399 2.14982 2.96887 2.10986Z" fill="white"/>
<path d="M4.38574 4.49316C9.80194 7.20235 14.9925 9.79765 20.3787 12.4908C15.0244 15.1681 9.82791 17.7654 4.61341 20.3726C4.44366 20.059 4.64936 19.8512 4.73724 19.6314C5.49015 17.7514 6.27302 15.8833 6.99998 13.9913C7.21367 13.4379 7.50126 13.2361 8.0944 13.2481C9.92377 13.284 11.7551 13.274 13.5845 13.2541C14.1736 13.2481 15.0304 13.4858 15.0384 12.5228C15.0484 11.4959 14.1517 11.7396 13.5326 11.7316C11.7032 11.7077 9.87184 11.7017 8.04248 11.7356C7.48528 11.7456 7.21567 11.5478 7.01596 11.0384C6.19713 8.93654 5.33837 6.85071 4.38574 4.49316Z" fill="#5991FF"/>
</svg>
