<svg width="26" height="26" viewBox="0 0 26 26" fill="none" xmlns="http://www.w3.org/2000/svg">
<path d="M2.65304 16.038C2.64058 15.6038 2.79636 15.3525 3.0664 15.1573C3.40082 14.9121 3.73732 14.6691 4.06344 14.4136C5.12488 13.5848 5.15188 12.4735 4.13406 11.6281C2.33523 10.1326 2.32485 10.0806 3.41121 8.00554C3.55453 7.73135 3.70617 7.45716 3.88273 7.19959C5.39906 4.99156 5.49046 5.02479 7.39108 5.98445C8.55845 6.57229 9.59496 5.87228 9.77152 4.56366C10.0582 2.44702 10.0561 2.43663 12.1893 2.23099C12.7024 2.18114 13.2279 2.17491 13.741 2.22061C15.9283 2.42001 15.9283 2.4304 16.2336 4.59482C16.4164 5.89097 17.4446 6.54528 18.6411 5.97614C20.471 5.1058 20.5147 4.85654 22.0746 7.13936C22.2886 7.45301 22.4755 7.78536 22.6479 8.12394C23.6969 10.1783 23.6948 10.1803 21.9313 11.5887C20.8387 12.4611 20.8512 13.5744 21.9604 14.4302C23.6616 15.743 23.6761 15.797 22.7206 17.7184C22.5358 18.0881 22.3447 18.46 22.112 18.8027C20.5998 21.0273 20.5064 20.965 18.6078 20.0116C17.4488 19.43 16.4081 20.1259 16.2315 21.4324C15.947 23.5532 15.947 23.5615 13.8158 23.7671C13.3027 23.817 12.7772 23.8232 12.2641 23.7775C10.0789 23.5781 10.0789 23.5677 9.76944 21.4054C9.58457 20.1072 8.55014 19.457 7.36615 20.0158C5.56939 20.8633 5.505 21.1914 3.93258 18.865C3.32812 17.9739 2.86699 17.0101 2.65304 16.038Z" fill="#7A8599"/>
<path d="M19.7748 18.7092C19.6315 18.651 19.4113 18.5575 19.1849 18.4724C17.0412 17.6727 15.0056 18.7445 14.6982 21.0065C14.5549 22.0555 14.073 22.2341 13.2359 22.2051C12.891 22.1926 12.5462 22.1739 12.2014 22.1614C11.6821 22.1448 11.4703 21.935 11.3872 21.3617C10.9967 18.7112 9.05034 17.5875 6.58266 18.5762C6.05921 18.786 5.74556 18.7528 5.47552 18.2688C5.34051 18.0279 5.18472 17.7994 5.02685 17.5709C4.45355 16.74 4.33931 16.1542 5.3592 15.4002C7.00848 14.1809 6.91708 11.7132 5.24288 10.4752C4.42032 9.86871 4.41409 9.37227 4.91261 8.64733C5.12656 8.33368 5.32597 8.00964 5.51083 7.67937C5.7601 7.23277 6.04259 7.20785 6.52657 7.39479C9.11889 8.39807 10.9738 7.33248 11.3934 4.58438C11.4765 4.04431 11.6904 3.87606 12.1536 3.84906C12.5317 3.82621 12.9118 3.79505 13.2919 3.7992C14.0563 3.80544 14.5611 3.91345 14.692 4.94373C14.9786 7.212 17.0454 8.37938 19.1371 7.51319C19.9742 7.1663 20.4021 7.32833 20.7635 8.06572C20.9297 8.40638 21.1104 8.74288 21.314 9.06277C21.6297 9.55921 21.5383 9.86871 21.046 10.2468C18.9668 11.8483 18.9439 14.1498 20.9899 15.718C21.5051 16.1127 21.6443 16.4347 21.2891 16.9747C20.9484 17.4919 20.641 18.0341 20.3086 18.5575C20.2069 18.7071 20.0531 18.786 19.7748 18.7092Z" fill="white"/>
<path d="M12.9972 8.70557C15.4503 8.70349 17.3218 10.5937 17.3011 13.0489C17.2803 15.4418 15.4046 17.2926 12.9992 17.2926C10.544 17.2926 8.67871 15.4065 8.6974 12.9472C8.71818 10.5501 10.5856 8.70557 12.9972 8.70557Z" fill="#7A8599"/>
<path d="M13.0282 10.3256C14.5446 10.3422 15.7098 11.5241 15.6932 13.0301C15.6766 14.536 14.4864 15.691 12.968 15.6743C11.4516 15.6577 10.2843 14.4737 10.303 12.9699C10.3217 11.4618 11.5098 10.309 13.0282 10.3256Z" fill="white"/>
</svg>
