<svg width="17" height="17" viewBox="0 0 17 17" fill="none" xmlns="http://www.w3.org/2000/svg">
<path d="M0.167969 8.22084C0.223969 7.02084 0.726369 6.09764 1.80957 5.56964C2.90717 5.03364 3.99677 5.08804 4.95037 5.89604C5.31837 6.20804 5.59837 6.23844 6.01117 6.02084C7.16637 5.41284 8.33277 4.82404 9.51517 4.26884C9.98557 4.04804 10.16 3.78724 10.1568 3.24004C10.1504 1.82244 11.0496 0.713636 12.3712 0.356836C13.616 0.0208357 14.8688 0.488036 15.5936 1.55844C16.336 2.65444 16.2624 4.06564 15.4064 5.13124C14.4224 6.35684 12.6544 6.56164 11.32 5.54564C10.9408 5.25604 10.6624 5.21924 10.2528 5.43364C9.04797 6.06244 7.83677 6.68324 6.60157 7.24804C6.07677 7.48804 6.15677 7.86884 6.12477 8.29604C6.09277 8.73284 6.21117 8.98244 6.61437 9.17444C7.79357 9.73604 8.96157 10.32 10.1184 10.9248C10.5872 11.1696 10.92 11.2032 11.3984 10.8368C12.7744 9.78084 14.6832 10.1504 15.6 11.5664C16.5408 13.0192 16.1344 14.84 14.664 15.7504C13.2448 16.6304 11.3664 16.1232 10.5216 14.6272C10.2544 14.152 10.0976 13.6272 10.1536 13.0944C10.2064 12.5904 9.97757 12.3808 9.57757 12.1872C8.42557 11.632 7.27677 11.0672 6.14717 10.4672C5.66717 10.2128 5.33277 10.2016 4.87357 10.5808C3.94557 11.3488 2.87197 11.3952 1.79997 10.8576C0.721569 10.3168 0.225569 9.39684 0.167969 8.22084ZM13.1216 4.76324C14.0288 4.77764 14.72 4.12164 14.7296 3.24004C14.7392 2.40004 14.0128 1.64964 13.1664 1.62724C12.2928 1.60324 11.6 2.28804 11.592 3.18084C11.5856 4.11204 12.2 4.74884 13.1216 4.76324ZM11.592 13.216C11.5856 14.1184 12.2512 14.8096 13.128 14.8096C13.9712 14.808 14.712 14.0768 14.7264 13.232C14.7408 12.3552 14.056 11.6752 13.1568 11.6736C12.2304 11.6688 11.6 12.2912 11.592 13.216ZM3.15357 6.69124C2.23677 6.68804 1.54877 7.33924 1.54557 8.21124C1.54397 9.07844 2.23837 9.74244 3.14717 9.74244C4.03037 9.74244 4.66237 9.12963 4.68157 8.25444C4.70077 7.31844 4.09117 6.69444 3.15357 6.69124Z" fill="#8E9AB2"/>
</svg>
