<svg width="20" height="20" viewBox="0 0 20 20" fill="none" xmlns="http://www.w3.org/2000/svg">
<path d="M11.1553 14.1711C9.9934 14.1711 8.83147 14.1791 7.66955 14.1695C5.86246 14.1535 4.9399 13.377 4.60067 11.6034C4.16634 9.33289 3.70981 7.06717 3.31828 4.78867C3.18512 4.01212 2.86017 3.63823 2.06758 3.7357C1.91065 3.75487 1.75055 3.7357 1.59203 3.7373C1.15929 3.74369 0.840668 3.55994 0.858104 3.10136C0.873956 2.69392 1.18306 2.53413 1.57777 2.52135C2.77615 2.47821 3.95076 2.46383 4.41045 3.93543C4.53885 4.34767 4.90503 4.15753 5.15865 4.15912C9.35775 4.17191 13.5584 4.16711 17.7575 4.16871C18.9749 4.16871 19.1002 4.30772 18.8814 5.5013C18.5089 7.54013 18.1285 9.57736 17.7385 11.613C17.4088 13.3354 16.4609 14.1407 14.7251 14.1679C13.5331 14.1855 12.3442 14.1711 11.1553 14.1711Z" fill="#5991FF"/>
<path d="M9.50871 16.2674C9.49127 16.9576 8.90318 17.4961 8.20095 17.4626C7.53994 17.4306 7.00891 16.8666 7.02476 16.2099C7.0422 15.5164 7.62871 14.9811 8.33569 15.0163C9.00304 15.0498 9.52615 15.6091 9.50871 16.2674Z" fill="#5991FF"/>
<path d="M15.2643 16.2482C15.2595 16.9688 14.7222 17.4865 14.0025 17.4641C13.3304 17.4434 12.8295 16.9161 12.8311 16.2338C12.8342 15.5228 13.3827 14.9939 14.0944 15.0179C14.7697 15.0386 15.269 15.5643 15.2643 16.2482Z" fill="#5991FF"/>
<path d="M13.2004 8.96369C13.1496 9.42067 12.8611 9.62679 12.4411 9.57886C11.7864 9.50376 11.4535 9.66514 11.5661 10.4193C11.6311 10.8603 11.4329 11.2342 10.9146 11.2086C10.4454 11.1863 10.2757 10.822 10.3392 10.4193C10.458 9.66674 10.1204 9.50536 9.46573 9.57886C9.05042 9.6252 8.7207 9.43186 8.7207 8.9589C8.7207 8.48754 9.05359 8.27983 9.46414 8.33894C10.2282 8.45079 10.4089 8.10886 10.3407 7.4186C10.2979 6.99198 10.5278 6.68679 10.9938 6.70916C11.4155 6.72834 11.6279 7.03352 11.5677 7.417C11.4424 8.2271 11.7927 8.42683 12.5219 8.34214C12.9071 8.2974 13.1607 8.54027 13.2004 8.96369Z" fill="white"/>
</svg>
