<svg width="15" height="14" viewBox="0 0 15 14" fill="none" xmlns="http://www.w3.org/2000/svg">
<path d="M7.18738 0.206379C7.30104 -0.0687923 7.69896 -0.0687934 7.81262 0.206378L9.61126 4.56092C9.65957 4.67787 9.77172 4.75764 9.90025 4.76649L14.6859 5.0957C14.9883 5.11651 15.1113 5.48703 14.8791 5.6779L11.2051 8.69837C11.1064 8.77949 11.0636 8.90857 11.0947 9.03099L12.2538 13.589C12.327 13.877 12.0051 14.106 11.7479 13.9488L7.6786 11.461C7.56931 11.3942 7.43069 11.3942 7.3214 11.461L3.25206 13.9488C2.99491 14.106 2.67299 13.877 2.74624 13.589L3.9053 9.03099C3.93643 8.90857 3.89359 8.77949 3.79492 8.69837L0.120867 5.6779C-0.111304 5.48703 0.0116573 5.11651 0.314073 5.0957L5.09975 4.76649C5.22828 4.75765 5.34043 4.67787 5.38874 4.56092L7.18738 0.206379Z" fill="#FFBF00"/>
</svg>
