<svg width="18" height="16" viewBox="0 0 18 16" fill="none" xmlns="http://www.w3.org/2000/svg">
<path d="M3.63463 14.9151C3.82156 13.7308 4.01329 12.3866 4.25134 11.052C4.36798 10.403 4.28649 9.90755 3.74807 9.43124C2.85176 8.63847 2.04013 7.75139 1.19495 6.90267C0.936118 6.64215 0.597406 6.41678 0.717233 5.96765C0.853038 5.45778 1.31637 5.49134 1.69023 5.42741C3.02751 5.20204 4.36638 4.98786 5.71004 4.80725C6.15261 4.74811 6.39865 4.56431 6.59038 4.15673C7.132 3.00113 7.72155 1.86791 8.29352 0.726696C8.4501 0.41502 8.60507 0.0841639 9.03166 0.101746C9.41351 0.117729 9.5589 0.421413 9.70269 0.707516C10.2747 1.84873 10.8594 2.98355 11.4058 4.13755C11.5928 4.53234 11.8165 4.74172 12.2734 4.80406C13.6953 4.99586 15.1109 5.2452 16.5297 5.46897C16.854 5.52011 17.1671 5.57126 17.2822 5.94847C17.3956 6.31928 17.1719 6.54784 16.9419 6.778C16.0184 7.69865 15.1173 8.64646 14.1619 9.53514C13.7369 9.92993 13.6298 10.3311 13.7273 10.8745C13.9462 12.1053 14.1459 13.3408 14.3169 14.5779C14.3728 14.9775 14.5709 15.4394 14.1459 15.7703C13.7001 16.1171 13.3391 15.7559 12.9796 15.5705C11.8436 14.9887 10.7076 14.4069 9.59565 13.7819C9.17705 13.547 8.85432 13.5342 8.42933 13.7723C7.1991 14.4596 5.9481 15.1085 4.69231 15.7463C3.99571 16.0979 3.60587 15.8342 3.63463 14.9151ZM5.0438 14.1336C6.19894 13.5326 7.20229 13.0515 8.16251 12.4953C8.76644 12.1452 9.27451 12.1676 9.87045 12.5096C10.8307 13.0611 11.8324 13.5438 12.962 14.1304C12.7687 12.8309 12.6536 11.6753 12.4108 10.5469C12.259 9.84042 12.4875 9.39448 12.9764 8.94055C13.7593 8.21331 14.4958 7.43492 15.3681 6.56223C13.9845 6.35125 12.8118 6.15465 11.6343 6.00281C11.1087 5.93408 10.77 5.71831 10.5399 5.22442C10.0702 4.21107 9.55091 3.2233 9.0029 2.12844C8.46288 3.20412 7.95321 4.13595 7.52184 5.10614C7.26301 5.68794 6.89234 5.94687 6.26445 6.01719C5.1157 6.14826 3.97494 6.35924 2.55778 6.57981C3.54836 7.53402 4.37437 8.34118 5.21476 9.13396C5.57264 9.4712 5.71164 9.81804 5.61578 10.3359C5.3921 11.5331 5.24831 12.7446 5.0438 14.1336Z" fill="#8E9AB2"/>
<path d="M5.04266 14.1335C5.24717 12.7446 5.39096 11.533 5.61464 10.3359C5.7121 9.81802 5.5715 9.47118 5.21361 9.13393C4.37322 8.34116 3.54562 7.5324 2.55664 6.57979C3.9738 6.35922 5.11456 6.14664 6.2633 6.01717C6.8912 5.94525 7.26187 5.68792 7.52069 5.10612C7.95048 4.13753 8.46174 3.2041 9.00176 2.12842C9.54817 3.22168 10.069 4.21105 10.5387 5.2244C10.7672 5.71828 11.1075 5.93406 11.6332 6.00279C12.8107 6.15623 13.9834 6.35282 15.367 6.56221C14.4947 7.4349 13.7581 8.21329 12.9752 8.94053C12.4863 9.39446 12.2579 9.8404 12.4097 10.5469C12.6525 11.6753 12.7691 12.8309 12.9609 14.1303C11.8313 13.5437 10.8311 13.061 9.86931 12.5096C9.27497 12.1676 8.7669 12.1452 8.16137 12.4952C7.20115 13.0515 6.1978 13.5326 5.04266 14.1335Z" fill="white"/>
</svg>
