<svg width="53" height="41" viewBox="0 0 53 41" fill="none" xmlns="http://www.w3.org/2000/svg">
<path d="M24.707 40.2848C19.0286 40.2848 13.3502 40.2992 7.67184 40.28C4.66224 40.2704 3.74064 39.0272 4.77264 36.1904C6.63024 31.0928 8.59824 26.0336 10.4894 20.9504C11.195 19.0496 12.5342 18.2047 14.5214 18.2047C26.1998 18.2143 37.8734 18.1808 49.5518 18.2288C52.1534 18.2384 53.0798 19.5487 52.2062 21.9728C50.3102 27.2288 48.299 32.4368 46.3166 37.664C45.6062 39.536 44.2382 40.3279 42.2222 40.3088C36.3806 40.2512 30.5438 40.2848 24.707 40.2848Z" fill="#5991FF"/>
<path d="M0.606494 34.2174C0.606494 24.795 0.558494 15.3726 0.630494 5.9502C0.654494 2.8254 2.82409 0.770999 5.97289 0.689399C9.08809 0.612599 12.2033 0.689398 15.3185 0.665398C17.7521 0.646198 19.6385 1.8846 21.1793 3.5214C23.7809 6.2862 26.8049 7.2702 30.5873 6.9678C34.3169 6.6654 38.0945 6.8622 41.8481 6.9198C44.8865 6.963 47.0849 8.7822 47.5073 11.4222C47.7761 13.1214 47.4833 14.0286 45.3617 14.0046C35.4545 13.9038 25.5473 13.9662 15.6401 13.9518C14.1089 13.9518 12.6017 14.0382 11.1761 14.6286C8.9009 15.5694 7.45609 17.2638 6.60649 19.563C4.78729 24.483 2.90569 29.3838 1.04809 34.2894C0.904094 34.2654 0.755294 34.2414 0.606494 34.2174Z" fill="#5991FF"/>
</svg>
