<svg width="18" height="18" viewBox="0 0 18 18" fill="none" xmlns="http://www.w3.org/2000/svg">
<path d="M14.9062 2.25H11.8125V1.6875C11.8125 0.755508 11.057 0 10.125 0H7.875C6.94301 0 6.1875 0.755508 6.1875 1.6875V2.25H3.09375C2.31711 2.25 1.6875 2.87961 1.6875 3.65625V4.78125C1.6875 5.09193 1.93932 5.34375 2.25 5.34375H15.75C16.0607 5.34375 16.3125 5.09193 16.3125 4.78125V3.65625C16.3125 2.87961 15.6829 2.25 14.9062 2.25ZM7.3125 1.6875C7.3125 1.37742 7.56492 1.125 7.875 1.125H10.125C10.4351 1.125 10.6875 1.37742 10.6875 1.6875V2.25H7.3125V1.6875Z" fill="#B6B9BF"/>
<path d="M2.7539 6.46875C2.65353 6.46875 2.57355 6.55263 2.57833 6.6529L3.04239 16.3927C3.08528 17.2941 3.82567 18 4.72778 18H13.27C14.1722 18 14.9125 17.2941 14.9554 16.3927L15.4195 6.6529C15.4243 6.55263 15.3443 6.46875 15.2439 6.46875H2.7539ZM11.2489 7.875C11.2489 7.56422 11.5006 7.3125 11.8114 7.3125C12.1222 7.3125 12.3739 7.56422 12.3739 7.875V15.1875C12.3739 15.4983 12.1222 15.75 11.8114 15.75C11.5006 15.75 11.2489 15.4983 11.2489 15.1875V7.875ZM8.43641 7.875C8.43641 7.56422 8.68813 7.3125 8.99891 7.3125C9.3097 7.3125 9.56141 7.56422 9.56141 7.875V15.1875C9.56141 15.4983 9.3097 15.75 8.99891 15.75C8.68813 15.75 8.43641 15.4983 8.43641 15.1875V7.875ZM5.62391 7.875C5.62391 7.56422 5.87563 7.3125 6.18641 7.3125C6.4972 7.3125 6.74891 7.56422 6.74891 7.875V15.1875C6.74891 15.4983 6.4972 15.75 6.18641 15.75C5.87563 15.75 5.62391 15.4983 5.62391 15.1875V7.875Z" fill="#B6B9BF"/>
</svg>
