<svg width="16" height="16" viewBox="0 0 16 16" fill="none" xmlns="http://www.w3.org/2000/svg">
<path d="M2 4H3.33333H14" stroke="#8E9AB2" stroke-width="1.4" stroke-linecap="round" stroke-linejoin="round"/>
<path d="M5.33203 4.00016V2.66683C5.33203 2.31321 5.47251 1.97407 5.72256 1.72402C5.9726 1.47397 6.31174 1.3335 6.66536 1.3335H9.33203C9.68565 1.3335 10.0248 1.47397 10.2748 1.72402C10.5249 1.97407 10.6654 2.31321 10.6654 2.66683V4.00016M12.6654 4.00016V13.3335C12.6654 13.6871 12.5249 14.0263 12.2748 14.2763C12.0248 14.5264 11.6857 14.6668 11.332 14.6668H4.66536C4.31174 14.6668 3.9726 14.5264 3.72256 14.2763C3.47251 14.0263 3.33203 13.6871 3.33203 13.3335V4.00016H12.6654Z" stroke="#8E9AB2" stroke-width="1.4" stroke-linecap="round" stroke-linejoin="round"/>
<path d="M6.66797 7.3335V11.3335" stroke="#8E9AB2" stroke-width="1.4" stroke-linecap="round" stroke-linejoin="round"/>
<path d="M9.33203 7.3335V11.3335" stroke="#8E9AB2" stroke-width="1.4" stroke-linecap="round" stroke-linejoin="round"/>
</svg>
