<svg width="40" height="40" viewBox="0 0 40 40" fill="none" xmlns="http://www.w3.org/2000/svg">
<g clip-path="url(#clip0_322_8597)">
<path d="M22.0831 29.9998H17.9164C16.7681 29.9998 15.8331 29.0648 15.8331 27.9164V18.3331H11.2498C10.1548 18.3331 9.58643 17.0148 10.3448 16.2198L19.0948 7.05311C19.5664 6.55977 20.4331 6.55977 20.9048 7.05311L29.6548 16.2198C30.4131 17.0148 29.8448 18.3331 28.7498 18.3331H24.1664V27.9164C24.1664 29.0648 23.2314 29.9998 22.0831 29.9998Z" fill="#B6B9BF"/>
<path d="M35 39.9998H5C2.24333 39.9998 0 37.7565 0 34.9998V26.6665C0 23.9098 2.24333 21.6665 5 21.6665H7.5C8.42 21.6665 9.16667 22.4132 9.16667 23.3332C9.16667 24.2532 8.42 24.9998 7.5 24.9998H5C4.08167 24.9998 3.33333 25.7482 3.33333 26.6665V34.9998C3.33333 35.9182 4.08167 36.6665 5 36.6665H35C35.9183 36.6665 36.6667 35.9182 36.6667 34.9998V26.6665C36.6667 25.7482 35.9183 24.9998 35 24.9998H32.5C31.58 24.9998 30.8333 24.2532 30.8333 23.3332C30.8333 22.4132 31.58 21.6665 32.5 21.6665H35C37.7567 21.6665 40 23.9098 40 26.6665V34.9998C40 37.7565 37.7567 39.9998 35 39.9998Z" fill="#B6B9BF"/>
</g>
<defs>
<clipPath id="clip0_322_8597">
<rect width="40" height="40" fill="white"/>
</clipPath>
</defs>
</svg>
