<svg width="28" height="28" viewBox="0 0 28 28" fill="none" xmlns="http://www.w3.org/2000/svg">
<path d="M19.8483 18.2759C18.8319 22.3114 18.2571 22.7476 14.0828 22.7476C11.6061 22.7476 9.12946 22.7632 6.65502 22.7431C3.81219 22.7207 2.34084 21.2622 2.31643 18.4101C2.2898 15.4305 2.28758 12.4486 2.31865 9.46901C2.34528 6.80926 3.78999 5.29932 6.43088 5.24563C9.46012 5.18523 12.4916 5.19418 15.5231 5.24339C18.0374 5.28366 19.3091 6.48267 19.6597 8.98135C19.6885 9.19386 19.7307 9.40637 19.7884 9.73297C21.1643 8.91424 22.4559 8.13578 23.7564 7.37298C24.8704 6.71978 25.4519 7.0173 25.4608 8.29908C25.4852 12.0997 25.4852 15.898 25.4608 19.6986C25.4519 20.9804 24.8704 21.2779 23.7564 20.6202C22.4515 19.8574 21.1666 19.0678 19.8483 18.2759Z" fill="#7A8599"/>
<path d="M10.8912 21.0072C9.37766 21.0072 7.86193 21.0274 6.34841 21.0005C4.88594 20.9759 4.06705 20.1818 4.05373 18.7188C4.0271 15.5535 4.02488 12.3905 4.05595 9.22518C4.06927 7.82261 4.87706 7.00835 6.28628 6.9927C9.42648 6.95914 12.5645 6.95914 15.7047 6.9927C17.1095 7.00835 17.9283 7.82037 17.9439 9.22071C17.9772 12.3838 17.975 15.5468 17.9461 18.7099C17.9328 20.1773 17.1139 20.9737 15.6581 20.9983C14.0669 21.0274 12.4779 21.0072 10.8912 21.0072Z" fill="white"/>
<path d="M23.6827 9.43091C23.6827 12.5448 23.6827 15.455 23.6827 18.5241C22.3845 17.7524 21.1905 17.041 19.9966 16.3297C19.7857 16.2044 19.6925 16.0098 19.6925 15.7749C19.6903 14.5849 19.6837 13.3948 19.7014 12.207C19.7036 12.0459 19.8013 11.8155 19.9278 11.735C21.1328 10.9744 22.3534 10.2407 23.6827 9.43091Z" fill="#FDFDFD"/>
</svg>
