<svg width="40" height="40" viewBox="0 0 40 40" fill="none" xmlns="http://www.w3.org/2000/svg">
<path d="M10 0C8.625 0 7.5 1.125 7.5 2.5V37.5C7.5 38.875 8.625 40 10 40H35C36.375 40 37.5 38.875 37.5 37.5V10L27.5 0H10Z" fill="#E2E5E7"/>
<path d="M30 10H37.5L27.5 0V7.5C27.5 8.875 28.625 10 30 10Z" fill="#B0B7BD"/>
<path d="M37.5 17.5L30 10H37.5V17.5Z" fill="#CAD1D8"/>
<path d="M32.5 32.5C32.5 33.1875 31.9375 33.75 31.25 33.75H3.75C3.0625 33.75 2.5 33.1875 2.5 32.5V20C2.5 19.3125 3.0625 18.75 3.75 18.75H31.25C31.9375 18.75 32.5 19.3125 32.5 20V32.5Z" fill="#5ABD5A"/>
<path d="M10.3626 30.0001C9.73257 30.0001 9.48257 29.3913 9.84257 28.9613L13.4013 24.2338H10.4513C9.58257 24.2338 9.65257 23.0063 10.4513 23.0063H14.4801C15.2388 23.0063 15.4588 23.7238 14.9201 24.3051L11.5113 28.7313H14.7601C15.5601 28.7313 15.6601 30.0013 14.6813 30.0013H10.3626V30.0001Z" fill="white"/>
<path d="M16.5664 23.6834C16.5664 22.8634 17.8864 22.8334 17.8864 23.6834V29.3897C17.8864 30.2184 16.5664 30.2397 16.5664 29.3897V23.6834Z" fill="white"/>
<path d="M19.6582 23.6837C19.6582 23.3537 19.9182 22.9937 20.3382 22.9937H22.647C23.947 22.9937 25.117 23.8637 25.117 25.5312C25.117 27.1112 23.947 27.9912 22.647 27.9912H20.9782V29.3112C20.9782 29.7512 20.6982 29.9999 20.3382 29.9999C20.0082 29.9999 19.6582 29.7512 19.6582 29.3112V23.6837ZM20.977 24.2524V26.7424H22.6457C23.3157 26.7424 23.8457 26.1512 23.8457 25.5312C23.8457 24.8324 23.3157 24.2524 22.6457 24.2524H20.977Z" fill="white"/>
<path d="M31.25 33.75H7.5V35H31.25C31.9375 35 32.5 34.4375 32.5 33.75V32.5C32.5 33.1875 31.9375 33.75 31.25 33.75Z" fill="#CAD1D8"/>
</svg>
