<svg width="16" height="16" viewBox="0 0 16 16" fill="none" xmlns="http://www.w3.org/2000/svg">
<path d="M12 5.3335C12 4.27263 11.5786 3.25521 10.8284 2.50507C10.0783 1.75492 9.06087 1.3335 8 1.3335C6.93913 1.3335 5.92172 1.75492 5.17157 2.50507C4.42143 3.25521 4 4.27263 4 5.3335C4 10.0002 2 11.3335 2 11.3335H14C14 11.3335 12 10.0002 12 5.3335Z" stroke="#8E9AB2" stroke-width="1.4" stroke-linecap="round" stroke-linejoin="round"/>
<path d="M9.15432 14C9.03712 14.2021 8.86888 14.3698 8.66647 14.4864C8.46406 14.6029 8.23458 14.6643 8.00099 14.6643C7.7674 14.6643 7.53792 14.6029 7.33551 14.4864C7.13309 14.3698 6.96486 14.2021 6.84766 14" stroke="#8E9AB2" stroke-width="1.4" stroke-linecap="round" stroke-linejoin="round"/>
</svg>
