<svg width="16" height="16" viewBox="0 0 16 16" fill="none" xmlns="http://www.w3.org/2000/svg">
<g clip-path="url(#clip0_1048_1693)">
<path d="M6.6013 2.82652C7.06019 2.71911 7.53001 2.66541 8.0013 2.66652C12.668 2.66652 15.3346 7.99985 15.3346 7.99985C14.93 8.75693 14.4473 9.46968 13.8946 10.1265M9.41463 9.41319C9.23154 9.60969 9.01073 9.76729 8.7654 9.8766C8.52007 9.98591 8.25524 10.0447 7.9867 10.0494C7.71815 10.0542 7.45141 10.0048 7.20238 9.90418C6.95334 9.80359 6.72712 9.65387 6.5372 9.46396C6.34728 9.27404 6.19756 9.04782 6.09697 8.79878C5.99638 8.54975 5.94699 8.283 5.95172 8.01446C5.95646 7.74592 6.01524 7.48108 6.12455 7.23575C6.23386 6.99042 6.39147 6.76962 6.58797 6.58652M11.9613 11.9599C10.8217 12.8285 9.43404 13.3098 8.0013 13.3332C3.33464 13.3332 0.667969 7.99985 0.667969 7.99985C1.49723 6.45445 2.64739 5.10426 4.0413 4.03985L11.9613 11.9599Z" stroke="#8E9AB2" stroke-width="1.4" stroke-linecap="round" stroke-linejoin="round"/>
<path d="M0.667969 0.666504L15.3346 15.3332" stroke="#8E9AB2" stroke-width="1.4" stroke-linecap="round" stroke-linejoin="round"/>
</g>
<defs>
<clipPath id="clip0_1048_1693">
<rect width="16" height="16" fill="white"/>
</clipPath>
</defs>
</svg>
