<svg width="24" height="24" viewBox="0 0 24 24" fill="none" xmlns="http://www.w3.org/2000/svg">
<path d="M12.0955 22.0098C10.3221 22.0098 8.54679 22.0231 6.77339 22.006C5.05896 21.9889 4.31307 21.2715 4.17797 19.5533C4.16084 19.3383 4.23695 19.0757 3.98769 18.9596C3.10479 18.5505 3.18851 17.7647 3.19042 17.0017C3.19422 15.5441 3.19422 14.0866 3.19042 12.6309C3.18851 12.0658 3.27604 11.5273 3.84688 11.2666C4.29594 11.063 4.17036 10.6958 4.17226 10.3723C4.18177 8.47141 4.16845 6.57051 4.17987 4.67152C4.18938 3.10742 4.98475 2.23404 6.54505 2.18266C8.19097 2.12748 9.83879 2.18266 11.4866 2.15602C12.0232 2.14651 12.1145 2.39958 12.1107 2.85054C12.0955 4.40323 12.0936 5.95401 12.1088 7.50669C12.126 9.31435 12.927 10.0964 14.7385 10.1021C16.2912 10.1059 17.842 10.1135 19.3946 10.0964C19.8076 10.0926 20.0758 10.1554 20.0131 10.6539C19.9902 10.8347 19.9636 11.0801 20.1653 11.1639C21.1243 11.5692 20.9892 12.4083 20.993 13.1923C20.9987 14.6175 20.993 16.0426 20.9949 17.4678C20.9949 18.0273 20.9283 18.5696 20.3594 18.8455C19.9902 19.0262 20.0207 19.3212 20.0016 19.6389C19.9122 21.1973 19.1073 21.9775 17.5109 22.0003C15.707 22.0289 13.9013 22.0098 12.0955 22.0098Z" fill="#8E9AB2"/>
<path d="M13.5586 2.8125C15.5166 4.75145 17.4004 6.6181 19.3203 8.51899C18.8693 8.7302 18.3404 8.5894 17.838 8.60272C16.7629 8.62936 15.686 8.5932 14.6109 8.61604C13.8935 8.63126 13.5548 8.3173 13.5586 7.60184C13.5624 6.02442 13.5586 4.44891 13.5586 2.8125Z" fill="#8E9AB2"/>
<path d="M12.1091 12.5777C14.3259 12.5777 16.5427 12.6025 18.7575 12.5625C19.3911 12.5511 19.5776 12.7414 19.5548 13.3598C19.511 14.4976 19.5167 15.6393 19.5529 16.7791C19.57 17.3385 19.4273 17.5497 18.8222 17.5459C14.3259 17.5212 9.83148 17.525 5.33517 17.544C4.79478 17.5459 4.61972 17.3823 4.63494 16.8438C4.66919 15.6736 4.68441 14.4995 4.63114 13.3312C4.60069 12.6595 4.8823 12.5606 5.46076 12.5682C7.67561 12.5948 9.89237 12.5777 12.1091 12.5777Z" fill="#F7F9FA"/>
<path d="M8.15452 15.0343C8.16593 13.8603 8.91944 13.0459 9.9108 13.1144C10.3237 13.1429 10.6244 13.3427 10.8831 13.6395C11.0677 13.8527 11.1495 14.1114 10.984 14.3341C10.7823 14.6062 10.4797 14.6005 10.24 14.3664C9.8404 13.9763 9.5036 14.0049 9.27146 14.5053C9.0241 15.0381 9.03171 15.588 9.55688 15.9457C9.85562 16.1493 10.0802 15.9857 10.1144 15.5918C10.1429 15.276 10.3294 15.0324 10.6776 15.0971C11.0829 15.1713 11.0715 15.5233 11.0848 15.8487C11.1058 16.3682 10.8108 16.6878 10.3922 16.8895C9.82518 17.1616 9.26956 17.0684 8.79957 16.6574C8.31435 16.2331 8.12978 15.6698 8.15452 15.0343Z" fill="#8E9AB2"/>
<path d="M14.0806 15.1085C14.0806 14.9182 14.0806 14.7279 14.0806 14.5377C14.0806 13.1581 14.739 12.7015 16.1109 13.1182C16.3488 13.1905 16.5219 13.3161 16.5276 13.5615C16.5352 13.8565 16.3431 14.0258 16.0595 14.0601C15.8407 14.0867 15.6162 14.0715 15.3955 14.0829C15.2375 14.0924 15.0606 14.1076 15.0834 14.3303C15.0986 14.473 15.2242 14.5224 15.3593 14.5339C15.4849 14.5434 15.6124 14.5472 15.738 14.5662C16.0481 14.6157 16.3031 14.7565 16.2708 15.1085C16.2441 15.3939 16.0158 15.5804 15.7418 15.5519C15.0986 15.4815 14.994 15.8164 15.0511 16.3415C15.0891 16.6954 14.9711 17.0132 14.5678 17.0113C14.1682 17.0113 14.0692 16.6973 14.0787 16.3396C14.0882 15.9305 14.0806 15.5195 14.0806 15.1085Z" fill="#8E9AB2"/>
<path d="M13.108 15.1064C13.108 15.5497 13.1194 15.995 13.1042 16.4383C13.0928 16.7504 12.9539 17.0073 12.6076 17.0225C12.246 17.0377 12.0976 16.7713 12.0919 16.465C12.0729 15.5459 12.0748 14.6269 12.09 13.7078C12.0957 13.4091 12.208 13.1255 12.5809 13.1275C12.9996 13.1294 13.0985 13.4338 13.108 13.7744C13.1213 14.2178 13.1118 14.6611 13.1118 15.1064C13.1099 15.1064 13.108 15.1064 13.108 15.1064Z" fill="#8E9AB2"/>
</svg>
