<svg width="12" height="12" viewBox="0 0 12 12" fill="none" xmlns="http://www.w3.org/2000/svg">
<path d="M6 0C2.69166 0 0 2.69166 0 6C0 9.30834 2.69166 12 6 12C9.30834 12 12 9.30834 12 6C12 2.69166 9.30834 0 6 0ZM6 11C4.63791 11 3.40266 10.4511 2.50001 9.56473V8.74999C2.50001 8.5122 2.60646 8.35913 2.72951 8.18187C2.85621 7.99952 3 7.79273 3 7.5C3 7.02319 2.56957 6.97486 2.33812 6.94898C2.17259 6.93042 2.01635 6.91284 1.92675 6.82324C1.85888 6.75537 1.791 6.63209 1.71923 6.5017C1.57671 6.24239 1.38352 5.89948 1.01571 5.68945C1.17741 3.07725 3.34774 1.00001 6 1.00001C6.13723 1.00001 6.27213 1.00971 6.40662 1.02061C6.37924 1.03859 6.3457 1.0508 6.32325 1.07325C6.27466 1.12184 6.24806 1.18849 6.25001 1.25733C6.25221 1.32593 6.28247 1.39087 6.33375 1.43677C6.42359 1.51659 6.44093 1.55688 6.44435 1.55688C6.43873 1.56884 6.39284 1.64721 6.13697 1.7771C5.7146 1.9912 5.22682 2.42944 5.1543 2.88551C5.12109 3.09253 5.18116 3.28467 5.32324 3.42677C5.37012 3.47365 5.43359 3.50002 5.50001 3.50002C5.84719 3.50002 6.11548 3.3716 6.375 3.24757C6.64137 3.12035 6.89306 3 7.24999 3C8.2312 3 9 3.21973 9 3.49999C9 3.60277 8.96801 3.63427 8.95582 3.64598C8.83301 3.76683 8.41481 3.75902 8.04712 3.7534C7.94972 3.75169 7.85011 3.74998 7.75001 3.74998C7.41066 3.74998 7.30542 3.70041 7.18359 3.6428C7.04175 3.57591 6.88111 3.49997 6.49999 3.49997C6.08789 3.49997 5.32202 3.57443 4.82323 4.0732C4.41527 4.48092 4.45847 4.9687 4.4868 5.29123C4.49339 5.36545 4.5 5.43577 4.5 5.49996C4.5 5.99238 5.00318 6.24996 5.50001 6.24996C6.26416 6.24996 6.92482 6.39253 7.00001 6.49997C7.00001 6.77977 7.08326 6.97092 7.15015 7.12423C7.20581 7.25241 7.24999 7.35347 7.24999 7.49995C7.24999 7.61323 7.23143 7.63741 7.18139 7.70187C7.08593 7.8259 6.99998 7.9609 6.99998 8.24995C6.99998 8.77608 7.50659 9.35323 7.5642 9.41745C7.61229 9.47067 7.68016 9.49997 7.74998 9.49997C7.77073 9.49997 7.79149 9.49753 7.812 9.49216C7.95921 9.45431 9.24998 9.09909 9.24998 8.24998C9.24998 7.98387 9.33274 7.91208 9.45823 7.80319C9.58127 7.69624 9.74998 7.55002 9.74998 7.24997C9.74998 7.04953 10.1057 6.5322 10.4353 6.1677C10.4819 6.11618 10.5051 6.04734 10.499 5.97799C10.4929 5.90866 10.4582 5.84494 10.4033 5.80245C10.209 5.65181 9.67235 5.16134 9.49268 4.68551C9.59449 4.73873 9.72192 4.82541 9.82324 4.92673C9.90649 5.01047 10.0181 5.0505 10.145 5.04539C10.3475 5.03384 10.588 4.87385 10.816 4.6743C10.9326 5.09726 11 5.54046 11 6C11 8.75707 8.75707 11 6 11Z" fill="white"/>
</svg>
