<svg width="16" height="16" viewBox="0 0 16 16" fill="none" xmlns="http://www.w3.org/2000/svg">
<path d="M14.6915 1.96356C13.864 1.07402 12.7043 0.567887 11.4893 0.566011C10.2734 0.567418 9.11252 1.07328 8.28366 1.96299L8.00117 2.26149L7.71869 1.96299C6.07401 0.192861 3.30575 0.0912051 1.53562 1.73589C1.45719 1.8088 1.38143 1.88452 1.30852 1.96299C-0.436174 3.84486 -0.436174 6.7532 1.30852 8.63506L7.58604 15.2551C7.80322 15.4844 8.16515 15.4942 8.39443 15.277C8.40193 15.2699 8.40924 15.2626 8.41634 15.2551L14.6916 8.63506C16.4361 6.7534 16.4361 3.84522 14.6915 1.96356Z" fill="#F96363"/>
</svg>
