<svg width="24" height="24" viewBox="0 0 24 24" fill="none" xmlns="http://www.w3.org/2000/svg">
<path d="M18.8436 15.586C17.5197 14.3054 16.3671 13.1885 15.2145 12.0735C13.8963 10.7986 12.9834 10.751 11.7356 12.0411C11.184 12.612 10.8664 12.5111 10.408 11.9974C9.92297 11.4551 9.37519 10.9698 8.84642 10.4675C7.69378 9.37149 6.73705 9.31821 5.63196 10.4313C4.67143 11.398 3.82312 12.475 2.8797 13.4606C2.36425 13.0591 2.5069 12.7794 2.505 12.5549C2.49168 10.5246 2.48027 8.4962 2.5031 6.46592C2.52592 4.30624 4.07038 2.7136 6.20448 2.69076C9.18308 2.65842 12.1636 2.65842 15.1441 2.69076C17.1964 2.7117 18.7998 4.25487 18.8322 6.28325C18.8778 9.29157 18.8436 12.3018 18.8436 15.586Z" fill="#8E9AB2"/>
<path d="M7.36719 19.0226C9.09615 17.1236 11.0134 15.021 12.9288 12.9127C13.2844 12.5208 13.5926 12.555 13.9635 12.9203C15.2702 14.2066 16.5807 15.491 17.9254 16.7374C18.3515 17.1312 18.2507 17.3957 17.9273 17.7496C17.2597 18.4841 16.4342 18.9903 15.4566 19.0074C12.5921 19.055 9.72382 19.0226 7.36719 19.0226Z" fill="#8E9AB2"/>
<path d="M5.73047 20.008C9.03052 20.008 12.1309 20.0099 15.2312 20.008C18.1356 20.0042 19.8113 18.3221 19.817 15.3975C19.8227 12.3017 19.8189 9.2058 19.8189 5.96533C20.8441 6.71123 21.2816 7.63218 21.3006 8.70156C21.3425 11.1733 21.3729 13.6488 21.2968 16.1187C21.2055 19.0509 18.729 21.4503 15.8056 21.5017C13.4299 21.5416 11.0524 21.5188 8.67483 21.5074C7.53931 21.4998 6.60351 21.0507 5.73047 20.008Z" fill="#8E9AB2"/>
<path d="M7.26583 11.1123C7.37425 11.1846 7.5188 11.2531 7.62722 11.3578C8.37472 12.0827 9.55399 12.724 9.73659 13.5745C9.92109 14.4422 8.55732 15.0111 7.884 15.719C7.05661 16.5886 6.13792 17.3706 5.31814 18.2459C4.86545 18.7292 4.51738 18.7102 4.04377 18.3201C3.67287 18.0157 3.33811 17.6922 3.08324 17.2869C2.31101 16.0539 2.35856 15.6334 3.40088 14.623C4.46412 13.5878 5.53307 12.5584 6.60202 11.5252C6.78271 11.3502 6.9539 11.1637 7.26583 11.1123Z" fill="#8E9AB2"/>
<path d="M13.7269 6.66016C14.3415 6.71534 14.7963 7.07497 14.8553 7.82087C14.9105 8.50778 14.3358 9.11858 13.6565 9.12999C12.9963 9.14141 12.3817 8.5211 12.3988 7.85892C12.4159 7.20626 12.962 6.67157 13.7269 6.66016Z" fill="#F7F9FA"/>
</svg>
