<svg width="24" height="24" viewBox="0 0 24 24" fill="none" xmlns="http://www.w3.org/2000/svg">
<path d="M11.8814 21.8098C6.28848 21.6537 1.82528 17.1118 2.00941 11.7611C2.20121 6.18779 6.76606 1.79993 12.1652 1.99973C17.7524 2.20713 22.1254 6.65397 21.9912 11.9951C21.8531 17.5361 17.294 21.9601 11.8814 21.8098Z" fill="#8E9AB2"/>
<path d="M11.9017 17.3515C10.1659 17.3116 8.68141 16.6247 7.48649 15.3079C7.1259 14.9102 6.94178 14.4821 7.42511 14.0768C7.86625 13.7058 8.22684 13.955 8.58359 14.2975C10.8181 16.4382 13.1542 16.4401 15.4021 14.3051C15.7876 13.9398 16.177 13.6829 16.6315 14.1358C17.0401 14.5411 16.8406 14.9407 16.5126 15.3041C15.2966 16.6475 13.7814 17.3382 11.9017 17.3515Z" fill="#F7F9FA"/>
<path d="M9.04155 8.19703C9.7493 8.22367 10.2767 8.80403 10.2096 9.51948C10.1406 10.2673 9.68409 10.6631 8.94949 10.6459C8.19571 10.6269 7.80636 10.1341 7.75265 9.43005C7.70278 8.76787 8.3645 8.1723 9.04155 8.19703Z" fill="#F7F9FA"/>
<path d="M14.956 8.19692C15.6331 8.17409 16.2929 8.77157 16.2392 9.43374C16.1816 10.1378 15.7904 10.6306 15.0366 10.6458C14.302 10.661 13.8474 10.2634 13.7822 9.51556C13.7208 8.79821 14.2483 8.22166 14.956 8.19692Z" fill="#F7F9FA"/>
</svg>
