<svg width="24" height="24" viewBox="0 0 24 24" fill="none" xmlns="http://www.w3.org/2000/svg">
<path d="M12.8324 2.23336C15.6267 2.4426 18.2308 4.06517 19.6175 7.31032C21.0214 10.5935 20.4012 13.637 18.073 16.3115C16.6596 17.9341 15.1892 19.511 13.715 21.0803C12.5566 22.3129 11.2612 22.3186 10.1066 21.0879C8.54677 19.4254 6.95273 17.7876 5.50706 16.0262C3.2016 13.2185 2.82877 10.0837 4.4114 6.79863C5.81331 3.89588 8.99949 2.04504 12.8324 2.23336Z" fill="#8E9AB2"/>
<path d="M11.9602 8.16638C13.3545 8.18921 14.3951 9.28678 14.3494 10.6925C14.3075 12.0297 13.2119 13.0969 11.8918 13.0912C10.5317 13.0836 9.43602 11.9556 9.44934 10.5784C9.46456 9.18406 10.5469 8.14356 11.9602 8.16638Z" fill="#F7F9FA"/>
</svg>
