<svg width="16" height="16" viewBox="0 0 16 16" fill="none" xmlns="http://www.w3.org/2000/svg">
<g clip-path="url(#clip0_447_8632)">
<path d="M9.71483 3.44387V0.571277C9.71493 0.255672 9.97084 -0.000100418 10.2864 2.95757e-08C10.4483 3.3512e-05 10.6025 0.0687394 10.7109 0.188975L15.8537 5.90332C16.0418 6.11278 16.0493 6.42799 15.8715 6.64619L10.7285 12.9319C10.5287 13.1762 10.1687 13.2122 9.92443 13.0124C9.79211 12.9042 9.7152 12.7423 9.71483 12.5714V9.72393C5.20049 9.87078 2.38335 11.8005 1.11359 15.6097C1.03571 15.8427 0.817571 15.9999 0.571877 16C0.541072 16.0001 0.510269 15.9976 0.479867 15.9925C0.203436 15.9474 0.000431061 15.7086 0.000431061 15.4285C0.000464439 8.69933 4.05134 3.75586 9.71483 3.44387ZM10.2863 8.57133C10.6019 8.57133 10.8577 8.82717 10.8577 9.14277V10.9713L14.6766 6.3033L10.8577 2.06041V3.99984C10.8577 4.31545 10.6019 4.57129 10.2862 4.57129C5.79477 4.57129 2.4336 7.67932 1.44272 12.4216C3.28222 9.86392 6.24394 8.57133 10.2863 8.57133Z" fill="#596680"/>
</g>
<defs>
<clipPath id="clip0_447_8632">
<rect width="16" height="16" fill="white" transform="matrix(-1 0 0 1 16 0)"/>
</clipPath>
</defs>
</svg>
