<svg width="24" height="24" viewBox="0 0 24 24" fill="none" xmlns="http://www.w3.org/2000/svg">
<path d="M9.14615 1.71243C11.8775 1.72004 14.0953 3.95013 14.08 6.66732C14.0667 9.36739 11.7957 11.6203 9.1005 11.607C6.39199 11.5937 4.17991 9.34837 4.18752 6.62166C4.19513 3.87592 6.38818 1.70292 9.14615 1.71243Z" fill="#8E9AB2"/>
<path d="M12.2187 20.9799C9.0917 21.8609 6.15114 21.7886 3.48067 19.8573C1.87154 18.6947 1.50445 16.9803 1.75552 15.1117C1.87535 14.225 2.6666 13.58 3.65947 13.5724C7.14211 13.5476 10.6248 13.559 14.1074 13.5704C14.3851 13.5704 14.6609 13.677 15.125 13.7721C14.0199 14.8853 12.9966 15.8976 11.9942 16.927C11.087 17.8575 10.8587 18.8069 11.3475 19.7602C11.5568 20.1674 11.882 20.5157 12.2187 20.9799Z" fill="#8E9AB2"/>
<path d="M23.0083 14.9959C23.3677 16.305 22.624 17.3705 21.5151 18.3752C20.1095 19.6482 18.818 21.0449 17.4676 22.3806C16.6326 23.2064 16.0201 23.2102 15.1947 22.4015C14.3368 21.5586 13.4809 20.7138 12.6421 19.8518C11.9346 19.123 11.9212 18.4285 12.6345 17.7054C14.3216 15.9929 16.0373 14.307 17.7263 12.5964C18.1181 12.2006 18.586 12.0865 19.1034 12.0808C19.925 12.0713 20.7486 12.0598 21.5703 12.0827C22.702 12.1131 22.993 12.4347 23.0063 13.6011C23.0121 13.9798 23.0083 14.3603 23.0083 14.9959Z" fill="#8E9AB2"/>
<path d="M20.9905 14.783C20.941 15.2948 20.6747 15.565 20.2465 15.5479C19.8203 15.5308 19.5444 15.2472 19.5634 14.7944C19.5806 14.3491 19.8431 14.0808 20.2941 14.0979C20.7413 14.117 20.9525 14.41 20.9905 14.783Z" fill="#F7F9FA"/>
</svg>
