<svg width="24" height="24" viewBox="0 0 24 24" fill="none" xmlns="http://www.w3.org/2000/svg">
<path d="M11.908 14.0802C13.8063 14.0783 15.7047 14.0669 17.6031 14.0821C19.0754 14.0936 19.7602 14.843 19.8268 16.3153C19.9219 18.3925 18.9955 19.8838 17.1999 20.7665C13.7607 22.4575 10.2378 22.4765 6.77393 20.8578C4.82418 19.9466 3.83123 18.3488 3.98531 16.1175C4.07091 14.883 4.78043 14.105 6.02066 14.0879C7.98372 14.0612 9.94489 14.0821 11.908 14.0802Z" fill="#596680"/>
<path d="M11.7783 12.088C9.02774 11.991 6.86494 9.71785 6.94864 7.01102C7.03234 4.28137 9.34731 2.08434 12.0313 2.18705C14.7819 2.29168 16.9637 4.58763 16.8572 7.26401C16.7488 10.0241 14.4775 12.1812 11.7783 12.088Z" fill="#596680"/>
</svg>
