<svg width="24" height="24" viewBox="0 0 24 24" fill="none" xmlns="http://www.w3.org/2000/svg">
<path d="M21.4741 4.22461H2.52399C1.98254 4.22447 1.46319 4.43933 1.08009 4.82196C0.696986 5.20458 0.481487 5.72367 0.480957 6.26512V17.7342C0.481487 18.2757 0.696986 18.7948 1.08009 19.1774C1.46319 19.56 1.98254 19.7749 2.52399 19.7747H21.4741C22.0156 19.7749 22.5349 19.56 22.918 19.1774C23.3011 18.7948 23.5166 18.2757 23.5172 17.7342V6.26512C23.5166 5.72367 23.3011 5.20459 22.918 4.82196C22.5349 4.43933 22.0156 4.22447 21.4741 4.22461ZM2.47373 6.96875C2.47441 6.76925 2.55413 6.57815 2.69543 6.43731C2.83674 6.29648 3.0281 6.21739 3.22761 6.21738H5.70538C5.80423 6.21717 5.90215 6.23645 5.99354 6.27411C6.08493 6.31177 6.16801 6.36707 6.23802 6.43685C6.30803 6.50662 6.36361 6.58952 6.40157 6.68078C6.43953 6.77205 6.45913 6.8699 6.45926 6.96875V9.44651C6.45939 9.54555 6.43998 9.64364 6.40214 9.73517C6.36431 9.82669 6.30878 9.90985 6.23875 9.97988C6.16872 10.0499 6.08556 10.1054 5.99403 10.1433C5.90251 10.1811 5.80442 10.2005 5.70538 10.2004H3.22761C3.02771 10.2002 2.83605 10.1208 2.6947 9.97941C2.55336 9.83807 2.47388 9.64641 2.47373 9.44651V6.96875ZM3.22422 12.1937H6.65084C6.84996 12.1937 7.04092 12.2728 7.18172 12.4136C7.32252 12.5544 7.40162 12.7454 7.40162 12.9445C7.40162 13.1436 7.32252 13.3346 7.18172 13.4754C7.04092 13.6162 6.84996 13.6953 6.65084 13.6953H3.22422C3.0251 13.6953 2.83414 13.6162 2.69334 13.4754C2.55255 13.3346 2.47345 13.1436 2.47345 12.9445C2.47345 12.7454 2.55255 12.5544 2.69334 12.4136C2.83414 12.2728 3.0251 12.1937 3.22422 12.1937ZM12.6763 16.5481C12.6764 16.6511 12.6561 16.7531 12.6168 16.8482C12.5774 16.9434 12.5196 17.0299 12.4468 17.1027C12.374 17.1755 12.2875 17.2333 12.1924 17.2726C12.0972 17.312 11.9952 17.3322 11.8922 17.3321H3.25776C3.0499 17.3319 2.85064 17.2492 2.70366 17.1022C2.55668 16.9552 2.47399 16.756 2.47373 16.5481V16.5456C2.47365 16.4426 2.49387 16.3406 2.53325 16.2455C2.57262 16.1503 2.63037 16.0638 2.70319 15.991C2.77601 15.9182 2.86247 15.8604 2.95763 15.8211C3.05279 15.7817 3.15478 15.7615 3.25776 15.7616H11.8922C11.9953 15.7613 12.0974 15.7813 12.1926 15.8206C12.2879 15.8599 12.3744 15.9177 12.4473 15.9905C12.5202 16.0634 12.5779 16.15 12.6172 16.2452C12.6565 16.3405 12.6766 16.4425 12.6763 16.5456V16.5481ZM13.7121 13.6953H10.2855C10.0864 13.6953 9.8954 13.6162 9.7546 13.4754C9.6138 13.3346 9.5347 13.1436 9.5347 12.9445C9.5347 12.7454 9.6138 12.5544 9.7546 12.4136C9.8954 12.2729 10.0864 12.1938 10.2855 12.1938H13.7121C13.9112 12.1938 14.1022 12.2729 14.243 12.4136C14.3838 12.5544 14.4629 12.7454 14.4629 12.9445C14.4629 13.1436 14.3838 13.3346 14.243 13.4754C14.1022 13.6162 13.9112 13.6953 13.7121 13.6953ZM20.7733 13.6953H17.3467C17.1476 13.6953 16.9567 13.6162 16.8159 13.4754C16.6751 13.3346 16.596 13.1436 16.596 12.9445C16.596 12.7454 16.6751 12.5544 16.8159 12.4136C16.9567 12.2729 17.1476 12.1938 17.3467 12.1938H20.7734C20.9725 12.1938 21.1634 12.2729 21.3042 12.4136C21.445 12.5544 21.5241 12.7454 21.5241 12.9445C21.5241 13.1436 21.445 13.3346 21.3042 13.4754C21.1634 13.6162 20.9725 13.6953 20.7734 13.6953H20.7733Z" fill="#596680"/>
</svg>
