<svg width="24" height="24" viewBox="0 0 24 24" fill="none" xmlns="http://www.w3.org/2000/svg">
<path d="M11.9327 18.0083C9.72889 18.0083 7.52702 18.0121 5.32323 18.0063C3.28055 18.0006 2.44622 16.7731 3.4455 15.0296C4.34696 13.4588 4.52726 11.838 4.51191 10.0831C4.47931 6.4753 6.35512 3.61364 9.3146 2.51078C14.2842 0.659908 19.2364 4.07588 19.4973 9.53835C19.5126 9.85674 19.5299 10.179 19.4992 10.4954C19.3477 12.0663 19.7121 13.4837 20.4851 14.8781C21.5572 16.8172 20.7689 18.0025 18.5402 18.0063C16.3383 18.0102 14.1345 18.0083 11.9327 18.0083Z" fill="#596680"/>
<path d="M14.8482 19.0322C14.572 20.5206 13.4308 21.4873 11.9923 21.4854C10.5519 21.4834 9.40873 20.511 9.14404 19.0322C11.0486 19.0322 12.9436 19.0322 14.8482 19.0322Z" fill="#596680"/>
</svg>
